<?xml version="1.0"?>
<!-- Generated by SVGo -->
<svg width="330" height="330"
     xmlns="http://www.w3.org/2000/svg"
     xmlns:xlink="http://www.w3.org/1999/xlink">
<rect x="0" y="0" width="330" height="330" style="fill:#f8f2ec" />
<path d="M 135,40 L 140,45 L 135,50 L 130,45 Z" style="fill:#552048" />
<path d="M 145,40 L 150,45 L 145,50 L 140,45 Z" style="fill:#552048" />
<path d="M 165,40 L 170,45 L 165,50 L 160,45 Z" style="fill:#552048" />
<path d="M 175,40 L 180,45 L 175,50 L 170,45 Z" style="fill:#552048" />
<path d="M 185,40 L 190,45 L 185,50 L 180,45 Z" style="fill:#552048" />
<path d="M 195,40 L 200,45 L 195,50 L 190,45 Z" style="fill:#552048" />
<path d="M 145,50 L 150,55 L 145,60 L 140,55 Z" style="fill:#552048" />
<path d="M 165,50 L 170,55 L 165,60 L 160,55 Z" style="fill:#552048" />
<path d="M 185,50 L 190,55 L 185,60 L 180,55 Z" style="fill:#552048" />
<path d="M 205,50 L 210,55 L 205,60 L 200,55 Z" style="fill:#552048" />
<path d="M 125,60 L 130,65 L 125,70 L 120,65 Z" style="fill:#552048" />
<path d="M 165,60 L 170,65 L 165,70 L 160,65 Z" style="fill:#552048" />
<path d="M 195,60 L 200,65 L 195,70 L 190,65 Z" style="fill:#552048" />
<path d="M 125,70 L 130,75 L 125,80 L 120,75 Z" style="fill:#552048" />
<path d="M 135,70 L 140,75 L 135,80 L 130,75 Z" style="fill:#552048" />
<path d="M 155,70 L 160,75 L 155,80 L 150,75 Z" style="fill:#552048" />
<path d="M 185,70 L 190,75 L 185,80 L 180,75 Z" style="fill:#552048" />
<path d="M 165,80 L 170,85 L 165,90 L 160,85 Z" style="fill:#552048" />
<path d="M 195,80 L 200,85 L 195,90 L 190,85 Z" style="fill:#552048" />
<path d="M 145,90 L 150,95 L 145,100 L 140,95 Z" style="fill:#552048" />
<path d="M 155,90 L 160,95 L 155,100 L 150,95 Z" style="fill:#552048" />
<path d="M 165,90 L 170,95 L 165,100 L 160,95 Z" style="fill:#552048" />
<path d="M 175,90 L 180,95 L 175,100 L 170,95 Z" style="fill:#552048" />
<path d="M 205,90 L 210,95 L 205,100 L 200,95 Z" style="fill:#552048" />
<path d="M 125,100 L 130,105 L 125,110 L 120,105 Z" style="fill:#552048" />
<path d="M 145,100 L 150,105 L 145,110 L 140,105 Z" style="fill:#552048" />
<path d="M 165,100 L 170,105 L 165,110 L 160,105 Z" style="fill:#552048" />
<path d="M 185,100 L 190,105 L 185,110 L 180,105 Z" style="fill:#552048" />
<path d="M 205,100 L 210,105 L 205,110 L 200,105 Z" style="fill:#552048" />
<path d="M 135,110 L 140,115 L 135,120 L 130,115 Z" style="fill:#552048" />
<path d="M 145,110 L 150,115 L 145,120 L 140,115 Z" style="fill:#552048" />
<path d="M 155,110 L 160,115 L 155,120 L 150,115 Z" style="fill:#552048" />
<path d="M 185,110 L 190,115 L 185,120 L 180,115 Z" style="fill:#552048" />
<path d="M 195,110 L 200,115 L 195,120 L 190,115 Z" style="fill:#552048" />
<path d="M 205,110 L 210,115 L 205,120 L 200,115 Z" style="fill:#552048" />
<path d="M 75,120 L 80,125 L 75,130 L 70,125 Z" style="fill:#552048" />
<path d="M 85,120 L 90,125 L 85,130 L 80,125 Z" style="fill:#552048" />
<path d="M 105,120 L 110,125 L 105,130 L 100,125 Z" style="fill:#552048" />
<path d="M 115,120 L 120,125 L 115,130 L 110,125 Z" style="fill:#552048" />
<path d="M 145,120 L 150,125 L 145,130 L 140,125 Z" style="fill:#552048" />
<path d="M 155,120 L 160,125 L 155,130 L 150,125 Z" style="fill:#552048" />
<path d="M 185,120 L 190,125 L 185,130 L 180,125 Z" style="fill:#552048" />
<path d="M 205,120 L 210,125 L 205,130 L 200,125 Z" style="fill:#552048" />
<path d="M 255,120 L 260,125 L 255,130 L 250,125 Z" style="fill:#552048" />
<path d="M 265,120 L 270,125 L 265,130 L 260,125 Z" style="fill:#552048" />
<path d="M 45,130 L 50,135 L 45,140 L 40,135 Z" style="fill:#552048" />
<path d="M 55,130 L 60,135 L 55,140 L 50,135 Z" style="fill:#552048" />
<path d="M 65,130 L 70,135 L 65,140 L 60,135 Z" style="fill:#552048" />
<path d="M 85,130 L 90,135 L 85,140 L 80,135 Z" style="fill:#552048" />
<path d="M 115,130 L 120,135 L 115,140 L 110,135 Z" style="fill:#552048" />
<path d="M 165,130 L 170,135 L 165,140 L 160,135 Z" style="fill:#552048" />
<path d="M 205,130 L 210,135 L 205,140 L 200,135 Z" style="fill:#552048" />
<path d="M 225,130 L 230,135 L 225,140 L 220,135 Z" style="fill:#552048" />
<path d="M 245,130 L 250,135 L 245,140 L 240,135 Z" style="fill:#552048" />
<path d="M 265,130 L 270,135 L 265,140 L 260,135 Z" style="fill:#552048" />
<path d="M 55,140 L 60,145 L 55,150 L 50,145 Z" style="fill:#552048" />
<path d="M 95,140 L 100,145 L 95,150 L 90,145 Z" style="fill:#552048" />
<path d="M 105,140 L 110,145 L 105,150 L 100,145 Z" style="fill:#552048" />
<path d="M 125,140 L 130,145 L 125,150 L 120,145 Z" style="fill:#552048" />
<path d="M 165,140 L 170,145 L 165,150 L 160,145 Z" style="fill:#552048" />
<path d="M 195,140 L 200,145 L 195,150 L 190,145 Z" style="fill:#552048" />
<path d="M 265,140 L 270,145 L 265,150 L 260,145 Z" style="fill:#552048" />
<path d="M 285,140 L 290,145 L 285,150 L 280,145 Z" style="fill:#552048" />
<path d="M 45,150 L 50,155 L 45,160 L 40,155 Z" style="fill:#552048" />
<path d="M 55,150 L 60,155 L 55,160 L 50,155 Z" style="fill:#552048" />
<path d="M 75,150 L 80,155 L 75,160 L 70,155 Z" style="fill:#552048" />
<path d="M 125,150 L 130,155 L 125,160 L 120,155 Z" style="fill:#552048" />
<path d="M 135,150 L 140,155 L 135,160 L 130,155 Z" style="fill:#552048" />
<path d="M 155,150 L 160,155 L 155,160 L 150,155 Z" style="fill:#552048" />
<path d="M 165,150 L 170,155 L 165,160 L 160,155 Z" style="fill:#552048" />
<path d="M 185,150 L 190,155 L 185,160 L 180,155 Z" style="fill:#552048" />
<path d="M 205,150 L 210,155 L 205,160 L 200,155 Z" style="fill:#552048" />
<path d="M 215,150 L 220,155 L 215,160 L 210,155 Z" style="fill:#552048" />
<path d="M 235,150 L 240,155 L 235,160 L 230,155 Z" style="fill:#552048" />
<path d="M 255,150 L 260,155 L 255,160 L 250,155 Z" style="fill:#552048" />
<path d="M 265,150 L 270,155 L 265,160 L 260,155 Z" style="fill:#552048" />
<path d="M 285,150 L 290,155 L 285,160 L 280,155 Z" style="fill:#552048" />
<path d="M 65,160 L 70,165 L 65,170 L 60,165 Z" style="fill:#552048" />
<path d="M 95,160 L 100,165 L 95,170 L 90,165 Z" style="fill:#552048" />
<path d="M 105,160 L 110,165 L 105,170 L 100,165 Z" style="fill:#552048" />
<path d="M 115,160 L 120,165 L 115,170 L 110,165 Z" style="fill:#552048" />
<path d="M 125,160 L 130,165 L 125,170 L 120,165 Z" style="fill:#552048" />
<path d="M 135,160 L 140,165 L 135,170 L 130,165 Z" style="fill:#552048" />
<path d="M 165,160 L 170,165 L 165,170 L 160,165 Z" style="fill:#552048" />
<path d="M 185,160 L 190,165 L 185,170 L 180,165 Z" style="fill:#552048" />
<path d="M 195,160 L 200,165 L 195,170 L 190,165 Z" style="fill:#552048" />
<path d="M 205,160 L 210,165 L 205,170 L 200,165 Z" style="fill:#552048" />
<path d="M 255,160 L 260,165 L 255,170 L 250,165 Z" style="fill:#552048" />
<path d="M 275,160 L 280,165 L 275,170 L 270,165 Z" style="fill:#552048" />
<path d="M 45,170 L 50,175 L 45,180 L 40,175 Z" style="fill:#552048" />
<path d="M 75,170 L 80,175 L 75,180 L 70,175 Z" style="fill:#552048" />
<path d="M 115,170 L 120,175 L 115,180 L 110,175 Z" style="fill:#552048" />
<path d="M 135,170 L 140,175 L 135,180 L 130,175 Z" style="fill:#552048" />
<path d="M 155,170 L 160,175 L 155,180 L 150,175 Z" style="fill:#552048" />
<path d="M 185,170 L 190,175 L 185,180 L 180,175 Z" style="fill:#552048" />
<path d="M 205,170 L 210,175 L 205,180 L 200,175 Z" style="fill:#552048" />
<path d="M 225,170 L 230,175 L 225,180 L 220,175 Z" style="fill:#552048" />
<path d="M 245,170 L 250,175 L 245,180 L 240,175 Z" style="fill:#552048" />
<path d="M 265,170 L 270,175 L 265,180 L 260,175 Z" style="fill:#552048" />
<path d="M 45,180 L 50,185 L 45,190 L 40,185 Z" style="fill:#552048" />
<path d="M 55,180 L 60,185 L 55,190 L 50,185 Z" style="fill:#552048" />
<path d="M 75,180 L 80,185 L 75,190 L 70,185 Z" style="fill:#552048" />
<path d="M 95,180 L 100,185 L 95,190 L 90,185 Z" style="fill:#552048" />
<path d="M 105,180 L 110,185 L 105,190 L 100,185 Z" style="fill:#552048" />
<path d="M 135,180 L 140,185 L 135,190 L 130,185 Z" style="fill:#552048" />
<path d="M 145,180 L 150,185 L 145,190 L 140,185 Z" style="fill:#552048" />
<path d="M 155,180 L 160,185 L 155,190 L 150,185 Z" style="fill:#552048" />
<path d="M 165,180 L 170,185 L 165,190 L 160,185 Z" style="fill:#552048" />
<path d="M 185,180 L 190,185 L 185,190 L 180,185 Z" style="fill:#552048" />
<path d="M 205,180 L 210,185 L 205,190 L 200,185 Z" style="fill:#552048" />
<path d="M 225,180 L 230,185 L 225,190 L 220,185 Z" style="fill:#552048" />
<path d="M 275,180 L 280,185 L 275,190 L 270,185 Z" style="fill:#552048" />
<path d="M 285,180 L 290,185 L 285,190 L 280,185 Z" style="fill:#552048" />
<path d="M 45,190 L 50,195 L 45,200 L 40,195 Z" style="fill:#552048" />
<path d="M 65,190 L 70,195 L 65,200 L 60,195 Z" style="fill:#552048" />
<path d="M 75,190 L 80,195 L 75,200 L 70,195 Z" style="fill:#552048" />
<path d="M 145,190 L 150,195 L 145,200 L 140,195 Z" style="fill:#552048" />
<path d="M 155,190 L 160,195 L 155,200 L 150,195 Z" style="fill:#552048" />
<path d="M 185,190 L 190,195 L 185,200 L 180,195 Z" style="fill:#552048" />
<path d="M 195,190 L 200,195 L 195,200 L 190,195 Z" style="fill:#552048" />
<path d="M 215,190 L 220,195 L 215,200 L 210,195 Z" style="fill:#552048" />
<path d="M 225,190 L 230,195 L 225,200 L 220,195 Z" style="fill:#552048" />
<path d="M 235,190 L 240,195 L 235,200 L 230,195 Z" style="fill:#552048" />
<path d="M 245,190 L 250,195 L 245,200 L 240,195 Z" style="fill:#552048" />
<path d="M 255,190 L 260,195 L 255,200 L 250,195 Z" style="fill:#552048" />
<path d="M 265,190 L 270,195 L 265,200 L 260,195 Z" style="fill:#552048" />
<path d="M 45,200 L 50,205 L 45,210 L 40,205 Z" style="fill:#552048" />
<path d="M 65,200 L 70,205 L 65,210 L 60,205 Z" style="fill:#552048" />
<path d="M 105,200 L 110,205 L 105,210 L 100,205 Z" style="fill:#552048" />
<path d="M 115,200 L 120,205 L 115,210 L 110,205 Z" style="fill:#552048" />
<path d="M 125,200 L 130,205 L 125,210 L 120,205 Z" style="fill:#552048" />
<path d="M 135,200 L 140,205 L 135,210 L 130,205 Z" style="fill:#552048" />
<path d="M 165,200 L 170,205 L 165,210 L 160,205 Z" style="fill:#552048" />
<path d="M 175,200 L 180,205 L 175,210 L 170,205 Z" style="fill:#552048" />
<path d="M 205,200 L 210,205 L 205,210 L 200,205 Z" style="fill:#552048" />
<path d="M 215,200 L 220,205 L 215,210 L 210,205 Z" style="fill:#552048" />
<path d="M 225,200 L 230,205 L 225,210 L 220,205 Z" style="fill:#552048" />
<path d="M 235,200 L 240,205 L 235,210 L 230,205 Z" style="fill:#552048" />
<path d="M 245,200 L 250,205 L 245,210 L 240,205 Z" style="fill:#552048" />
<path d="M 255,200 L 260,205 L 255,210 L 250,205 Z" style="fill:#552048" />
<path d="M 265,200 L 270,205 L 265,210 L 260,205 Z" style="fill:#552048" />
<path d="M 125,210 L 130,215 L 125,220 L 120,215 Z" style="fill:#552048" />
<path d="M 165,210 L 170,215 L 165,220 L 160,215 Z" style="fill:#552048" />
<path d="M 175,210 L 180,215 L 175,220 L 170,215 Z" style="fill:#552048" />
<path d="M 195,210 L 200,215 L 195,220 L 190,215 Z" style="fill:#552048" />
<path d="M 205,210 L 210,215 L 205,220 L 200,215 Z" style="fill:#552048" />
<path d="M 245,210 L 250,215 L 245,220 L 240,215 Z" style="fill:#552048" />
<path d="M 255,210 L 260,215 L 255,220 L 250,215 Z" style="fill:#552048" />
<path d="M 275,210 L 280,215 L 275,220 L 270,215 Z" style="fill:#552048" />
<path d="M 125,220 L 130,225 L 125,230 L 120,225 Z" style="fill:#552048" />
<path d="M 135,220 L 140,225 L 135,230 L 130,225 Z" style="fill:#552048" />
<path d="M 155,220 L 160,225 L 155,230 L 150,225 Z" style="fill:#552048" />
<path d="M 165,220 L 170,225 L 165,230 L 160,225 Z" style="fill:#552048" />
<path d="M 195,220 L 200,225 L 195,230 L 190,225 Z" style="fill:#552048" />
<path d="M 205,220 L 210,225 L 205,230 L 200,225 Z" style="fill:#552048" />
<path d="M 225,220 L 230,225 L 225,230 L 220,225 Z" style="fill:#552048" />
<path d="M 245,220 L 250,225 L 245,230 L 240,225 Z" style="fill:#552048" />
<path d="M 255,220 L 260,225 L 255,230 L 250,225 Z" style="fill:#552048" />
<path d="M 285,220 L 290,225 L 285,230 L 280,225 Z" style="fill:#552048" />
<path d="M 135,230 L 140,235 L 135,240 L 130,235 Z" style="fill:#552048" />
<path d="M 145,230 L 150,235 L 145,240 L 140,235 Z" style="fill:#552048" />
<path d="M 205,230 L 210,235 L 205,240 L 200,235 Z" style="fill:#552048" />
<path d="M 245,230 L 250,235 L 245,240 L 240,235 Z" style="fill:#552048" />
<path d="M 275,230 L 280,235 L 275,240 L 270,235 Z" style="fill:#552048" />
<path d="M 285,230 L 290,235 L 285,240 L 280,235 Z" style="fill:#552048" />
<path d="M 125,240 L 130,245 L 125,250 L 120,245 Z" style="fill:#552048" />
<path d="M 135,240 L 140,245 L 135,250 L 130,245 Z" style="fill:#552048" />
<path d="M 145,240 L 150,245 L 145,250 L 140,245 Z" style="fill:#552048" />
<path d="M 155,240 L 160,245 L 155,250 L 150,245 Z" style="fill:#552048" />
<path d="M 185,240 L 190,245 L 185,250 L 180,245 Z" style="fill:#552048" />
<path d="M 195,240 L 200,245 L 195,250 L 190,245 Z" style="fill:#552048" />
<path d="M 205,240 L 210,245 L 205,250 L 200,245 Z" style="fill:#552048" />
<path d="M 215,240 L 220,245 L 215,250 L 210,245 Z" style="fill:#552048" />
<path d="M 225,240 L 230,245 L 225,250 L 220,245 Z" style="fill:#552048" />
<path d="M 235,240 L 240,245 L 235,250 L 230,245 Z" style="fill:#552048" />
<path d="M 245,240 L 250,245 L 245,250 L 240,245 Z" style="fill:#552048" />
<path d="M 255,240 L 260,245 L 255,250 L 250,245 Z" style="fill:#552048" />
<path d="M 125,250 L 130,255 L 125,260 L 120,255 Z" style="fill:#552048" />
<path d="M 135,250 L 140,255 L 135,260 L 130,255 Z" style="fill:#552048" />
<path d="M 185,250 L 190,255 L 185,260 L 180,255 Z" style="fill:#552048" />
<path d="M 195,250 L 200,255 L 195,260 L 190,255 Z" style="fill:#552048" />
<path d="M 205,250 L 210,255 L 205,260 L 200,255 Z" style="fill:#552048" />
<path d="M 225,250 L 230,255 L 225,260 L 220,255 Z" style="fill:#552048" />
<path d="M 255,250 L 260,255 L 255,260 L 250,255 Z" style="fill:#552048" />
<path d="M 285,250 L 290,255 L 285,260 L 280,255 Z" style="fill:#552048" />
<path d="M 135,260 L 140,265 L 135,270 L 130,265 Z" style="fill:#552048" />
<path d="M 155,260 L 160,265 L 155,270 L 150,265 Z" style="fill:#552048" />
<path d="M 185,260 L 190,265 L 185,270 L 180,265 Z" style="fill:#552048" />
<path d="M 195,260 L 200,265 L 195,270 L 190,265 Z" style="fill:#552048" />
<path d="M 225,260 L 230,265 L 225,270 L 220,265 Z" style="fill:#552048" />
<path d="M 235,260 L 240,265 L 235,270 L 230,265 Z" style="fill:#552048" />
<path d="M 245,260 L 250,265 L 245,270 L 240,265 Z" style="fill:#552048" />
<path d="M 255,260 L 260,265 L 255,270 L 250,265 Z" style="fill:#552048" />
<path d="M 265,260 L 270,265 L 265,270 L 260,265 Z" style="fill:#552048" />
<path d="M 275,260 L 280,265 L 275,270 L 270,265 Z" style="fill:#552048" />
<path d="M 285,260 L 290,265 L 285,270 L 280,265 Z" style="fill:#552048" />
<path d="M 165,270 L 170,275 L 165,280 L 160,275 Z" style="fill:#552048" />
<path d="M 185,270 L 190,275 L 185,280 L 180,275 Z" style="fill:#552048" />
<path d="M 205,270 L 210,275 L 205,280 L 200,275 Z" style="fill:#552048" />
<path d="M 255,270 L 260,275 L 255,280 L 250,275 Z" style="fill:#552048" />
<path d="M 265,270 L 270,275 L 265,280 L 260,275 Z" style="fill:#552048" />
<path d="M 275,270 L 280,275 L 275,280 L 270,275 Z" style="fill:#552048" />
<path d="M 285,270 L 290,275 L 285,280 L 280,275 Z" style="fill:#552048" />
<path d="M 135,280 L 140,285 L 135,290 L 130,285 Z" style="fill:#552048" />
<path d="M 145,280 L 150,285 L 145,290 L 140,285 Z" style="fill:#552048" />
<path d="M 165,280 L 170,285 L 165,290 L 160,285 Z" style="fill:#552048" />
<path d="M 185,280 L 190,285 L 185,290 L 180,285 Z" style="fill:#552048" />
<path d="M 215,280 L 220,285 L 215,290 L 210,285 Z" style="fill:#552048" />
<path d="M 245,280 L 250,285 L 245,290 L 240,285 Z" style="fill:#552048" />
<path d="M 255,280 L 260,285 L 255,290 L 250,285 Z" style="fill:#552048" />
<path d="M 285,280 L 290,285 L 285,290 L 280,285 Z" style="fill:#552048" />
<path d="M 75,40 L 110,75 L 75,110 L 40,75 Z" style="fill:#552048" />
<path d="M 75,50 L 100,75 L 75,100 L 50,75 Z" style="fill:#f8f2ec" />
<path d="M 75,60 L 90,75 L 75,90 L 60,75 Z" style="fill:#552048" />
<path d="M 255,40 L 290,75 L 255,110 L 220,75 Z" style="fill:#552048" />
<path d="M 255,50 L 280,75 L 255,100 L 230,75 Z" style="fill:#f8f2ec" />
<path d="M 255,60 L 270,75 L 255,90 L 240,75 Z" style="fill:#552048" />
<path d="M 75,220 L 110,255 L 75,290 L 40,255 Z" style="fill:#552048" />
<path d="M 75,230 L 100,255 L 75,280 L 50,255 Z" style="fill:#f8f2ec" />
<path d="M 75,240 L 90,255 L 75,270 L 60,255 Z" style="fill:#552048" />
</svg>
