<?xml version="1.0"?>
<!-- Generated by SVGo -->
<svg width="370" height="370"
     xmlns="http://www.w3.org/2000/svg"
     xmlns:xlink="http://www.w3.org/1999/xlink">
<rect x="0" y="0" width="370" height="370" style="fill:#f8f2ec" />
<circle cx="125" cy="45" r="6" style="fill:#552048" />
<circle cx="145" cy="45" r="6" style="fill:#552048" />
<circle cx="155" cy="45" r="6" style="fill:#552048" />
<circle cx="165" cy="45" r="6" style="fill:#552048" />
<circle cx="175" cy="45" r="6" style="fill:#552048" />
<circle cx="185" cy="45" r="6" style="fill:#552048" />
<circle cx="205" cy="45" r="6" style="fill:#552048" />
<circle cx="245" cy="45" r="6" style="fill:#552048" />
<circle cx="125" cy="55" r="6" style="fill:#552048" />
<circle cx="135" cy="55" r="6" style="fill:#552048" />
<circle cx="155" cy="55" r="6" style="fill:#552048" />
<circle cx="165" cy="55" r="6" style="fill:#552048" />
<circle cx="185" cy="55" r="6" style="fill:#552048" />
<circle cx="245" cy="55" r="6" style="fill:#552048" />
<circle cx="155" cy="65" r="6" style="fill:#552048" />
<circle cx="175" cy="65" r="6" style="fill:#552048" />
<circle cx="185" cy="65" r="6" style="fill:#552048" />
<circle cx="205" cy="65" r="6" style="fill:#552048" />
<circle cx="215" cy="65" r="6" style="fill:#552048" />
<circle cx="125" cy="75" r="6" style="fill:#552048" />
<circle cx="135" cy="75" r="6" style="fill:#552048" />
<circle cx="165" cy="75" r="6" style="fill:#552048" />
<circle cx="175" cy="75" r="6" style="fill:#552048" />
<circle cx="185" cy="75" r="6" style="fill:#552048" />
<circle cx="225" cy="75" r="6" style="fill:#552048" />
<circle cx="235" cy="75" r="6" style="fill:#552048" />
<circle cx="125" cy="85" r="6" style="fill:#552048" />
<circle cx="145" cy="85" r="6" style="fill:#552048" />
<circle cx="155" cy="85" r="6" style="fill:#552048" />
<circle cx="215" cy="85" r="6" style="fill:#552048" />
<circle cx="225" cy="85" r="6" style="fill:#552048" />
<circle cx="125" cy="95" r="6" style="fill:#552048" />
<circle cx="145" cy="95" r="6" style="fill:#552048" />
<circle cx="185" cy="95" r="6" style="fill:#552048" />
<circle cx="215" cy="95" r="6" style="fill:#552048" />
<circle cx="225" cy="95" r="6" style="fill:#552048" />
<circle cx="235" cy="95" r="6" style="fill:#552048" />
<circle cx="125" cy="105" r="6" style="fill:#552048" />
<circle cx="145" cy="105" r="6" style="fill:#552048" />
<circle cx="165" cy="105" r="6" style="fill:#552048" />
<circle cx="185" cy="105" r="6" style="fill:#552048" />
<circle cx="205" cy="105" r="6" style="fill:#552048" />
<circle cx="225" cy="105" r="6" style="fill:#552048" />
<circle cx="245" cy="105" r="6" style="fill:#552048" />
<circle cx="135" cy="115" r="6" style="fill:#552048" />
<circle cx="155" cy="115" r="6" style="fill:#552048" />
<circle cx="165" cy="115" r="6" style="fill:#552048" />
<circle cx="185" cy="115" r="6" style="fill:#552048" />
<circle cx="195" cy="115" r="6" style="fill:#552048" />
<circle cx="75" cy="125" r="6" style="fill:#552048" />
<circle cx="105" cy="125" r="6" style="fill:#552048" />
<circle cx="135" cy="125" r="6" style="fill:#552048" />
<circle cx="145" cy="125" r="6" style="fill:#552048" />
<circle cx="165" cy="125" r="6" style="fill:#552048" />
<circle cx="175" cy="125" r="6" style="fill:#552048" />
<circle cx="185" cy="125" r="6" style="fill:#552048" />
<circle cx="205" cy="125" r="6" style="fill:#552048" />
<circle cx="215" cy="125" r="6" style="fill:#552048" />
<circle cx="235" cy="125" r="6" style="fill:#552048" />
<circle cx="275" cy="125" r="6" style="fill:#552048" />
<circle cx="285" cy="125" r="6" style="fill:#552048" />
<circle cx="295" cy="125" r="6" style="fill:#552048" />
<circle cx="315" cy="125" r="6" style="fill:#552048" />
<circle cx="325" cy="125" r="6" style="fill:#552048" />
<circle cx="45" cy="135" r="6" style="fill:#552048" />
<circle cx="95" cy="135" r="6" style="fill:#552048" />
<circle cx="115" cy="135" r="6" style="fill:#552048" />
<circle cx="125" cy="135" r="6" style="fill:#552048" />
<circle cx="135" cy="135" r="6" style="fill:#552048" />
<circle cx="145" cy="135" r="6" style="fill:#552048" />
<circle cx="175" cy="135" r="6" style="fill:#552048" />
<circle cx="185" cy="135" r="6" style="fill:#552048" />
<circle cx="235" cy="135" r="6" style="fill:#552048" />
<circle cx="245" cy="135" r="6" style="fill:#552048" />
<circle cx="255" cy="135" r="6" style="fill:#552048" />
<circle cx="285" cy="135" r="6" style="fill:#552048" />
<circle cx="305" cy="135" r="6" style="fill:#552048" />
<circle cx="325" cy="135" r="6" style="fill:#552048" />
<circle cx="45" cy="145" r="6" style="fill:#552048" />
<circle cx="55" cy="145" r="6" style="fill:#552048" />
<circle cx="75" cy="145" r="6" style="fill:#552048" />
<circle cx="85" cy="145" r="6" style="fill:#552048" />
<circle cx="95" cy="145" r="6" style="fill:#552048" />
<circle cx="105" cy="145" r="6" style="fill:#552048" />
<circle cx="115" cy="145" r="6" style="fill:#552048" />
<circle cx="155" cy="145" r="6" style="fill:#552048" />
<circle cx="165" cy="145" r="6" style="fill:#552048" />
<circle cx="185" cy="145" r="6" style="fill:#552048" />
<circle cx="195" cy="145" r="6" style="fill:#552048" />
<circle cx="205" cy="145" r="6" style="fill:#552048" />
<circle cx="245" cy="145" r="6" style="fill:#552048" />
<circle cx="265" cy="145" r="6" style="fill:#552048" />
<circle cx="295" cy="145" r="6" style="fill:#552048" />
<circle cx="315" cy="145" r="6" style="fill:#552048" />
<circle cx="45" cy="155" r="6" style="fill:#552048" />
<circle cx="65" cy="155" r="6" style="fill:#552048" />
<circle cx="75" cy="155" r="6" style="fill:#552048" />
<circle cx="95" cy="155" r="6" style="fill:#552048" />
<circle cx="115" cy="155" r="6" style="fill:#552048" />
<circle cx="135" cy="155" r="6" style="fill:#552048" />
<circle cx="145" cy="155" r="6" style="fill:#552048" />
<circle cx="195" cy="155" r="6" style="fill:#552048" />
<circle cx="225" cy="155" r="6" style="fill:#552048" />
<circle cx="255" cy="155" r="6" style="fill:#552048" />
<circle cx="265" cy="155" r="6" style="fill:#552048" />
<circle cx="275" cy="155" r="6" style="fill:#552048" />
<circle cx="285" cy="155" r="6" style="fill:#552048" />
<circle cx="305" cy="155" r="6" style="fill:#552048" />
<circle cx="315" cy="155" r="6" style="fill:#552048" />
<circle cx="55" cy="165" r="6" style="fill:#552048" />
<circle cx="65" cy="165" r="6" style="fill:#552048" />
<circle cx="105" cy="165" r="6" style="fill:#552048" />
<circle cx="115" cy="165" r="6" style="fill:#552048" />
<circle cx="125" cy="165" r="6" style="fill:#552048" />
<circle cx="135" cy="165" r="6" style="fill:#552048" />
<circle cx="155" cy="165" r="6" style="fill:#552048" />
<circle cx="165" cy="165" r="6" style="fill:#552048" />
<circle cx="195" cy="165" r="6" style="fill:#552048" />
<circle cx="205" cy="165" r="6" style="fill:#552048" />
<circle cx="225" cy="165" r="6" style="fill:#552048" />
<circle cx="235" cy="165" r="6" style="fill:#552048" />
<circle cx="245" cy="165" r="6" style="fill:#552048" />
<circle cx="265" cy="165" r="6" style="fill:#552048" />
<circle cx="275" cy="165" r="6" style="fill:#552048" />
<circle cx="75" cy="175" r="6" style="fill:#552048" />
<circle cx="85" cy="175" r="6" style="fill:#552048" />
<circle cx="135" cy="175" r="6" style="fill:#552048" />
<circle cx="145" cy="175" r="6" style="fill:#552048" />
<circle cx="155" cy="175" r="6" style="fill:#552048" />
<circle cx="165" cy="175" r="6" style="fill:#552048" />
<circle cx="175" cy="175" r="6" style="fill:#552048" />
<circle cx="195" cy="175" r="6" style="fill:#552048" />
<circle cx="235" cy="175" r="6" style="fill:#552048" />
<circle cx="245" cy="175" r="6" style="fill:#552048" />
<circle cx="255" cy="175" r="6" style="fill:#552048" />
<circle cx="275" cy="175" r="6" style="fill:#552048" />
<circle cx="295" cy="175" r="6" style="fill:#552048" />
<circle cx="315" cy="175" r="6" style="fill:#552048" />
<circle cx="45" cy="185" r="6" style="fill:#552048" />
<circle cx="95" cy="185" r="6" style="fill:#552048" />
<circle cx="105" cy="185" r="6" style="fill:#552048" />
<circle cx="115" cy="185" r="6" style="fill:#552048" />
<circle cx="125" cy="185" r="6" style="fill:#552048" />
<circle cx="135" cy="185" r="6" style="fill:#552048" />
<circle cx="155" cy="185" r="6" style="fill:#552048" />
<circle cx="165" cy="185" r="6" style="fill:#552048" />
<circle cx="185" cy="185" r="6" style="fill:#552048" />
<circle cx="195" cy="185" r="6" style="fill:#552048" />
<circle cx="205" cy="185" r="6" style="fill:#552048" />
<circle cx="225" cy="185" r="6" style="fill:#552048" />
<circle cx="265" cy="185" r="6" style="fill:#552048" />
<circle cx="325" cy="185" r="6" style="fill:#552048" />
<circle cx="45" cy="195" r="6" style="fill:#552048" />
<circle cx="75" cy="195" r="6" style="fill:#552048" />
<circle cx="115" cy="195" r="6" style="fill:#552048" />
<circle cx="135" cy="195" r="6" style="fill:#552048" />
<circle cx="155" cy="195" r="6" style="fill:#552048" />
<circle cx="175" cy="195" r="6" style="fill:#552048" />
<circle cx="195" cy="195" r="6" style="fill:#552048" />
<circle cx="205" cy="195" r="6" style="fill:#552048" />
<circle cx="215" cy="195" r="6" style="fill:#552048" />
<circle cx="225" cy="195" r="6" style="fill:#552048" />
<circle cx="245" cy="195" r="6" style="fill:#552048" />
<circle cx="275" cy="195" r="6" style="fill:#552048" />
<circle cx="315" cy="195" r="6" style="fill:#552048" />
<circle cx="325" cy="195" r="6" style="fill:#552048" />
<circle cx="55" cy="205" r="6" style="fill:#552048" />
<circle cx="75" cy="205" r="6" style="fill:#552048" />
<circle cx="85" cy="205" r="6" style="fill:#552048" />
<circle cx="95" cy="205" r="6" style="fill:#552048" />
<circle cx="105" cy="205" r="6" style="fill:#552048" />
<circle cx="115" cy="205" r="6" style="fill:#552048" />
<circle cx="125" cy="205" r="6" style="fill:#552048" />
<circle cx="165" cy="205" r="6" style="fill:#552048" />
<circle cx="175" cy="205" r="6" style="fill:#552048" />
<circle cx="185" cy="205" r="6" style="fill:#552048" />
<circle cx="195" cy="205" r="6" style="fill:#552048" />
<circle cx="215" cy="205" r="6" style="fill:#552048" />
<circle cx="225" cy="205" r="6" style="fill:#552048" />
<circle cx="285" cy="205" r="6" style="fill:#552048" />
<circle cx="315" cy="205" r="6" style="fill:#552048" />
<circle cx="325" cy="205" r="6" style="fill:#552048" />
<circle cx="65" cy="215" r="6" style="fill:#552048" />
<circle cx="75" cy="215" r="6" style="fill:#552048" />
<circle cx="85" cy="215" r="6" style="fill:#552048" />
<circle cx="95" cy="215" r="6" style="fill:#552048" />
<circle cx="155" cy="215" r="6" style="fill:#552048" />
<circle cx="175" cy="215" r="6" style="fill:#552048" />
<circle cx="235" cy="215" r="6" style="fill:#552048" />
<circle cx="245" cy="215" r="6" style="fill:#552048" />
<circle cx="305" cy="215" r="6" style="fill:#552048" />
<circle cx="315" cy="215" r="6" style="fill:#552048" />
<circle cx="325" cy="215" r="6" style="fill:#552048" />
<circle cx="45" cy="225" r="6" style="fill:#552048" />
<circle cx="65" cy="225" r="6" style="fill:#552048" />
<circle cx="95" cy="225" r="6" style="fill:#552048" />
<circle cx="105" cy="225" r="6" style="fill:#552048" />
<circle cx="115" cy="225" r="6" style="fill:#552048" />
<circle cx="135" cy="225" r="6" style="fill:#552048" />
<circle cx="145" cy="225" r="6" style="fill:#552048" />
<circle cx="165" cy="225" r="6" style="fill:#552048" />
<circle cx="175" cy="225" r="6" style="fill:#552048" />
<circle cx="185" cy="225" r="6" style="fill:#552048" />
<circle cx="205" cy="225" r="6" style="fill:#552048" />
<circle cx="215" cy="225" r="6" style="fill:#552048" />
<circle cx="225" cy="225" r="6" style="fill:#552048" />
<circle cx="255" cy="225" r="6" style="fill:#552048" />
<circle cx="305" cy="225" r="6" style="fill:#552048" />
<circle cx="315" cy="225" r="6" style="fill:#552048" />
<circle cx="325" cy="225" r="6" style="fill:#552048" />
<circle cx="75" cy="235" r="6" style="fill:#552048" />
<circle cx="85" cy="235" r="6" style="fill:#552048" />
<circle cx="115" cy="235" r="6" style="fill:#552048" />
<circle cx="125" cy="235" r="6" style="fill:#552048" />
<circle cx="145" cy="235" r="6" style="fill:#552048" />
<circle cx="165" cy="235" r="6" style="fill:#552048" />
<circle cx="195" cy="235" r="6" style="fill:#552048" />
<circle cx="205" cy="235" r="6" style="fill:#552048" />
<circle cx="225" cy="235" r="6" style="fill:#552048" />
<circle cx="295" cy="235" r="6" style="fill:#552048" />
<circle cx="325" cy="235" r="6" style="fill:#552048" />
<circle cx="45" cy="245" r="6" style="fill:#552048" />
<circle cx="65" cy="245" r="6" style="fill:#552048" />
<circle cx="85" cy="245" r="6" style="fill:#552048" />
<circle cx="105" cy="245" r="6" style="fill:#552048" />
<circle cx="125" cy="245" r="6" style="fill:#552048" />
<circle cx="145" cy="245" r="6" style="fill:#552048" />
<circle cx="155" cy="245" r="6" style="fill:#552048" />
<circle cx="175" cy="245" r="6" style="fill:#552048" />
<circle cx="215" cy="245" r="6" style="fill:#552048" />
<circle cx="245" cy="245" r="6" style="fill:#552048" />
<circle cx="255" cy="245" r="6" style="fill:#552048" />
<circle cx="265" cy="245" r="6" style="fill:#552048" />
<circle cx="275" cy="245" r="6" style="fill:#552048" />
<circle cx="285" cy="245" r="6" style="fill:#552048" />
<circle cx="305" cy="245" r="6" style="fill:#552048" />
<circle cx="325" cy="245" r="6" style="fill:#552048" />
<circle cx="125" cy="255" r="6" style="fill:#552048" />
<circle cx="135" cy="255" r="6" style="fill:#552048" />
<circle cx="145" cy="255" r="6" style="fill:#552048" />
<circle cx="155" cy="255" r="6" style="fill:#552048" />
<circle cx="165" cy="255" r="6" style="fill:#552048" />
<circle cx="185" cy="255" r="6" style="fill:#552048" />
<circle cx="205" cy="255" r="6" style="fill:#552048" />
<circle cx="215" cy="255" r="6" style="fill:#552048" />
<circle cx="225" cy="255" r="6" style="fill:#552048" />
<circle cx="235" cy="255" r="6" style="fill:#552048" />
<circle cx="245" cy="255" r="6" style="fill:#552048" />
<circle cx="285" cy="255" r="6" style="fill:#552048" />
<circle cx="315" cy="255" r="6" style="fill:#552048" />
<circle cx="325" cy="255" r="6" style="fill:#552048" />
<circle cx="135" cy="265" r="6" style="fill:#552048" />
<circle cx="175" cy="265" r="6" style="fill:#552048" />
<circle cx="185" cy="265" r="6" style="fill:#552048" />
<circle cx="195" cy="265" r="6" style="fill:#552048" />
<circle cx="205" cy="265" r="6" style="fill:#552048" />
<circle cx="215" cy="265" r="6" style="fill:#552048" />
<circle cx="245" cy="265" r="6" style="fill:#552048" />
<circle cx="265" cy="265" r="6" style="fill:#552048" />
<circle cx="285" cy="265" r="6" style="fill:#552048" />
<circle cx="295" cy="265" r="6" style="fill:#552048" />
<circle cx="305" cy="265" r="6" style="fill:#552048" />
<circle cx="315" cy="265" r="6" style="fill:#552048" />
<circle cx="155" cy="275" r="6" style="fill:#552048" />
<circle cx="165" cy="275" r="6" style="fill:#552048" />
<circle cx="175" cy="275" r="6" style="fill:#552048" />
<circle cx="185" cy="275" r="6" style="fill:#552048" />
<circle cx="195" cy="275" r="6" style="fill:#552048" />
<circle cx="205" cy="275" r="6" style="fill:#552048" />
<circle cx="215" cy="275" r="6" style="fill:#552048" />
<circle cx="245" cy="275" r="6" style="fill:#552048" />
<circle cx="285" cy="275" r="6" style="fill:#552048" />
<circle cx="305" cy="275" r="6" style="fill:#552048" />
<circle cx="325" cy="275" r="6" style="fill:#552048" />
<circle cx="135" cy="285" r="6" style="fill:#552048" />
<circle cx="155" cy="285" r="6" style="fill:#552048" />
<circle cx="165" cy="285" r="6" style="fill:#552048" />
<circle cx="175" cy="285" r="6" style="fill:#552048" />
<circle cx="185" cy="285" r="6" style="fill:#552048" />
<circle cx="195" cy="285" r="6" style="fill:#552048" />
<circle cx="245" cy="285" r="6" style="fill:#552048" />
<circle cx="255" cy="285" r="6" style="fill:#552048" />
<circle cx="265" cy="285" r="6" style="fill:#552048" />
<circle cx="275" cy="285" r="6" style="fill:#552048" />
<circle cx="285" cy="285" r="6" style="fill:#552048" />
<circle cx="295" cy="285" r="6" style="fill:#552048" />
<circle cx="125" cy="295" r="6" style="fill:#552048" />
<circle cx="175" cy="295" r="6" style="fill:#552048" />
<circle cx="215" cy="295" r="6" style="fill:#552048" />
<circle cx="225" cy="295" r="6" style="fill:#552048" />
<circle cx="235" cy="295" r="6" style="fill:#552048" />
<circle cx="245" cy="295" r="6" style="fill:#552048" />
<circle cx="255" cy="295" r="6" style="fill:#552048" />
<circle cx="265" cy="295" r="6" style="fill:#552048" />
<circle cx="285" cy="295" r="6" style="fill:#552048" />
<circle cx="295" cy="295" r="6" style="fill:#552048" />
<circle cx="325" cy="295" r="6" style="fill:#552048" />
<circle cx="135" cy="305" r="6" style="fill:#552048" />
<circle cx="145" cy="305" r="6" style="fill:#552048" />
<circle cx="155" cy="305" r="6" style="fill:#552048" />
<circle cx="175" cy="305" r="6" style="fill:#552048" />
<circle cx="185" cy="305" r="6" style="fill:#552048" />
<circle cx="235" cy="305" r="6" style="fill:#552048" />
<circle cx="245" cy="305" r="6" style="fill:#552048" />
<circle cx="285" cy="305" r="6" style="fill:#552048" />
<circle cx="295" cy="305" r="6" style="fill:#552048" />
<circle cx="325" cy="305" r="6" style="fill:#552048" />
<circle cx="175" cy="315" r="6" style="fill:#552048" />
<circle cx="185" cy="315" r="6" style="fill:#552048" />
<circle cx="195" cy="315" r="6" style="fill:#552048" />
<circle cx="205" cy="315" r="6" style="fill:#552048" />
<circle cx="215" cy="315" r="6" style="fill:#552048" />
<circle cx="225" cy="315" r="6" style="fill:#552048" />
<circle cx="235" cy="315" r="6" style="fill:#552048" />
<circle cx="265" cy="315" r="6" style="fill:#552048" />
<circle cx="275" cy="315" r="6" style="fill:#552048" />
<circle cx="315" cy="315" r="6" style="fill:#552048" />
<circle cx="145" cy="325" r="6" style="fill:#552048" />
<circle cx="165" cy="325" r="6" style="fill:#552048" />
<circle cx="195" cy="325" r="6" style="fill:#552048" />
<circle cx="215" cy="325" r="6" style="fill:#552048" />
<circle cx="225" cy="325" r="6" style="fill:#552048" />
<circle cx="265" cy="325" r="6" style="fill:#552048" />
<circle cx="285" cy="325" r="6" style="fill:#552048" />
<circle cx="315" cy="325" r="6" style="fill:#552048" />
<rect x="40" y="40" width="70" height="70" rx="5" ry="5" style="fill:#552048" />
<rect x="50" y="50" width="50" height="50" rx="5" ry="5" style="fill:#f8f2ec" />
<path d="M 75,60 L 90,75 L 75,90 L 60,75 Z" style="fill:#552048" />
<rect x="260" y="40" width="70" height="70" rx="5" ry="5" style="fill:#552048" />
<rect x="270" y="50" width="50" height="50" rx="5" ry="5" style="fill:#f8f2ec" />
<path d="M 295,60 L 310,75 L 295,90 L 280,75 Z" style="fill:#552048" />
<rect x="40" y="260" width="70" height="70" rx="5" ry="5" style="fill:#552048" />
<rect x="50" y="270" width="50" height="50" rx="5" ry="5" style="fill:#f8f2ec" />
<path d="M 75,280 L 90,295 L 75,310 L 60,295 Z" style="fill:#552048" />
</svg>
