<?xml version="1.0"?>
<!-- Generated by SVGo -->
<svg width="450" height="450"
     xmlns="http://www.w3.org/2000/svg"
     xmlns:xlink="http://www.w3.org/1999/xlink">
<rect x="0" y="0" width="450" height="450" style="fill:#f8f2ec" />
<path d="M 120.0 42.0 A 2.0 2.0 0 0 1 122.0 40.0 L 158.0 40.0 A 2.0 2.0 0 0 1 160.0 42.0 L 160.0 88.0 A 2.0 2.0 0 0 1 158.0 90.0 L 122.0 90.0 A 2.0 2.0 0 0 1 120.0 88.0 Z" style="fill:#552048" />
<path d="M 170.0 42.0 A 2.0 2.0 0 0 1 172.0 40.0 L 188.0 40.0 A 2.0 2.0 0 0 1 190.0 42.0 L 190.0 58.0 A 2.0 2.0 0 0 1 188.0 60.0 L 172.0 60.0 A 2.0 2.0 0 0 1 170.0 58.0 Z" style="fill:#552048" />
<path d="M 200.0 42.0 A 2.0 2.0 0 0 1 202.0 40.0 L 238.0 40.0 A 2.0 2.0 0 0 1 240.0 42.0 L 240.0 68.0 A 2.0 2.0 0 0 1 238.0 70.0 L 202.0 70.0 A 2.0 2.0 0 0 1 200.0 68.0 Z" style="fill:#552048" />
<path d="M 260.0 42.0 A 2.0 2.0 0 0 1 262.0 40.0 L 288.0 40.0 A 2.0 2.0 0 0 1 290.0 42.0 L 290.0 58.0 A 2.0 2.0 0 0 1 288.0 60.0 L 262.0 60.0 A 2.0 2.0 0 0 1 260.0 58.0 Z" style="fill:#552048" />
<path d="M 300.0 42.0 A 2.0 2.0 0 0 1 302.0 40.0 L 318.0 40.0 A 2.0 2.0 0 0 1 320.0 42.0 L 320.0 78.0 A 2.0 2.0 0 0 1 318.0 80.0 L 302.0 80.0 A 2.0 2.0 0 0 1 300.0 78.0 Z" style="fill:#552048" />
<path d="M 320.0 42.0 A 2.0 2.0 0 0 1 322.0 40.0 L 328.0 40.0 A 2.0 2.0 0 0 1 330.0 42.0 L 330.0 48.0 A 2.0 2.0 0 0 1 328.0 50.0 L 322.0 50.0 A 2.0 2.0 0 0 1 320.0 48.0 Z" style="fill:#552048" />
<path d="M 240.0 62.0 A 2.0 2.0 0 0 1 242.0 60.0 L 258.0 60.0 A 2.0 2.0 0 0 1 260.0 62.0 L 260.0 68.0 A 2.0 2.0 0 0 1 258.0 70.0 L 242.0 70.0 A 2.0 2.0 0 0 1 240.0 68.0 Z" style="fill:#552048" />
<path d="M 190.0 72.0 A 2.0 2.0 0 0 1 192.0 70.0 L 198.0 70.0 A 2.0 2.0 0 0 1 200.0 72.0 L 200.0 88.0 A 2.0 2.0 0 0 1 198.0 90.0 L 192.0 90.0 A 2.0 2.0 0 0 1 190.0 88.0 Z" style="fill:#552048" />
<path d="M 210.0 72.0 A 2.0 2.0 0 0 1 212.0 70.0 L 218.0 70.0 A 2.0 2.0 0 0 1 220.0 72.0 L 220.0 78.0 A 2.0 2.0 0 0 1 218.0 80.0 L 212.0 80.0 A 2.0 2.0 0 0 1 210.0 78.0 Z" style="fill:#552048" />
<path d="M 220.0 72.0 A 2.0 2.0 0 0 1 222.0 70.0 L 318.0 70.0 A 2.0 2.0 0 0 1 320.0 72.0 L 320.0 138.0 A 2.0 2.0 0 0 1 318.0 140.0 L 222.0 140.0 A 2.0 2.0 0 0 1 220.0 138.0 Z" style="fill:#552048" />
<path d="M 160.0 82.0 A 2.0 2.0 0 0 1 162.0 80.0 L 168.0 80.0 A 2.0 2.0 0 0 1 170.0 82.0 L 170.0 88.0 A 2.0 2.0 0 0 1 168.0 90.0 L 162.0 90.0 A 2.0 2.0 0 0 1 160.0 88.0 Z" style="fill:#552048" />
<path d="M 120.0 92.0 A 2.0 2.0 0 0 1 122.0 90.0 L 138.0 90.0 A 2.0 2.0 0 0 1 140.0 92.0 L 140.0 138.0 A 2.0 2.0 0 0 1 138.0 140.0 L 122.0 140.0 A 2.0 2.0 0 0 1 120.0 138.0 Z" style="fill:#552048" />
<path d="M 150.0 92.0 A 2.0 2.0 0 0 1 152.0 90.0 L 158.0 90.0 A 2.0 2.0 0 0 1 160.0 92.0 L 160.0 98.0 A 2.0 2.0 0 0 1 158.0 100.0 L 152.0 100.0 A 2.0 2.0 0 0 1 150.0 98.0 Z" style="fill:#552048" />
<path d="M 170.0 92.0 A 2.0 2.0 0 0 1 172.0 90.0 L 178.0 90.0 A 2.0 2.0 0 0 1 180.0 92.0 L 180.0 98.0 A 2.0 2.0 0 0 1 178.0 100.0 L 172.0 100.0 A 2.0 2.0 0 0 1 170.0 98.0 Z" style="fill:#552048" />
<path d="M 170.0 92.0 A 2.0 2.0 0 0 1 172.0 90.0 L 208.0 90.0 A 2.0 2.0 0 0 1 210.0 92.0 L 210.0 158.0 A 2.0 2.0 0 0 1 208.0 160.0 L 172.0 160.0 A 2.0 2.0 0 0 1 170.0 158.0 Z" style="fill:#552048" />
<path d="M 140.0 102.0 A 2.0 2.0 0 0 1 142.0 100.0 L 148.0 100.0 A 2.0 2.0 0 0 1 150.0 102.0 L 150.0 108.0 A 2.0 2.0 0 0 1 148.0 110.0 L 142.0 110.0 A 2.0 2.0 0 0 1 140.0 108.0 Z" style="fill:#552048" />
<path d="M 160.0 102.0 A 2.0 2.0 0 0 1 162.0 100.0 L 168.0 100.0 A 2.0 2.0 0 0 1 170.0 102.0 L 170.0 108.0 A 2.0 2.0 0 0 1 168.0 110.0 L 162.0 110.0 A 2.0 2.0 0 0 1 160.0 108.0 Z" style="fill:#552048" />
<path d="M 220.0 102.0 A 2.0 2.0 0 0 1 222.0 100.0 L 228.0 100.0 A 2.0 2.0 0 0 1 230.0 102.0 L 230.0 118.0 A 2.0 2.0 0 0 1 228.0 120.0 L 222.0 120.0 A 2.0 2.0 0 0 1 220.0 118.0 Z" style="fill:#552048" />
<path d="M 240.0 102.0 A 2.0 2.0 0 0 1 242.0 100.0 L 248.0 100.0 A 2.0 2.0 0 0 1 250.0 102.0 L 250.0 108.0 A 2.0 2.0 0 0 1 248.0 110.0 L 242.0 110.0 A 2.0 2.0 0 0 1 240.0 108.0 Z" style="fill:#552048" />
<path d="M 260.0 102.0 A 2.0 2.0 0 0 1 262.0 100.0 L 268.0 100.0 A 2.0 2.0 0 0 1 270.0 102.0 L 270.0 108.0 A 2.0 2.0 0 0 1 268.0 110.0 L 262.0 110.0 A 2.0 2.0 0 0 1 260.0 108.0 Z" style="fill:#552048" />
<path d="M 320.0 102.0 A 2.0 2.0 0 0 1 322.0 100.0 L 328.0 100.0 A 2.0 2.0 0 0 1 330.0 102.0 L 330.0 108.0 A 2.0 2.0 0 0 1 328.0 110.0 L 322.0 110.0 A 2.0 2.0 0 0 1 320.0 108.0 Z" style="fill:#552048" />
<path d="M 60.0 122.0 A 2.0 2.0 0 0 1 62.0 120.0 L 108.0 120.0 A 2.0 2.0 0 0 1 110.0 122.0 L 110.0 148.0 A 2.0 2.0 0 0 1 108.0 150.0 L 62.0 150.0 A 2.0 2.0 0 0 1 60.0 148.0 Z" style="fill:#552048" />
<path d="M 100.0 122.0 A 2.0 2.0 0 0 1 102.0 120.0 L 108.0 120.0 A 2.0 2.0 0 0 1 110.0 122.0 L 110.0 128.0 A 2.0 2.0 0 0 1 108.0 130.0 L 102.0 130.0 A 2.0 2.0 0 0 1 100.0 128.0 Z" style="fill:#552048" />
<path d="M 150.0 122.0 A 2.0 2.0 0 0 1 152.0 120.0 L 158.0 120.0 A 2.0 2.0 0 0 1 160.0 122.0 L 160.0 128.0 A 2.0 2.0 0 0 1 158.0 130.0 L 152.0 130.0 A 2.0 2.0 0 0 1 150.0 128.0 Z" style="fill:#552048" />
<path d="M 330.0 122.0 A 2.0 2.0 0 0 1 332.0 120.0 L 358.0 120.0 A 2.0 2.0 0 0 1 360.0 122.0 L 360.0 128.0 A 2.0 2.0 0 0 1 358.0 130.0 L 332.0 130.0 A 2.0 2.0 0 0 1 330.0 128.0 Z" style="fill:#552048" />
<path d="M 380.0 122.0 A 2.0 2.0 0 0 1 382.0 120.0 L 408.0 120.0 A 2.0 2.0 0 0 1 410.0 122.0 L 410.0 128.0 A 2.0 2.0 0 0 1 408.0 130.0 L 382.0 130.0 A 2.0 2.0 0 0 1 380.0 128.0 Z" style="fill:#552048" />
<path d="M 160.0 132.0 A 2.0 2.0 0 0 1 162.0 130.0 L 168.0 130.0 A 2.0 2.0 0 0 1 170.0 132.0 L 170.0 138.0 A 2.0 2.0 0 0 1 168.0 140.0 L 162.0 140.0 A 2.0 2.0 0 0 1 160.0 138.0 Z" style="fill:#552048" />
<path d="M 310.0 132.0 A 2.0 2.0 0 0 1 312.0 130.0 L 358.0 130.0 A 2.0 2.0 0 0 1 360.0 132.0 L 360.0 168.0 A 2.0 2.0 0 0 1 358.0 170.0 L 312.0 170.0 A 2.0 2.0 0 0 1 310.0 168.0 Z" style="fill:#552048" />
<path d="M 370.0 132.0 A 2.0 2.0 0 0 1 372.0 130.0 L 378.0 130.0 A 2.0 2.0 0 0 1 380.0 132.0 L 380.0 138.0 A 2.0 2.0 0 0 1 378.0 140.0 L 372.0 140.0 A 2.0 2.0 0 0 1 370.0 138.0 Z" style="fill:#552048" />
<path d="M 40.0 142.0 A 2.0 2.0 0 0 1 42.0 140.0 L 48.0 140.0 A 2.0 2.0 0 0 1 50.0 142.0 L 50.0 148.0 A 2.0 2.0 0 0 1 48.0 150.0 L 42.0 150.0 A 2.0 2.0 0 0 1 40.0 148.0 Z" style="fill:#552048" />
<path d="M 130.0 142.0 A 2.0 2.0 0 0 1 132.0 140.0 L 138.0 140.0 A 2.0 2.0 0 0 1 140.0 142.0 L 140.0 148.0 A 2.0 2.0 0 0 1 138.0 150.0 L 132.0 150.0 A 2.0 2.0 0 0 1 130.0 148.0 Z" style="fill:#552048" />
<path d="M 150.0 142.0 A 2.0 2.0 0 0 1 152.0 140.0 L 158.0 140.0 A 2.0 2.0 0 0 1 160.0 142.0 L 160.0 148.0 A 2.0 2.0 0 0 1 158.0 150.0 L 152.0 150.0 A 2.0 2.0 0 0 1 150.0 148.0 Z" style="fill:#552048" />
<path d="M 250.0 142.0 A 2.0 2.0 0 0 1 252.0 140.0 L 258.0 140.0 A 2.0 2.0 0 0 1 260.0 142.0 L 260.0 148.0 A 2.0 2.0 0 0 1 258.0 150.0 L 252.0 150.0 A 2.0 2.0 0 0 1 250.0 148.0 Z" style="fill:#552048" />
<path d="M 270.0 142.0 A 2.0 2.0 0 0 1 272.0 140.0 L 278.0 140.0 A 2.0 2.0 0 0 1 280.0 142.0 L 280.0 148.0 A 2.0 2.0 0 0 1 278.0 150.0 L 272.0 150.0 A 2.0 2.0 0 0 1 270.0 148.0 Z" style="fill:#552048" />
<path d="M 360.0 142.0 A 2.0 2.0 0 0 1 362.0 140.0 L 408.0 140.0 A 2.0 2.0 0 0 1 410.0 142.0 L 410.0 168.0 A 2.0 2.0 0 0 1 408.0 170.0 L 362.0 170.0 A 2.0 2.0 0 0 1 360.0 168.0 Z" style="fill:#552048" />
<path d="M 50.0 152.0 A 2.0 2.0 0 0 1 52.0 150.0 L 58.0 150.0 A 2.0 2.0 0 0 1 60.0 152.0 L 60.0 158.0 A 2.0 2.0 0 0 1 58.0 160.0 L 52.0 160.0 A 2.0 2.0 0 0 1 50.0 158.0 Z" style="fill:#552048" />
<path d="M 80.0 152.0 A 2.0 2.0 0 0 1 82.0 150.0 L 88.0 150.0 A 2.0 2.0 0 0 1 90.0 152.0 L 90.0 158.0 A 2.0 2.0 0 0 1 88.0 160.0 L 82.0 160.0 A 2.0 2.0 0 0 1 80.0 158.0 Z" style="fill:#552048" />
<path d="M 90.0 152.0 A 2.0 2.0 0 0 1 92.0 150.0 L 128.0 150.0 A 2.0 2.0 0 0 1 130.0 152.0 L 130.0 208.0 A 2.0 2.0 0 0 1 128.0 210.0 L 92.0 210.0 A 2.0 2.0 0 0 1 90.0 208.0 Z" style="fill:#552048" />
<path d="M 220.0 152.0 A 2.0 2.0 0 0 1 222.0 150.0 L 228.0 150.0 A 2.0 2.0 0 0 1 230.0 152.0 L 230.0 158.0 A 2.0 2.0 0 0 1 228.0 160.0 L 222.0 160.0 A 2.0 2.0 0 0 1 220.0 158.0 Z" style="fill:#552048" />
<path d="M 240.0 152.0 A 2.0 2.0 0 0 1 242.0 150.0 L 248.0 150.0 A 2.0 2.0 0 0 1 250.0 152.0 L 250.0 158.0 A 2.0 2.0 0 0 1 248.0 160.0 L 242.0 160.0 A 2.0 2.0 0 0 1 240.0 158.0 Z" style="fill:#552048" />
<path d="M 60.0 162.0 A 2.0 2.0 0 0 1 62.0 160.0 L 88.0 160.0 A 2.0 2.0 0 0 1 90.0 162.0 L 90.0 178.0 A 2.0 2.0 0 0 1 88.0 180.0 L 62.0 180.0 A 2.0 2.0 0 0 1 60.0 178.0 Z" style="fill:#552048" />
<path d="M 160.0 162.0 A 2.0 2.0 0 0 1 162.0 160.0 L 178.0 160.0 A 2.0 2.0 0 0 1 180.0 162.0 L 180.0 188.0 A 2.0 2.0 0 0 1 178.0 190.0 L 162.0 190.0 A 2.0 2.0 0 0 1 160.0 188.0 Z" style="fill:#552048" />
<path d="M 220.0 162.0 A 2.0 2.0 0 0 1 222.0 160.0 L 278.0 160.0 A 2.0 2.0 0 0 1 280.0 162.0 L 280.0 218.0 A 2.0 2.0 0 0 1 278.0 220.0 L 222.0 220.0 A 2.0 2.0 0 0 1 220.0 218.0 Z" style="fill:#552048" />
<path d="M 260.0 162.0 A 2.0 2.0 0 0 1 262.0 160.0 L 278.0 160.0 A 2.0 2.0 0 0 1 280.0 162.0 L 280.0 178.0 A 2.0 2.0 0 0 1 278.0 180.0 L 262.0 180.0 A 2.0 2.0 0 0 1 260.0 178.0 Z" style="fill:#552048" />
<path d="M 300.0 162.0 A 2.0 2.0 0 0 1 302.0 160.0 L 308.0 160.0 A 2.0 2.0 0 0 1 310.0 162.0 L 310.0 168.0 A 2.0 2.0 0 0 1 308.0 170.0 L 302.0 170.0 A 2.0 2.0 0 0 1 300.0 168.0 Z" style="fill:#552048" />
<path d="M 190.0 172.0 A 2.0 2.0 0 0 1 192.0 170.0 L 218.0 170.0 A 2.0 2.0 0 0 1 220.0 172.0 L 220.0 208.0 A 2.0 2.0 0 0 1 218.0 210.0 L 192.0 210.0 A 2.0 2.0 0 0 1 190.0 208.0 Z" style="fill:#552048" />
<path d="M 320.0 172.0 A 2.0 2.0 0 0 1 322.0 170.0 L 328.0 170.0 A 2.0 2.0 0 0 1 330.0 172.0 L 330.0 178.0 A 2.0 2.0 0 0 1 328.0 180.0 L 322.0 180.0 A 2.0 2.0 0 0 1 320.0 178.0 Z" style="fill:#552048" />
<path d="M 40.0 182.0 A 2.0 2.0 0 0 1 42.0 180.0 L 58.0 180.0 A 2.0 2.0 0 0 1 60.0 182.0 L 60.0 218.0 A 2.0 2.0 0 0 1 58.0 220.0 L 42.0 220.0 A 2.0 2.0 0 0 1 40.0 218.0 Z" style="fill:#552048" />
<path d="M 280.0 182.0 A 2.0 2.0 0 0 1 282.0 180.0 L 288.0 180.0 A 2.0 2.0 0 0 1 290.0 182.0 L 290.0 188.0 A 2.0 2.0 0 0 1 288.0 190.0 L 282.0 190.0 A 2.0 2.0 0 0 1 280.0 188.0 Z" style="fill:#552048" />
<path d="M 300.0 182.0 A 2.0 2.0 0 0 1 302.0 180.0 L 318.0 180.0 A 2.0 2.0 0 0 1 320.0 182.0 L 320.0 198.0 A 2.0 2.0 0 0 1 318.0 200.0 L 302.0 200.0 A 2.0 2.0 0 0 1 300.0 198.0 Z" style="fill:#552048" />
<path d="M 330.0 182.0 A 2.0 2.0 0 0 1 332.0 180.0 L 378.0 180.0 A 2.0 2.0 0 0 1 380.0 182.0 L 380.0 208.0 A 2.0 2.0 0 0 1 378.0 210.0 L 332.0 210.0 A 2.0 2.0 0 0 1 330.0 208.0 Z" style="fill:#552048" />
<path d="M 360.0 182.0 A 2.0 2.0 0 0 1 362.0 180.0 L 408.0 180.0 A 2.0 2.0 0 0 1 410.0 182.0 L 410.0 238.0 A 2.0 2.0 0 0 1 408.0 240.0 L 362.0 240.0 A 2.0 2.0 0 0 1 360.0 238.0 Z" style="fill:#552048" />
<path d="M 60.0 192.0 A 2.0 2.0 0 0 1 62.0 190.0 L 88.0 190.0 A 2.0 2.0 0 0 1 90.0 192.0 L 90.0 198.0 A 2.0 2.0 0 0 1 88.0 200.0 L 62.0 200.0 A 2.0 2.0 0 0 1 60.0 198.0 Z" style="fill:#552048" />
<path d="M 130.0 192.0 A 2.0 2.0 0 0 1 132.0 190.0 L 138.0 190.0 A 2.0 2.0 0 0 1 140.0 192.0 L 140.0 208.0 A 2.0 2.0 0 0 1 138.0 210.0 L 132.0 210.0 A 2.0 2.0 0 0 1 130.0 208.0 Z" style="fill:#552048" />
<path d="M 150.0 192.0 A 2.0 2.0 0 0 1 152.0 190.0 L 168.0 190.0 A 2.0 2.0 0 0 1 170.0 192.0 L 170.0 208.0 A 2.0 2.0 0 0 1 168.0 210.0 L 152.0 210.0 A 2.0 2.0 0 0 1 150.0 208.0 Z" style="fill:#552048" />
<path d="M 270.0 192.0 A 2.0 2.0 0 0 1 272.0 190.0 L 278.0 190.0 A 2.0 2.0 0 0 1 280.0 192.0 L 280.0 198.0 A 2.0 2.0 0 0 1 278.0 200.0 L 272.0 200.0 A 2.0 2.0 0 0 1 270.0 198.0 Z" style="fill:#552048" />
<path d="M 150.0 202.0 A 2.0 2.0 0 0 1 152.0 200.0 L 228.0 200.0 A 2.0 2.0 0 0 1 230.0 202.0 L 230.0 278.0 A 2.0 2.0 0 0 1 228.0 280.0 L 152.0 280.0 A 2.0 2.0 0 0 1 150.0 278.0 Z" style="fill:#552048" />
<path d="M 290.0 202.0 A 2.0 2.0 0 0 1 292.0 200.0 L 308.0 200.0 A 2.0 2.0 0 0 1 310.0 202.0 L 310.0 208.0 A 2.0 2.0 0 0 1 308.0 210.0 L 292.0 210.0 A 2.0 2.0 0 0 1 290.0 208.0 Z" style="fill:#552048" />
<path d="M 60.0 212.0 A 2.0 2.0 0 0 1 62.0 210.0 L 78.0 210.0 A 2.0 2.0 0 0 1 80.0 212.0 L 80.0 238.0 A 2.0 2.0 0 0 1 78.0 240.0 L 62.0 240.0 A 2.0 2.0 0 0 1 60.0 238.0 Z" style="fill:#552048" />
<path d="M 120.0 212.0 A 2.0 2.0 0 0 1 122.0 210.0 L 128.0 210.0 A 2.0 2.0 0 0 1 130.0 212.0 L 130.0 218.0 A 2.0 2.0 0 0 1 128.0 220.0 L 122.0 220.0 A 2.0 2.0 0 0 1 120.0 218.0 Z" style="fill:#552048" />
<path d="M 140.0 212.0 A 2.0 2.0 0 0 1 142.0 210.0 L 148.0 210.0 A 2.0 2.0 0 0 1 150.0 212.0 L 150.0 218.0 A 2.0 2.0 0 0 1 148.0 220.0 L 142.0 220.0 A 2.0 2.0 0 0 1 140.0 218.0 Z" style="fill:#552048" />
<path d="M 90.0 222.0 A 2.0 2.0 0 0 1 92.0 220.0 L 108.0 220.0 A 2.0 2.0 0 0 1 110.0 222.0 L 110.0 258.0 A 2.0 2.0 0 0 1 108.0 260.0 L 92.0 260.0 A 2.0 2.0 0 0 1 90.0 258.0 Z" style="fill:#552048" />
<path d="M 230.0 222.0 A 2.0 2.0 0 0 1 232.0 220.0 L 258.0 220.0 A 2.0 2.0 0 0 1 260.0 222.0 L 260.0 248.0 A 2.0 2.0 0 0 1 258.0 250.0 L 232.0 250.0 A 2.0 2.0 0 0 1 230.0 248.0 Z" style="fill:#552048" />
<path d="M 280.0 222.0 A 2.0 2.0 0 0 1 282.0 220.0 L 288.0 220.0 A 2.0 2.0 0 0 1 290.0 222.0 L 290.0 238.0 A 2.0 2.0 0 0 1 288.0 240.0 L 282.0 240.0 A 2.0 2.0 0 0 1 280.0 238.0 Z" style="fill:#552048" />
<path d="M 260.0 222.0 A 2.0 2.0 0 0 1 262.0 220.0 L 398.0 220.0 A 2.0 2.0 0 0 1 400.0 222.0 L 400.0 408.0 A 2.0 2.0 0 0 1 398.0 410.0 L 262.0 410.0 A 2.0 2.0 0 0 1 260.0 408.0 Z" style="fill:#552048" />
<path d="M 50.0 232.0 A 2.0 2.0 0 0 1 52.0 230.0 L 58.0 230.0 A 2.0 2.0 0 0 1 60.0 232.0 L 60.0 238.0 A 2.0 2.0 0 0 1 58.0 240.0 L 52.0 240.0 A 2.0 2.0 0 0 1 50.0 238.0 Z" style="fill:#552048" />
<path d="M 110.0 232.0 A 2.0 2.0 0 0 1 112.0 230.0 L 118.0 230.0 A 2.0 2.0 0 0 1 120.0 232.0 L 120.0 238.0 A 2.0 2.0 0 0 1 118.0 240.0 L 112.0 240.0 A 2.0 2.0 0 0 1 110.0 238.0 Z" style="fill:#552048" />
<path d="M 40.0 242.0 A 2.0 2.0 0 0 1 42.0 240.0 L 48.0 240.0 A 2.0 2.0 0 0 1 50.0 242.0 L 50.0 248.0 A 2.0 2.0 0 0 1 48.0 250.0 L 42.0 250.0 A 2.0 2.0 0 0 1 40.0 248.0 Z" style="fill:#552048" />
<path d="M 50.0 242.0 A 2.0 2.0 0 0 1 52.0 240.0 L 68.0 240.0 A 2.0 2.0 0 0 1 70.0 242.0 L 70.0 268.0 A 2.0 2.0 0 0 1 68.0 270.0 L 52.0 270.0 A 2.0 2.0 0 0 1 50.0 268.0 Z" style="fill:#552048" />
<path d="M 130.0 242.0 A 2.0 2.0 0 0 1 132.0 240.0 L 148.0 240.0 A 2.0 2.0 0 0 1 150.0 242.0 L 150.0 258.0 A 2.0 2.0 0 0 1 148.0 260.0 L 132.0 260.0 A 2.0 2.0 0 0 1 130.0 258.0 Z" style="fill:#552048" />
<path d="M 260.0 242.0 A 2.0 2.0 0 0 1 262.0 240.0 L 278.0 240.0 A 2.0 2.0 0 0 1 280.0 242.0 L 280.0 258.0 A 2.0 2.0 0 0 1 278.0 260.0 L 262.0 260.0 A 2.0 2.0 0 0 1 260.0 258.0 Z" style="fill:#552048" />
<path d="M 110.0 252.0 A 2.0 2.0 0 0 1 112.0 250.0 L 118.0 250.0 A 2.0 2.0 0 0 1 120.0 252.0 L 120.0 258.0 A 2.0 2.0 0 0 1 118.0 260.0 L 112.0 260.0 A 2.0 2.0 0 0 1 110.0 258.0 Z" style="fill:#552048" />
<path d="M 150.0 252.0 A 2.0 2.0 0 0 1 152.0 250.0 L 198.0 250.0 A 2.0 2.0 0 0 1 200.0 252.0 L 200.0 278.0 A 2.0 2.0 0 0 1 198.0 280.0 L 152.0 280.0 A 2.0 2.0 0 0 1 150.0 278.0 Z" style="fill:#552048" />
<path d="M 250.0 252.0 A 2.0 2.0 0 0 1 252.0 250.0 L 258.0 250.0 A 2.0 2.0 0 0 1 260.0 252.0 L 260.0 258.0 A 2.0 2.0 0 0 1 258.0 260.0 L 252.0 260.0 A 2.0 2.0 0 0 1 250.0 258.0 Z" style="fill:#552048" />
<path d="M 390.0 252.0 A 2.0 2.0 0 0 1 392.0 250.0 L 408.0 250.0 A 2.0 2.0 0 0 1 410.0 252.0 L 410.0 288.0 A 2.0 2.0 0 0 1 408.0 290.0 L 392.0 290.0 A 2.0 2.0 0 0 1 390.0 288.0 Z" style="fill:#552048" />
<path d="M 70.0 262.0 A 2.0 2.0 0 0 1 72.0 260.0 L 88.0 260.0 A 2.0 2.0 0 0 1 90.0 262.0 L 90.0 278.0 A 2.0 2.0 0 0 1 88.0 280.0 L 72.0 280.0 A 2.0 2.0 0 0 1 70.0 278.0 Z" style="fill:#552048" />
<path d="M 100.0 262.0 A 2.0 2.0 0 0 1 102.0 260.0 L 108.0 260.0 A 2.0 2.0 0 0 1 110.0 262.0 L 110.0 268.0 A 2.0 2.0 0 0 1 108.0 270.0 L 102.0 270.0 A 2.0 2.0 0 0 1 100.0 268.0 Z" style="fill:#552048" />
<path d="M 240.0 262.0 A 2.0 2.0 0 0 1 242.0 260.0 L 248.0 260.0 A 2.0 2.0 0 0 1 250.0 262.0 L 250.0 268.0 A 2.0 2.0 0 0 1 248.0 270.0 L 242.0 270.0 A 2.0 2.0 0 0 1 240.0 268.0 Z" style="fill:#552048" />
<path d="M 250.0 272.0 A 2.0 2.0 0 0 1 252.0 270.0 L 268.0 270.0 A 2.0 2.0 0 0 1 270.0 272.0 L 270.0 288.0 A 2.0 2.0 0 0 1 268.0 290.0 L 252.0 290.0 A 2.0 2.0 0 0 1 250.0 288.0 Z" style="fill:#552048" />
<path d="M 60.0 282.0 A 2.0 2.0 0 0 1 62.0 280.0 L 108.0 280.0 A 2.0 2.0 0 0 1 110.0 282.0 L 110.0 328.0 A 2.0 2.0 0 0 1 108.0 330.0 L 62.0 330.0 A 2.0 2.0 0 0 1 60.0 328.0 Z" style="fill:#552048" />
<path d="M 100.0 282.0 A 2.0 2.0 0 0 1 102.0 280.0 L 108.0 280.0 A 2.0 2.0 0 0 1 110.0 282.0 L 110.0 288.0 A 2.0 2.0 0 0 1 108.0 290.0 L 102.0 290.0 A 2.0 2.0 0 0 1 100.0 288.0 Z" style="fill:#552048" />
<path d="M 110.0 282.0 A 2.0 2.0 0 0 1 112.0 280.0 L 168.0 280.0 A 2.0 2.0 0 0 1 170.0 282.0 L 170.0 298.0 A 2.0 2.0 0 0 1 168.0 300.0 L 112.0 300.0 A 2.0 2.0 0 0 1 110.0 298.0 Z" style="fill:#552048" />
<path d="M 360.0 282.0 A 2.0 2.0 0 0 1 362.0 280.0 L 408.0 280.0 A 2.0 2.0 0 0 1 410.0 282.0 L 410.0 318.0 A 2.0 2.0 0 0 1 408.0 320.0 L 362.0 320.0 A 2.0 2.0 0 0 1 360.0 318.0 Z" style="fill:#552048" />
<path d="M 40.0 292.0 A 2.0 2.0 0 0 1 42.0 290.0 L 48.0 290.0 A 2.0 2.0 0 0 1 50.0 292.0 L 50.0 328.0 A 2.0 2.0 0 0 1 48.0 330.0 L 42.0 330.0 A 2.0 2.0 0 0 1 40.0 328.0 Z" style="fill:#552048" />
<path d="M 130.0 292.0 A 2.0 2.0 0 0 1 132.0 290.0 L 258.0 290.0 A 2.0 2.0 0 0 1 260.0 292.0 L 260.0 368.0 A 2.0 2.0 0 0 1 258.0 370.0 L 132.0 370.0 A 2.0 2.0 0 0 1 130.0 368.0 Z" style="fill:#552048" />
<path d="M 350.0 292.0 A 2.0 2.0 0 0 1 352.0 290.0 L 358.0 290.0 A 2.0 2.0 0 0 1 360.0 292.0 L 360.0 298.0 A 2.0 2.0 0 0 1 358.0 300.0 L 352.0 300.0 A 2.0 2.0 0 0 1 350.0 298.0 Z" style="fill:#552048" />
<path d="M 290.0 302.0 A 2.0 2.0 0 0 1 292.0 300.0 L 298.0 300.0 A 2.0 2.0 0 0 1 300.0 302.0 L 300.0 308.0 A 2.0 2.0 0 0 1 298.0 310.0 L 292.0 310.0 A 2.0 2.0 0 0 1 290.0 308.0 Z" style="fill:#552048" />
<path d="M 100.0 312.0 A 2.0 2.0 0 0 1 102.0 310.0 L 118.0 310.0 A 2.0 2.0 0 0 1 120.0 312.0 L 120.0 328.0 A 2.0 2.0 0 0 1 118.0 330.0 L 102.0 330.0 A 2.0 2.0 0 0 1 100.0 328.0 Z" style="fill:#552048" />
<path d="M 400.0 322.0 A 2.0 2.0 0 0 1 402.0 320.0 L 408.0 320.0 A 2.0 2.0 0 0 1 410.0 322.0 L 410.0 328.0 A 2.0 2.0 0 0 1 408.0 330.0 L 402.0 330.0 A 2.0 2.0 0 0 1 400.0 328.0 Z" style="fill:#552048" />
<path d="M 120.0 332.0 A 2.0 2.0 0 0 1 122.0 330.0 L 128.0 330.0 A 2.0 2.0 0 0 1 130.0 332.0 L 130.0 338.0 A 2.0 2.0 0 0 1 128.0 340.0 L 122.0 340.0 A 2.0 2.0 0 0 1 120.0 338.0 Z" style="fill:#552048" />
<path d="M 140.0 342.0 A 2.0 2.0 0 0 1 142.0 340.0 L 148.0 340.0 A 2.0 2.0 0 0 1 150.0 342.0 L 150.0 348.0 A 2.0 2.0 0 0 1 148.0 350.0 L 142.0 350.0 A 2.0 2.0 0 0 1 140.0 348.0 Z" style="fill:#552048" />
<path d="M 340.0 342.0 A 2.0 2.0 0 0 1 342.0 340.0 L 348.0 340.0 A 2.0 2.0 0 0 1 350.0 342.0 L 350.0 348.0 A 2.0 2.0 0 0 1 348.0 350.0 L 342.0 350.0 A 2.0 2.0 0 0 1 340.0 348.0 Z" style="fill:#552048" />
<path d="M 380.0 342.0 A 2.0 2.0 0 0 1 382.0 340.0 L 408.0 340.0 A 2.0 2.0 0 0 1 410.0 342.0 L 410.0 368.0 A 2.0 2.0 0 0 1 408.0 370.0 L 382.0 370.0 A 2.0 2.0 0 0 1 380.0 368.0 Z" style="fill:#552048" />
<path d="M 150.0 352.0 A 2.0 2.0 0 0 1 152.0 350.0 L 188.0 350.0 A 2.0 2.0 0 0 1 190.0 352.0 L 190.0 378.0 A 2.0 2.0 0 0 1 188.0 380.0 L 152.0 380.0 A 2.0 2.0 0 0 1 150.0 378.0 Z" style="fill:#552048" />
<path d="M 120.0 362.0 A 2.0 2.0 0 0 1 122.0 360.0 L 148.0 360.0 A 2.0 2.0 0 0 1 150.0 362.0 L 150.0 388.0 A 2.0 2.0 0 0 1 148.0 390.0 L 122.0 390.0 A 2.0 2.0 0 0 1 120.0 388.0 Z" style="fill:#552048" />
<path d="M 210.0 362.0 A 2.0 2.0 0 0 1 212.0 360.0 L 258.0 360.0 A 2.0 2.0 0 0 1 260.0 362.0 L 260.0 408.0 A 2.0 2.0 0 0 1 258.0 410.0 L 212.0 410.0 A 2.0 2.0 0 0 1 210.0 408.0 Z" style="fill:#552048" />
<path d="M 270.0 372.0 A 2.0 2.0 0 0 1 272.0 370.0 L 278.0 370.0 A 2.0 2.0 0 0 1 280.0 372.0 L 280.0 378.0 A 2.0 2.0 0 0 1 278.0 380.0 L 272.0 380.0 A 2.0 2.0 0 0 1 270.0 378.0 Z" style="fill:#552048" />
<path d="M 150.0 382.0 A 2.0 2.0 0 0 1 152.0 380.0 L 178.0 380.0 A 2.0 2.0 0 0 1 180.0 382.0 L 180.0 408.0 A 2.0 2.0 0 0 1 178.0 410.0 L 152.0 410.0 A 2.0 2.0 0 0 1 150.0 408.0 Z" style="fill:#552048" />
<path d="M 190.0 382.0 A 2.0 2.0 0 0 1 192.0 380.0 L 208.0 380.0 A 2.0 2.0 0 0 1 210.0 382.0 L 210.0 398.0 A 2.0 2.0 0 0 1 208.0 400.0 L 192.0 400.0 A 2.0 2.0 0 0 1 190.0 398.0 Z" style="fill:#552048" />
<path d="M 390.0 382.0 A 2.0 2.0 0 0 1 392.0 380.0 L 408.0 380.0 A 2.0 2.0 0 0 1 410.0 382.0 L 410.0 408.0 A 2.0 2.0 0 0 1 408.0 410.0 L 392.0 410.0 A 2.0 2.0 0 0 1 390.0 408.0 Z" style="fill:#552048" />
<path d="M 260.0 392.0 A 2.0 2.0 0 0 1 262.0 390.0 L 278.0 390.0 A 2.0 2.0 0 0 1 280.0 392.0 L 280.0 408.0 A 2.0 2.0 0 0 1 278.0 410.0 L 262.0 410.0 A 2.0 2.0 0 0 1 260.0 408.0 Z" style="fill:#552048" />
<path d="M 300.0 392.0 A 2.0 2.0 0 0 1 302.0 390.0 L 328.0 390.0 A 2.0 2.0 0 0 1 330.0 392.0 L 330.0 408.0 A 2.0 2.0 0 0 1 328.0 410.0 L 302.0 410.0 A 2.0 2.0 0 0 1 300.0 408.0 Z" style="fill:#552048" />
<path d="M 130.0 402.0 A 2.0 2.0 0 0 1 132.0 400.0 L 138.0 400.0 A 2.0 2.0 0 0 1 140.0 402.0 L 140.0 408.0 A 2.0 2.0 0 0 1 138.0 410.0 L 132.0 410.0 A 2.0 2.0 0 0 1 130.0 408.0 Z" style="fill:#552048" />
<rect x="40" y="40" width="70" height="10" style="fill:#552048" />
<rect x="40" y="100" width="70" height="10" style="fill:#552048" />
<rect x="40" y="40" width="10" height="70" style="fill:#552048" />
<rect x="100" y="40" width="10" height="70" style="fill:#552048" />
<rect x="60" y="60" width="30" height="30" style="fill:#552048" />
<rect x="340" y="40" width="70" height="10" style="fill:#552048" />
<rect x="340" y="100" width="70" height="10" style="fill:#552048" />
<rect x="340" y="40" width="10" height="70" style="fill:#552048" />
<rect x="400" y="40" width="10" height="70" style="fill:#552048" />
<rect x="360" y="60" width="30" height="30" style="fill:#552048" />
<rect x="40" y="340" width="70" height="10" style="fill:#552048" />
<rect x="40" y="400" width="70" height="10" style="fill:#552048" />
<rect x="40" y="340" width="10" height="70" style="fill:#552048" />
<rect x="100" y="340" width="10" height="70" style="fill:#552048" />
<rect x="60" y="360" width="30" height="30" style="fill:#552048" />
</svg>
