<?xml version="1.0"?>
<!-- Generated by SVGo -->
<svg width="330" height="330"
     xmlns="http://www.w3.org/2000/svg"
     xmlns:xlink="http://www.w3.org/1999/xlink">
<rect x="0" y="0" width="330" height="330" style="fill:#f8f2ec" />
<rect x="130" y="40" width="20" height="10" rx="2" ry="2" style="fill:#552048" />
<rect x="160" y="40" width="40" height="10" rx="2" ry="2" style="fill:#552048" />
<rect x="140" y="50" width="10" height="10" rx="2" ry="2" style="fill:#552048" />
<rect x="160" y="50" width="10" height="10" rx="2" ry="2" style="fill:#552048" />
<rect x="180" y="50" width="10" height="10" rx="2" ry="2" style="fill:#552048" />
<rect x="200" y="50" width="10" height="10" rx="2" ry="2" style="fill:#552048" />
<rect x="120" y="60" width="10" height="10" rx="2" ry="2" style="fill:#552048" />
<rect x="160" y="60" width="10" height="10" rx="2" ry="2" style="fill:#552048" />
<rect x="190" y="60" width="10" height="10" rx="2" ry="2" style="fill:#552048" />
<rect x="120" y="70" width="20" height="10" rx="2" ry="2" style="fill:#552048" />
<rect x="150" y="70" width="10" height="10" rx="2" ry="2" style="fill:#552048" />
<rect x="180" y="70" width="10" height="10" rx="2" ry="2" style="fill:#552048" />
<rect x="160" y="80" width="10" height="10" rx="2" ry="2" style="fill:#552048" />
<rect x="190" y="80" width="10" height="10" rx="2" ry="2" style="fill:#552048" />
<rect x="140" y="90" width="40" height="10" rx="2" ry="2" style="fill:#552048" />
<rect x="200" y="90" width="10" height="10" rx="2" ry="2" style="fill:#552048" />
<rect x="120" y="100" width="10" height="10" rx="2" ry="2" style="fill:#552048" />
<rect x="140" y="100" width="10" height="10" rx="2" ry="2" style="fill:#552048" />
<rect x="160" y="100" width="10" height="10" rx="2" ry="2" style="fill:#552048" />
<rect x="180" y="100" width="10" height="10" rx="2" ry="2" style="fill:#552048" />
<rect x="200" y="100" width="10" height="10" rx="2" ry="2" style="fill:#552048" />
<rect x="130" y="110" width="30" height="10" rx="2" ry="2" style="fill:#552048" />
<rect x="180" y="110" width="30" height="10" rx="2" ry="2" style="fill:#552048" />
<rect x="70" y="120" width="20" height="10" rx="2" ry="2" style="fill:#552048" />
<rect x="100" y="120" width="20" height="10" rx="2" ry="2" style="fill:#552048" />
<rect x="140" y="120" width="20" height="10" rx="2" ry="2" style="fill:#552048" />
<rect x="180" y="120" width="10" height="10" rx="2" ry="2" style="fill:#552048" />
<rect x="200" y="120" width="10" height="10" rx="2" ry="2" style="fill:#552048" />
<rect x="250" y="120" width="20" height="10" rx="2" ry="2" style="fill:#552048" />
<rect x="40" y="130" width="30" height="10" rx="2" ry="2" style="fill:#552048" />
<rect x="80" y="130" width="10" height="10" rx="2" ry="2" style="fill:#552048" />
<rect x="110" y="130" width="10" height="10" rx="2" ry="2" style="fill:#552048" />
<rect x="160" y="130" width="10" height="10" rx="2" ry="2" style="fill:#552048" />
<rect x="200" y="130" width="10" height="10" rx="2" ry="2" style="fill:#552048" />
<rect x="220" y="130" width="10" height="10" rx="2" ry="2" style="fill:#552048" />
<rect x="240" y="130" width="10" height="10" rx="2" ry="2" style="fill:#552048" />
<rect x="260" y="130" width="10" height="10" rx="2" ry="2" style="fill:#552048" />
<rect x="50" y="140" width="10" height="10" rx="2" ry="2" style="fill:#552048" />
<rect x="90" y="140" width="20" height="10" rx="2" ry="2" style="fill:#552048" />
<rect x="120" y="140" width="10" height="10" rx="2" ry="2" style="fill:#552048" />
<rect x="160" y="140" width="10" height="10" rx="2" ry="2" style="fill:#552048" />
<rect x="190" y="140" width="10" height="10" rx="2" ry="2" style="fill:#552048" />
<rect x="260" y="140" width="10" height="10" rx="2" ry="2" style="fill:#552048" />
<rect x="280" y="140" width="10" height="10" rx="2" ry="2" style="fill:#552048" />
<rect x="40" y="150" width="20" height="10" rx="2" ry="2" style="fill:#552048" />
<rect x="70" y="150" width="10" height="10" rx="2" ry="2" style="fill:#552048" />
<rect x="120" y="150" width="20" height="10" rx="2" ry="2" style="fill:#552048" />
<rect x="150" y="150" width="20" height="10" rx="2" ry="2" style="fill:#552048" />
<rect x="180" y="150" width="10" height="10" rx="2" ry="2" style="fill:#552048" />
<rect x="200" y="150" width="20" height="10" rx="2" ry="2" style="fill:#552048" />
<rect x="230" y="150" width="10" height="10" rx="2" ry="2" style="fill:#552048" />
<rect x="250" y="150" width="20" height="10" rx="2" ry="2" style="fill:#552048" />
<rect x="280" y="150" width="10" height="10" rx="2" ry="2" style="fill:#552048" />
<rect x="60" y="160" width="10" height="10" rx="2" ry="2" style="fill:#552048" />
<rect x="90" y="160" width="50" height="10" rx="2" ry="2" style="fill:#552048" />
<rect x="160" y="160" width="10" height="10" rx="2" ry="2" style="fill:#552048" />
<rect x="180" y="160" width="30" height="10" rx="2" ry="2" style="fill:#552048" />
<rect x="250" y="160" width="10" height="10" rx="2" ry="2" style="fill:#552048" />
<rect x="270" y="160" width="10" height="10" rx="2" ry="2" style="fill:#552048" />
<rect x="40" y="170" width="10" height="10" rx="2" ry="2" style="fill:#552048" />
<rect x="70" y="170" width="10" height="10" rx="2" ry="2" style="fill:#552048" />
<rect x="110" y="170" width="10" height="10" rx="2" ry="2" style="fill:#552048" />
<rect x="130" y="170" width="10" height="10" rx="2" ry="2" style="fill:#552048" />
<rect x="150" y="170" width="10" height="10" rx="2" ry="2" style="fill:#552048" />
<rect x="180" y="170" width="10" height="10" rx="2" ry="2" style="fill:#552048" />
<rect x="200" y="170" width="10" height="10" rx="2" ry="2" style="fill:#552048" />
<rect x="220" y="170" width="10" height="10" rx="2" ry="2" style="fill:#552048" />
<rect x="240" y="170" width="10" height="10" rx="2" ry="2" style="fill:#552048" />
<rect x="260" y="170" width="10" height="10" rx="2" ry="2" style="fill:#552048" />
<rect x="40" y="180" width="20" height="10" rx="2" ry="2" style="fill:#552048" />
<rect x="70" y="180" width="10" height="10" rx="2" ry="2" style="fill:#552048" />
<rect x="90" y="180" width="20" height="10" rx="2" ry="2" style="fill:#552048" />
<rect x="130" y="180" width="40" height="10" rx="2" ry="2" style="fill:#552048" />
<rect x="180" y="180" width="10" height="10" rx="2" ry="2" style="fill:#552048" />
<rect x="200" y="180" width="10" height="10" rx="2" ry="2" style="fill:#552048" />
<rect x="220" y="180" width="10" height="10" rx="2" ry="2" style="fill:#552048" />
<rect x="270" y="180" width="20" height="10" rx="2" ry="2" style="fill:#552048" />
<rect x="40" y="190" width="10" height="10" rx="2" ry="2" style="fill:#552048" />
<rect x="60" y="190" width="20" height="10" rx="2" ry="2" style="fill:#552048" />
<rect x="140" y="190" width="20" height="10" rx="2" ry="2" style="fill:#552048" />
<rect x="180" y="190" width="20" height="10" rx="2" ry="2" style="fill:#552048" />
<rect x="210" y="190" width="60" height="10" rx="2" ry="2" style="fill:#552048" />
<rect x="40" y="200" width="10" height="10" rx="2" ry="2" style="fill:#552048" />
<rect x="60" y="200" width="10" height="10" rx="2" ry="2" style="fill:#552048" />
<rect x="100" y="200" width="40" height="10" rx="2" ry="2" style="fill:#552048" />
<rect x="160" y="200" width="20" height="10" rx="2" ry="2" style="fill:#552048" />
<rect x="200" y="200" width="70" height="10" rx="2" ry="2" style="fill:#552048" />
<rect x="120" y="210" width="10" height="10" rx="2" ry="2" style="fill:#552048" />
<rect x="160" y="210" width="20" height="10" rx="2" ry="2" style="fill:#552048" />
<rect x="190" y="210" width="20" height="10" rx="2" ry="2" style="fill:#552048" />
<rect x="240" y="210" width="20" height="10" rx="2" ry="2" style="fill:#552048" />
<rect x="270" y="210" width="10" height="10" rx="2" ry="2" style="fill:#552048" />
<rect x="120" y="220" width="20" height="10" rx="2" ry="2" style="fill:#552048" />
<rect x="150" y="220" width="20" height="10" rx="2" ry="2" style="fill:#552048" />
<rect x="190" y="220" width="20" height="10" rx="2" ry="2" style="fill:#552048" />
<rect x="220" y="220" width="10" height="10" rx="2" ry="2" style="fill:#552048" />
<rect x="240" y="220" width="20" height="10" rx="2" ry="2" style="fill:#552048" />
<rect x="280" y="220" width="10" height="10" rx="2" ry="2" style="fill:#552048" />
<rect x="130" y="230" width="20" height="10" rx="2" ry="2" style="fill:#552048" />
<rect x="200" y="230" width="10" height="10" rx="2" ry="2" style="fill:#552048" />
<rect x="240" y="230" width="10" height="10" rx="2" ry="2" style="fill:#552048" />
<rect x="270" y="230" width="20" height="10" rx="2" ry="2" style="fill:#552048" />
<rect x="120" y="240" width="40" height="10" rx="2" ry="2" style="fill:#552048" />
<rect x="180" y="240" width="80" height="10" rx="2" ry="2" style="fill:#552048" />
<rect x="120" y="250" width="20" height="10" rx="2" ry="2" style="fill:#552048" />
<rect x="180" y="250" width="30" height="10" rx="2" ry="2" style="fill:#552048" />
<rect x="220" y="250" width="10" height="10" rx="2" ry="2" style="fill:#552048" />
<rect x="250" y="250" width="10" height="10" rx="2" ry="2" style="fill:#552048" />
<rect x="280" y="250" width="10" height="10" rx="2" ry="2" style="fill:#552048" />
<rect x="130" y="260" width="10" height="10" rx="2" ry="2" style="fill:#552048" />
<rect x="150" y="260" width="10" height="10" rx="2" ry="2" style="fill:#552048" />
<rect x="180" y="260" width="20" height="10" rx="2" ry="2" style="fill:#552048" />
<rect x="220" y="260" width="70" height="10" rx="2" ry="2" style="fill:#552048" />
<rect x="160" y="270" width="10" height="10" rx="2" ry="2" style="fill:#552048" />
<rect x="180" y="270" width="10" height="10" rx="2" ry="2" style="fill:#552048" />
<rect x="200" y="270" width="10" height="10" rx="2" ry="2" style="fill:#552048" />
<rect x="250" y="270" width="40" height="10" rx="2" ry="2" style="fill:#552048" />
<rect x="130" y="280" width="20" height="10" rx="2" ry="2" style="fill:#552048" />
<rect x="160" y="280" width="10" height="10" rx="2" ry="2" style="fill:#552048" />
<rect x="180" y="280" width="10" height="10" rx="2" ry="2" style="fill:#552048" />
<rect x="210" y="280" width="10" height="10" rx="2" ry="2" style="fill:#552048" />
<rect x="240" y="280" width="20" height="10" rx="2" ry="2" style="fill:#552048" />
<rect x="280" y="280" width="10" height="10" rx="2" ry="2" style="fill:#552048" />
<rect x="40" y="40" width="70" height="70" rx="5" ry="5" style="fill:#552048" />
<rect x="50" y="50" width="50" height="50" rx="5" ry="5" style="fill:#f8f2ec" />
<circle cx="75" cy="75" r="15" style="fill:#552048" />
<rect x="220" y="40" width="70" height="70" rx="5" ry="5" style="fill:#552048" />
<rect x="230" y="50" width="50" height="50" rx="5" ry="5" style="fill:#f8f2ec" />
<circle cx="255" cy="75" r="15" style="fill:#552048" />
<rect x="40" y="220" width="70" height="70" rx="5" ry="5" style="fill:#552048" />
<rect x="50" y="230" width="50" height="50" rx="5" ry="5" style="fill:#f8f2ec" />
<circle cx="75" cy="255" r="15" style="fill:#552048" />
</svg>
