<?xml version="1.0"?>
<!-- Generated by SVGo -->
<svg width="330" height="330"
     xmlns="http://www.w3.org/2000/svg"
     xmlns:xlink="http://www.w3.org/1999/xlink">
<rect x="0" y="0" width="330" height="330" style="fill:#f8f2ec" />
<circle cx="125" cy="45" r="5" style="fill:#552048" />
<circle cx="165" cy="45" r="5" style="fill:#552048" />
<circle cx="175" cy="45" r="5" style="fill:#552048" />
<circle cx="185" cy="45" r="5" style="fill:#552048" />
<circle cx="125" cy="55" r="5" style="fill:#552048" />
<circle cx="135" cy="55" r="5" style="fill:#552048" />
<circle cx="145" cy="55" r="5" style="fill:#552048" />
<circle cx="195" cy="55" r="5" style="fill:#552048" />
<circle cx="205" cy="55" r="5" style="fill:#552048" />
<circle cx="125" cy="65" r="5" style="fill:#552048" />
<circle cx="145" cy="65" r="5" style="fill:#552048" />
<circle cx="155" cy="65" r="5" style="fill:#552048" />
<circle cx="165" cy="65" r="5" style="fill:#552048" />
<circle cx="175" cy="65" r="5" style="fill:#552048" />
<circle cx="195" cy="65" r="5" style="fill:#552048" />
<circle cx="155" cy="75" r="5" style="fill:#552048" />
<circle cx="185" cy="75" r="5" style="fill:#552048" />
<circle cx="205" cy="75" r="5" style="fill:#552048" />
<circle cx="135" cy="85" r="5" style="fill:#552048" />
<circle cx="175" cy="85" r="5" style="fill:#552048" />
<circle cx="185" cy="85" r="5" style="fill:#552048" />
<circle cx="125" cy="95" r="5" style="fill:#552048" />
<circle cx="145" cy="95" r="5" style="fill:#552048" />
<circle cx="175" cy="95" r="5" style="fill:#552048" />
<circle cx="205" cy="95" r="5" style="fill:#552048" />
<circle cx="125" cy="105" r="5" style="fill:#552048" />
<circle cx="145" cy="105" r="5" style="fill:#552048" />
<circle cx="165" cy="105" r="5" style="fill:#552048" />
<circle cx="185" cy="105" r="5" style="fill:#552048" />
<circle cx="205" cy="105" r="5" style="fill:#552048" />
<circle cx="125" cy="115" r="5" style="fill:#552048" />
<circle cx="145" cy="115" r="5" style="fill:#552048" />
<circle cx="175" cy="115" r="5" style="fill:#552048" />
<circle cx="205" cy="115" r="5" style="fill:#552048" />
<circle cx="65" cy="125" r="5" style="fill:#552048" />
<circle cx="75" cy="125" r="5" style="fill:#552048" />
<circle cx="85" cy="125" r="5" style="fill:#552048" />
<circle cx="105" cy="125" r="5" style="fill:#552048" />
<circle cx="125" cy="125" r="5" style="fill:#552048" />
<circle cx="135" cy="125" r="5" style="fill:#552048" />
<circle cx="145" cy="125" r="5" style="fill:#552048" />
<circle cx="155" cy="125" r="5" style="fill:#552048" />
<circle cx="165" cy="125" r="5" style="fill:#552048" />
<circle cx="175" cy="125" r="5" style="fill:#552048" />
<circle cx="185" cy="125" r="5" style="fill:#552048" />
<circle cx="205" cy="125" r="5" style="fill:#552048" />
<circle cx="215" cy="125" r="5" style="fill:#552048" />
<circle cx="225" cy="125" r="5" style="fill:#552048" />
<circle cx="235" cy="125" r="5" style="fill:#552048" />
<circle cx="265" cy="125" r="5" style="fill:#552048" />
<circle cx="275" cy="125" r="5" style="fill:#552048" />
<circle cx="285" cy="125" r="5" style="fill:#552048" />
<circle cx="45" cy="135" r="5" style="fill:#552048" />
<circle cx="55" cy="135" r="5" style="fill:#552048" />
<circle cx="75" cy="135" r="5" style="fill:#552048" />
<circle cx="85" cy="135" r="5" style="fill:#552048" />
<circle cx="95" cy="135" r="5" style="fill:#552048" />
<circle cx="115" cy="135" r="5" style="fill:#552048" />
<circle cx="135" cy="135" r="5" style="fill:#552048" />
<circle cx="155" cy="135" r="5" style="fill:#552048" />
<circle cx="165" cy="135" r="5" style="fill:#552048" />
<circle cx="195" cy="135" r="5" style="fill:#552048" />
<circle cx="205" cy="135" r="5" style="fill:#552048" />
<circle cx="235" cy="135" r="5" style="fill:#552048" />
<circle cx="255" cy="135" r="5" style="fill:#552048" />
<circle cx="275" cy="135" r="5" style="fill:#552048" />
<circle cx="45" cy="145" r="5" style="fill:#552048" />
<circle cx="55" cy="145" r="5" style="fill:#552048" />
<circle cx="75" cy="145" r="5" style="fill:#552048" />
<circle cx="105" cy="145" r="5" style="fill:#552048" />
<circle cx="125" cy="145" r="5" style="fill:#552048" />
<circle cx="135" cy="145" r="5" style="fill:#552048" />
<circle cx="145" cy="145" r="5" style="fill:#552048" />
<circle cx="155" cy="145" r="5" style="fill:#552048" />
<circle cx="165" cy="145" r="5" style="fill:#552048" />
<circle cx="215" cy="145" r="5" style="fill:#552048" />
<circle cx="225" cy="145" r="5" style="fill:#552048" />
<circle cx="265" cy="145" r="5" style="fill:#552048" />
<circle cx="275" cy="145" r="5" style="fill:#552048" />
<circle cx="285" cy="145" r="5" style="fill:#552048" />
<circle cx="75" cy="155" r="5" style="fill:#552048" />
<circle cx="125" cy="155" r="5" style="fill:#552048" />
<circle cx="135" cy="155" r="5" style="fill:#552048" />
<circle cx="185" cy="155" r="5" style="fill:#552048" />
<circle cx="205" cy="155" r="5" style="fill:#552048" />
<circle cx="215" cy="155" r="5" style="fill:#552048" />
<circle cx="225" cy="155" r="5" style="fill:#552048" />
<circle cx="235" cy="155" r="5" style="fill:#552048" />
<circle cx="275" cy="155" r="5" style="fill:#552048" />
<circle cx="285" cy="155" r="5" style="fill:#552048" />
<circle cx="45" cy="165" r="5" style="fill:#552048" />
<circle cx="85" cy="165" r="5" style="fill:#552048" />
<circle cx="105" cy="165" r="5" style="fill:#552048" />
<circle cx="115" cy="165" r="5" style="fill:#552048" />
<circle cx="125" cy="165" r="5" style="fill:#552048" />
<circle cx="145" cy="165" r="5" style="fill:#552048" />
<circle cx="175" cy="165" r="5" style="fill:#552048" />
<circle cx="185" cy="165" r="5" style="fill:#552048" />
<circle cx="205" cy="165" r="5" style="fill:#552048" />
<circle cx="215" cy="165" r="5" style="fill:#552048" />
<circle cx="225" cy="165" r="5" style="fill:#552048" />
<circle cx="235" cy="165" r="5" style="fill:#552048" />
<circle cx="245" cy="165" r="5" style="fill:#552048" />
<circle cx="265" cy="165" r="5" style="fill:#552048" />
<circle cx="275" cy="165" r="5" style="fill:#552048" />
<circle cx="285" cy="165" r="5" style="fill:#552048" />
<circle cx="45" cy="175" r="5" style="fill:#552048" />
<circle cx="65" cy="175" r="5" style="fill:#552048" />
<circle cx="75" cy="175" r="5" style="fill:#552048" />
<circle cx="95" cy="175" r="5" style="fill:#552048" />
<circle cx="115" cy="175" r="5" style="fill:#552048" />
<circle cx="125" cy="175" r="5" style="fill:#552048" />
<circle cx="135" cy="175" r="5" style="fill:#552048" />
<circle cx="145" cy="175" r="5" style="fill:#552048" />
<circle cx="155" cy="175" r="5" style="fill:#552048" />
<circle cx="165" cy="175" r="5" style="fill:#552048" />
<circle cx="185" cy="175" r="5" style="fill:#552048" />
<circle cx="195" cy="175" r="5" style="fill:#552048" />
<circle cx="235" cy="175" r="5" style="fill:#552048" />
<circle cx="45" cy="185" r="5" style="fill:#552048" />
<circle cx="65" cy="185" r="5" style="fill:#552048" />
<circle cx="105" cy="185" r="5" style="fill:#552048" />
<circle cx="115" cy="185" r="5" style="fill:#552048" />
<circle cx="125" cy="185" r="5" style="fill:#552048" />
<circle cx="135" cy="185" r="5" style="fill:#552048" />
<circle cx="155" cy="185" r="5" style="fill:#552048" />
<circle cx="165" cy="185" r="5" style="fill:#552048" />
<circle cx="185" cy="185" r="5" style="fill:#552048" />
<circle cx="195" cy="185" r="5" style="fill:#552048" />
<circle cx="205" cy="185" r="5" style="fill:#552048" />
<circle cx="215" cy="185" r="5" style="fill:#552048" />
<circle cx="245" cy="185" r="5" style="fill:#552048" />
<circle cx="255" cy="185" r="5" style="fill:#552048" />
<circle cx="275" cy="185" r="5" style="fill:#552048" />
<circle cx="285" cy="185" r="5" style="fill:#552048" />
<circle cx="45" cy="195" r="5" style="fill:#552048" />
<circle cx="65" cy="195" r="5" style="fill:#552048" />
<circle cx="115" cy="195" r="5" style="fill:#552048" />
<circle cx="135" cy="195" r="5" style="fill:#552048" />
<circle cx="155" cy="195" r="5" style="fill:#552048" />
<circle cx="175" cy="195" r="5" style="fill:#552048" />
<circle cx="195" cy="195" r="5" style="fill:#552048" />
<circle cx="235" cy="195" r="5" style="fill:#552048" />
<circle cx="245" cy="195" r="5" style="fill:#552048" />
<circle cx="255" cy="195" r="5" style="fill:#552048" />
<circle cx="285" cy="195" r="5" style="fill:#552048" />
<circle cx="45" cy="205" r="5" style="fill:#552048" />
<circle cx="75" cy="205" r="5" style="fill:#552048" />
<circle cx="95" cy="205" r="5" style="fill:#552048" />
<circle cx="105" cy="205" r="5" style="fill:#552048" />
<circle cx="115" cy="205" r="5" style="fill:#552048" />
<circle cx="135" cy="205" r="5" style="fill:#552048" />
<circle cx="165" cy="205" r="5" style="fill:#552048" />
<circle cx="195" cy="205" r="5" style="fill:#552048" />
<circle cx="205" cy="205" r="5" style="fill:#552048" />
<circle cx="215" cy="205" r="5" style="fill:#552048" />
<circle cx="225" cy="205" r="5" style="fill:#552048" />
<circle cx="235" cy="205" r="5" style="fill:#552048" />
<circle cx="245" cy="205" r="5" style="fill:#552048" />
<circle cx="255" cy="205" r="5" style="fill:#552048" />
<circle cx="265" cy="205" r="5" style="fill:#552048" />
<circle cx="275" cy="205" r="5" style="fill:#552048" />
<circle cx="285" cy="205" r="5" style="fill:#552048" />
<circle cx="125" cy="215" r="5" style="fill:#552048" />
<circle cx="135" cy="215" r="5" style="fill:#552048" />
<circle cx="145" cy="215" r="5" style="fill:#552048" />
<circle cx="195" cy="215" r="5" style="fill:#552048" />
<circle cx="205" cy="215" r="5" style="fill:#552048" />
<circle cx="245" cy="215" r="5" style="fill:#552048" />
<circle cx="255" cy="215" r="5" style="fill:#552048" />
<circle cx="275" cy="215" r="5" style="fill:#552048" />
<circle cx="155" cy="225" r="5" style="fill:#552048" />
<circle cx="165" cy="225" r="5" style="fill:#552048" />
<circle cx="175" cy="225" r="5" style="fill:#552048" />
<circle cx="195" cy="225" r="5" style="fill:#552048" />
<circle cx="205" cy="225" r="5" style="fill:#552048" />
<circle cx="225" cy="225" r="5" style="fill:#552048" />
<circle cx="245" cy="225" r="5" style="fill:#552048" />
<circle cx="255" cy="225" r="5" style="fill:#552048" />
<circle cx="275" cy="225" r="5" style="fill:#552048" />
<circle cx="285" cy="225" r="5" style="fill:#552048" />
<circle cx="155" cy="235" r="5" style="fill:#552048" />
<circle cx="185" cy="235" r="5" style="fill:#552048" />
<circle cx="205" cy="235" r="5" style="fill:#552048" />
<circle cx="245" cy="235" r="5" style="fill:#552048" />
<circle cx="285" cy="235" r="5" style="fill:#552048" />
<circle cx="125" cy="245" r="5" style="fill:#552048" />
<circle cx="135" cy="245" r="5" style="fill:#552048" />
<circle cx="145" cy="245" r="5" style="fill:#552048" />
<circle cx="155" cy="245" r="5" style="fill:#552048" />
<circle cx="165" cy="245" r="5" style="fill:#552048" />
<circle cx="205" cy="245" r="5" style="fill:#552048" />
<circle cx="215" cy="245" r="5" style="fill:#552048" />
<circle cx="225" cy="245" r="5" style="fill:#552048" />
<circle cx="235" cy="245" r="5" style="fill:#552048" />
<circle cx="245" cy="245" r="5" style="fill:#552048" />
<circle cx="255" cy="245" r="5" style="fill:#552048" />
<circle cx="265" cy="245" r="5" style="fill:#552048" />
<circle cx="275" cy="245" r="5" style="fill:#552048" />
<circle cx="125" cy="255" r="5" style="fill:#552048" />
<circle cx="145" cy="255" r="5" style="fill:#552048" />
<circle cx="155" cy="255" r="5" style="fill:#552048" />
<circle cx="165" cy="255" r="5" style="fill:#552048" />
<circle cx="195" cy="255" r="5" style="fill:#552048" />
<circle cx="205" cy="255" r="5" style="fill:#552048" />
<circle cx="215" cy="255" r="5" style="fill:#552048" />
<circle cx="225" cy="255" r="5" style="fill:#552048" />
<circle cx="245" cy="255" r="5" style="fill:#552048" />
<circle cx="255" cy="255" r="5" style="fill:#552048" />
<circle cx="285" cy="255" r="5" style="fill:#552048" />
<circle cx="125" cy="265" r="5" style="fill:#552048" />
<circle cx="145" cy="265" r="5" style="fill:#552048" />
<circle cx="155" cy="265" r="5" style="fill:#552048" />
<circle cx="165" cy="265" r="5" style="fill:#552048" />
<circle cx="205" cy="265" r="5" style="fill:#552048" />
<circle cx="215" cy="265" r="5" style="fill:#552048" />
<circle cx="235" cy="265" r="5" style="fill:#552048" />
<circle cx="265" cy="265" r="5" style="fill:#552048" />
<circle cx="285" cy="265" r="5" style="fill:#552048" />
<circle cx="165" cy="275" r="5" style="fill:#552048" />
<circle cx="175" cy="275" r="5" style="fill:#552048" />
<circle cx="185" cy="275" r="5" style="fill:#552048" />
<circle cx="195" cy="275" r="5" style="fill:#552048" />
<circle cx="215" cy="275" r="5" style="fill:#552048" />
<circle cx="225" cy="275" r="5" style="fill:#552048" />
<circle cx="235" cy="275" r="5" style="fill:#552048" />
<circle cx="245" cy="275" r="5" style="fill:#552048" />
<circle cx="285" cy="275" r="5" style="fill:#552048" />
<circle cx="135" cy="285" r="5" style="fill:#552048" />
<circle cx="175" cy="285" r="5" style="fill:#552048" />
<circle cx="185" cy="285" r="5" style="fill:#552048" />
<circle cx="195" cy="285" r="5" style="fill:#552048" />
<circle cx="225" cy="285" r="5" style="fill:#552048" />
<circle cx="235" cy="285" r="5" style="fill:#552048" />
<circle cx="245" cy="285" r="5" style="fill:#552048" />
<circle cx="255" cy="285" r="5" style="fill:#552048" />
<circle cx="265" cy="285" r="5" style="fill:#552048" />
<circle cx="275" cy="285" r="5" style="fill:#552048" />
<circle cx="285" cy="285" r="5" style="fill:#552048" />
<rect x="40" y="40" width="70" height="70" rx="5" ry="5" style="fill:#552048" />
<rect x="50" y="50" width="50" height="50" rx="5" ry="5" style="fill:#f8f2ec" />
<rect x="60" y="60" width="30" height="30" style="fill:#552048" />
<rect x="220" y="40" width="70" height="70" rx="5" ry="5" style="fill:#552048" />
<rect x="230" y="50" width="50" height="50" rx="5" ry="5" style="fill:#f8f2ec" />
<rect x="240" y="60" width="30" height="30" style="fill:#552048" />
<rect x="40" y="220" width="70" height="70" rx="5" ry="5" style="fill:#552048" />
<rect x="50" y="230" width="50" height="50" rx="5" ry="5" style="fill:#f8f2ec" />
<rect x="60" y="240" width="30" height="30" style="fill:#552048" />
</svg>
