<?xml version="1.0"?>
<!-- Generated by SVGo -->
<svg width="290" height="290"
     xmlns="http://www.w3.org/2000/svg"
     xmlns:xlink="http://www.w3.org/1999/xlink">
<rect x="0" y="0" width="290" height="290" style="fill:#f8f2ec" />
<rect x="120" y="40" width="30" height="10" style="fill:#552048" />
<rect x="160" y="40" width="10" height="10" style="fill:#552048" />
<rect x="180" y="40" width="70" height="10" style="fill:#552048" />
<rect x="120" y="50" width="20" height="10" style="fill:#552048" />
<rect x="180" y="50" width="10" height="10" style="fill:#552048" />
<rect x="240" y="50" width="10" height="10" style="fill:#552048" />
<rect x="140" y="60" width="20" height="10" style="fill:#552048" />
<rect x="180" y="60" width="10" height="10" style="fill:#552048" />
<rect x="200" y="60" width="30" height="10" style="fill:#552048" />
<rect x="240" y="60" width="10" height="10" style="fill:#552048" />
<rect x="120" y="70" width="10" height="10" style="fill:#552048" />
<rect x="150" y="70" width="20" height="10" style="fill:#552048" />
<rect x="180" y="70" width="10" height="10" style="fill:#552048" />
<rect x="200" y="70" width="30" height="10" style="fill:#552048" />
<rect x="240" y="70" width="10" height="10" style="fill:#552048" />
<rect x="120" y="80" width="10" height="10" style="fill:#552048" />
<rect x="150" y="80" width="10" height="10" style="fill:#552048" />
<rect x="180" y="80" width="10" height="10" style="fill:#552048" />
<rect x="200" y="80" width="30" height="10" style="fill:#552048" />
<rect x="240" y="80" width="10" height="10" style="fill:#552048" />
<rect x="120" y="90" width="20" height="10" style="fill:#552048" />
<rect x="180" y="90" width="10" height="10" style="fill:#552048" />
<rect x="240" y="90" width="10" height="10" style="fill:#552048" />
<rect x="120" y="100" width="10" height="10" style="fill:#552048" />
<rect x="140" y="100" width="10" height="10" style="fill:#552048" />
<rect x="160" y="100" width="10" height="10" style="fill:#552048" />
<rect x="180" y="100" width="70" height="10" style="fill:#552048" />
<rect x="130" y="110" width="20" height="10" style="fill:#552048" />
<rect x="160" y="110" width="10" height="10" style="fill:#552048" />
<rect x="70" y="120" width="10" height="10" style="fill:#552048" />
<rect x="100" y="120" width="10" height="10" style="fill:#552048" />
<rect x="130" y="120" width="10" height="10" style="fill:#552048" />
<rect x="150" y="120" width="10" height="10" style="fill:#552048" />
<rect x="190" y="120" width="30" height="10" style="fill:#552048" />
<rect x="230" y="120" width="20" height="10" style="fill:#552048" />
<rect x="70" y="130" width="20" height="10" style="fill:#552048" />
<rect x="110" y="130" width="20" height="10" style="fill:#552048" />
<rect x="160" y="130" width="10" height="10" style="fill:#552048" />
<rect x="180" y="130" width="20" height="10" style="fill:#552048" />
<rect x="230" y="130" width="20" height="10" style="fill:#552048" />
<rect x="40" y="140" width="10" height="10" style="fill:#552048" />
<rect x="60" y="140" width="20" height="10" style="fill:#552048" />
<rect x="100" y="140" width="30" height="10" style="fill:#552048" />
<rect x="140" y="140" width="10" height="10" style="fill:#552048" />
<rect x="160" y="140" width="10" height="10" style="fill:#552048" />
<rect x="180" y="140" width="50" height="10" style="fill:#552048" />
<rect x="240" y="140" width="10" height="10" style="fill:#552048" />
<rect x="40" y="150" width="20" height="10" style="fill:#552048" />
<rect x="70" y="150" width="10" height="10" style="fill:#552048" />
<rect x="130" y="150" width="10" height="10" style="fill:#552048" />
<rect x="160" y="150" width="10" height="10" style="fill:#552048" />
<rect x="180" y="150" width="40" height="10" style="fill:#552048" />
<rect x="230" y="150" width="20" height="10" style="fill:#552048" />
<rect x="40" y="160" width="20" height="10" style="fill:#552048" />
<rect x="90" y="160" width="20" height="10" style="fill:#552048" />
<rect x="120" y="160" width="30" height="10" style="fill:#552048" />
<rect x="190" y="160" width="10" height="10" style="fill:#552048" />
<rect x="210" y="160" width="10" height="10" style="fill:#552048" />
<rect x="230" y="160" width="20" height="10" style="fill:#552048" />
<rect x="120" y="170" width="10" height="10" style="fill:#552048" />
<rect x="150" y="170" width="30" height="10" style="fill:#552048" />
<rect x="200" y="170" width="20" height="10" style="fill:#552048" />
<rect x="230" y="170" width="20" height="10" style="fill:#552048" />
<rect x="40" y="180" width="70" height="10" style="fill:#552048" />
<rect x="130" y="180" width="30" height="10" style="fill:#552048" />
<rect x="180" y="180" width="10" height="10" style="fill:#552048" />
<rect x="200" y="180" width="10" height="10" style="fill:#552048" />
<rect x="230" y="180" width="10" height="10" style="fill:#552048" />
<rect x="40" y="190" width="10" height="10" style="fill:#552048" />
<rect x="100" y="190" width="10" height="10" style="fill:#552048" />
<rect x="130" y="190" width="20" height="10" style="fill:#552048" />
<rect x="160" y="190" width="10" height="10" style="fill:#552048" />
<rect x="180" y="190" width="10" height="10" style="fill:#552048" />
<rect x="230" y="190" width="10" height="10" style="fill:#552048" />
<rect x="40" y="200" width="10" height="10" style="fill:#552048" />
<rect x="60" y="200" width="30" height="10" style="fill:#552048" />
<rect x="100" y="200" width="10" height="10" style="fill:#552048" />
<rect x="150" y="200" width="10" height="10" style="fill:#552048" />
<rect x="170" y="200" width="20" height="10" style="fill:#552048" />
<rect x="210" y="200" width="10" height="10" style="fill:#552048" />
<rect x="240" y="200" width="10" height="10" style="fill:#552048" />
<rect x="40" y="210" width="10" height="10" style="fill:#552048" />
<rect x="60" y="210" width="30" height="10" style="fill:#552048" />
<rect x="100" y="210" width="10" height="10" style="fill:#552048" />
<rect x="120" y="210" width="20" height="10" style="fill:#552048" />
<rect x="150" y="210" width="10" height="10" style="fill:#552048" />
<rect x="190" y="210" width="10" height="10" style="fill:#552048" />
<rect x="210" y="210" width="10" height="10" style="fill:#552048" />
<rect x="230" y="210" width="20" height="10" style="fill:#552048" />
<rect x="40" y="220" width="10" height="10" style="fill:#552048" />
<rect x="60" y="220" width="30" height="10" style="fill:#552048" />
<rect x="100" y="220" width="10" height="10" style="fill:#552048" />
<rect x="160" y="220" width="20" height="10" style="fill:#552048" />
<rect x="190" y="220" width="10" height="10" style="fill:#552048" />
<rect x="220" y="220" width="10" height="10" style="fill:#552048" />
<rect x="240" y="220" width="10" height="10" style="fill:#552048" />
<rect x="40" y="230" width="10" height="10" style="fill:#552048" />
<rect x="100" y="230" width="10" height="10" style="fill:#552048" />
<rect x="130" y="230" width="10" height="10" style="fill:#552048" />
<rect x="150" y="230" width="10" height="10" style="fill:#552048" />
<rect x="180" y="230" width="20" height="10" style="fill:#552048" />
<rect x="210" y="230" width="10" height="10" style="fill:#552048" />
<rect x="40" y="240" width="70" height="10" style="fill:#552048" />
<rect x="140" y="240" width="20" height="10" style="fill:#552048" />
<rect x="170" y="240" width="10" height="10" style="fill:#552048" />
<rect x="190" y="240" width="10" height="10" style="fill:#552048" />
<rect x="210" y="240" width="30" height="10" style="fill:#552048" />
<rect x="40" y="140" width="10" height="30" style="fill:#552048" />
<rect x="40" y="180" width="10" height="70" style="fill:#552048" />
<rect x="50" y="150" width="10" height="20" style="fill:#552048" />
<rect x="50" y="180" width="10" height="10" style="fill:#552048" />
<rect x="50" y="240" width="10" height="10" style="fill:#552048" />
<rect x="60" y="140" width="10" height="10" style="fill:#552048" />
<rect x="60" y="180" width="10" height="10" style="fill:#552048" />
<rect x="60" y="200" width="10" height="30" style="fill:#552048" />
<rect x="60" y="240" width="10" height="10" style="fill:#552048" />
<rect x="70" y="120" width="10" height="40" style="fill:#552048" />
<rect x="70" y="180" width="10" height="10" style="fill:#552048" />
<rect x="70" y="200" width="10" height="30" style="fill:#552048" />
<rect x="70" y="240" width="10" height="10" style="fill:#552048" />
<rect x="80" y="130" width="10" height="10" style="fill:#552048" />
<rect x="80" y="180" width="10" height="10" style="fill:#552048" />
<rect x="80" y="200" width="10" height="30" style="fill:#552048" />
<rect x="80" y="240" width="10" height="10" style="fill:#552048" />
<rect x="90" y="160" width="10" height="10" style="fill:#552048" />
<rect x="90" y="180" width="10" height="10" style="fill:#552048" />
<rect x="90" y="240" width="10" height="10" style="fill:#552048" />
<rect x="100" y="120" width="10" height="10" style="fill:#552048" />
<rect x="100" y="140" width="10" height="10" style="fill:#552048" />
<rect x="100" y="160" width="10" height="10" style="fill:#552048" />
<rect x="100" y="180" width="10" height="70" style="fill:#552048" />
<rect x="110" y="130" width="10" height="20" style="fill:#552048" />
<rect x="120" y="40" width="10" height="20" style="fill:#552048" />
<rect x="120" y="70" width="10" height="40" style="fill:#552048" />
<rect x="120" y="130" width="10" height="20" style="fill:#552048" />
<rect x="120" y="160" width="10" height="20" style="fill:#552048" />
<rect x="120" y="210" width="10" height="10" style="fill:#552048" />
<rect x="130" y="40" width="10" height="20" style="fill:#552048" />
<rect x="130" y="90" width="10" height="10" style="fill:#552048" />
<rect x="130" y="110" width="10" height="20" style="fill:#552048" />
<rect x="130" y="150" width="10" height="20" style="fill:#552048" />
<rect x="130" y="180" width="10" height="20" style="fill:#552048" />
<rect x="130" y="210" width="10" height="10" style="fill:#552048" />
<rect x="130" y="230" width="10" height="10" style="fill:#552048" />
<rect x="140" y="40" width="10" height="10" style="fill:#552048" />
<rect x="140" y="60" width="10" height="10" style="fill:#552048" />
<rect x="140" y="100" width="10" height="20" style="fill:#552048" />
<rect x="140" y="140" width="10" height="10" style="fill:#552048" />
<rect x="140" y="160" width="10" height="10" style="fill:#552048" />
<rect x="140" y="180" width="10" height="20" style="fill:#552048" />
<rect x="140" y="240" width="10" height="10" style="fill:#552048" />
<rect x="150" y="60" width="10" height="30" style="fill:#552048" />
<rect x="150" y="120" width="10" height="10" style="fill:#552048" />
<rect x="150" y="170" width="10" height="20" style="fill:#552048" />
<rect x="150" y="200" width="10" height="20" style="fill:#552048" />
<rect x="150" y="230" width="10" height="20" style="fill:#552048" />
<rect x="160" y="40" width="10" height="10" style="fill:#552048" />
<rect x="160" y="70" width="10" height="10" style="fill:#552048" />
<rect x="160" y="100" width="10" height="20" style="fill:#552048" />
<rect x="160" y="130" width="10" height="30" style="fill:#552048" />
<rect x="160" y="170" width="10" height="10" style="fill:#552048" />
<rect x="160" y="190" width="10" height="10" style="fill:#552048" />
<rect x="160" y="220" width="10" height="10" style="fill:#552048" />
<rect x="170" y="170" width="10" height="10" style="fill:#552048" />
<rect x="170" y="200" width="10" height="10" style="fill:#552048" />
<rect x="170" y="220" width="10" height="10" style="fill:#552048" />
<rect x="170" y="240" width="10" height="10" style="fill:#552048" />
<rect x="180" y="40" width="10" height="70" style="fill:#552048" />
<rect x="180" y="130" width="10" height="30" style="fill:#552048" />
<rect x="180" y="180" width="10" height="30" style="fill:#552048" />
<rect x="180" y="230" width="10" height="10" style="fill:#552048" />
<rect x="190" y="40" width="10" height="10" style="fill:#552048" />
<rect x="190" y="100" width="10" height="10" style="fill:#552048" />
<rect x="190" y="120" width="10" height="50" style="fill:#552048" />
<rect x="190" y="210" width="10" height="40" style="fill:#552048" />
<rect x="200" y="40" width="10" height="10" style="fill:#552048" />
<rect x="200" y="60" width="10" height="30" style="fill:#552048" />
<rect x="200" y="100" width="10" height="10" style="fill:#552048" />
<rect x="200" y="120" width="10" height="10" style="fill:#552048" />
<rect x="200" y="140" width="10" height="20" style="fill:#552048" />
<rect x="200" y="170" width="10" height="20" style="fill:#552048" />
<rect x="210" y="40" width="10" height="10" style="fill:#552048" />
<rect x="210" y="60" width="10" height="30" style="fill:#552048" />
<rect x="210" y="100" width="10" height="10" style="fill:#552048" />
<rect x="210" y="120" width="10" height="10" style="fill:#552048" />
<rect x="210" y="140" width="10" height="40" style="fill:#552048" />
<rect x="210" y="200" width="10" height="20" style="fill:#552048" />
<rect x="210" y="230" width="10" height="20" style="fill:#552048" />
<rect x="220" y="40" width="10" height="10" style="fill:#552048" />
<rect x="220" y="60" width="10" height="30" style="fill:#552048" />
<rect x="220" y="100" width="10" height="10" style="fill:#552048" />
<rect x="220" y="140" width="10" height="10" style="fill:#552048" />
<rect x="220" y="220" width="10" height="10" style="fill:#552048" />
<rect x="220" y="240" width="10" height="10" style="fill:#552048" />
<rect x="230" y="40" width="10" height="10" style="fill:#552048" />
<rect x="230" y="100" width="10" height="10" style="fill:#552048" />
<rect x="230" y="120" width="10" height="20" style="fill:#552048" />
<rect x="230" y="150" width="10" height="50" style="fill:#552048" />
<rect x="230" y="210" width="10" height="10" style="fill:#552048" />
<rect x="230" y="240" width="10" height="10" style="fill:#552048" />
<rect x="240" y="40" width="10" height="70" style="fill:#552048" />
<rect x="240" y="120" width="10" height="60" style="fill:#552048" />
<rect x="240" y="200" width="10" height="30" style="fill:#552048" />
<rect x="40" y="40" width="70" height="10" style="fill:#552048" />
<rect x="40" y="100" width="70" height="10" style="fill:#552048" />
<rect x="40" y="40" width="10" height="70" style="fill:#552048" />
<rect x="100" y="40" width="10" height="70" style="fill:#552048" />
<rect x="60" y="60" width="30" height="30" style="fill:#552048" />
<rect x="0" y="0" width="70" height="10" style="fill:#552048" />
<rect x="0" y="60" width="70" height="10" style="fill:#552048" />
<rect x="0" y="0" width="10" height="70" style="fill:#552048" />
<rect x="60" y="0" width="10" height="70" style="fill:#552048" />
<rect x="20" y="20" width="30" height="30" style="fill:#552048" />
<rect x="0" y="0" width="70" height="10" style="fill:#552048" />
<rect x="0" y="60" width="70" height="10" style="fill:#552048" />
<rect x="0" y="0" width="10" height="70" style="fill:#552048" />
<rect x="60" y="0" width="10" height="70" style="fill:#552048" />
<rect x="20" y="20" width="30" height="30" style="fill:#552048" />
</svg>
