<?xml version="1.0"?>
<!-- Generated by SVGo -->
<svg width="450" height="450"
     xmlns="http://www.w3.org/2000/svg"
     xmlns:xlink="http://www.w3.org/1999/xlink">
<rect x="0" y="0" width="450" height="450" style="fill:#f8f2ec" />
<rect x="120" y="40" width="40" height="10" rx="2" ry="2" style="fill:#552048" />
<rect x="170" y="40" width="20" height="10" rx="2" ry="2" style="fill:#552048" />
<rect x="200" y="40" width="40" height="10" rx="2" ry="2" style="fill:#552048" />
<rect x="270" y="40" width="20" height="10" rx="2" ry="2" style="fill:#552048" />
<rect x="300" y="40" width="10" height="10" rx="2" ry="2" style="fill:#552048" />
<rect x="320" y="40" width="10" height="10" rx="2" ry="2" style="fill:#552048" />
<rect x="120" y="50" width="10" height="10" rx="2" ry="2" style="fill:#552048" />
<rect x="140" y="50" width="10" height="10" rx="2" ry="2" style="fill:#552048" />
<rect x="180" y="50" width="10" height="10" rx="2" ry="2" style="fill:#552048" />
<rect x="200" y="50" width="10" height="10" rx="2" ry="2" style="fill:#552048" />
<rect x="220" y="50" width="10" height="10" rx="2" ry="2" style="fill:#552048" />
<rect x="260" y="50" width="20" height="10" rx="2" ry="2" style="fill:#552048" />
<rect x="300" y="50" width="20" height="10" rx="2" ry="2" style="fill:#552048" />
<rect x="120" y="60" width="40" height="10" rx="2" ry="2" style="fill:#552048" />
<rect x="200" y="60" width="10" height="10" rx="2" ry="2" style="fill:#552048" />
<rect x="240" y="60" width="20" height="10" rx="2" ry="2" style="fill:#552048" />
<rect x="300" y="60" width="20" height="10" rx="2" ry="2" style="fill:#552048" />
<rect x="130" y="70" width="20" height="10" rx="2" ry="2" style="fill:#552048" />
<rect x="190" y="70" width="10" height="10" rx="2" ry="2" style="fill:#552048" />
<rect x="210" y="70" width="10" height="10" rx="2" ry="2" style="fill:#552048" />
<rect x="260" y="70" width="40" height="10" rx="2" ry="2" style="fill:#552048" />
<rect x="310" y="70" width="10" height="10" rx="2" ry="2" style="fill:#552048" />
<rect x="130" y="80" width="10" height="10" rx="2" ry="2" style="fill:#552048" />
<rect x="160" y="80" width="10" height="10" rx="2" ry="2" style="fill:#552048" />
<rect x="190" y="80" width="10" height="10" rx="2" ry="2" style="fill:#552048" />
<rect x="220" y="80" width="60" height="10" rx="2" ry="2" style="fill:#552048" />
<rect x="290" y="80" width="10" height="10" rx="2" ry="2" style="fill:#552048" />
<rect x="120" y="90" width="10" height="10" rx="2" ry="2" style="fill:#552048" />
<rect x="150" y="90" width="10" height="10" rx="2" ry="2" style="fill:#552048" />
<rect x="170" y="90" width="10" height="10" rx="2" ry="2" style="fill:#552048" />
<rect x="200" y="90" width="10" height="10" rx="2" ry="2" style="fill:#552048" />
<rect x="280" y="90" width="40" height="10" rx="2" ry="2" style="fill:#552048" />
<rect x="120" y="100" width="10" height="10" rx="2" ry="2" style="fill:#552048" />
<rect x="140" y="100" width="10" height="10" rx="2" ry="2" style="fill:#552048" />
<rect x="160" y="100" width="10" height="10" rx="2" ry="2" style="fill:#552048" />
<rect x="180" y="100" width="10" height="10" rx="2" ry="2" style="fill:#552048" />
<rect x="200" y="100" width="10" height="10" rx="2" ry="2" style="fill:#552048" />
<rect x="220" y="100" width="10" height="10" rx="2" ry="2" style="fill:#552048" />
<rect x="240" y="100" width="10" height="10" rx="2" ry="2" style="fill:#552048" />
<rect x="260" y="100" width="10" height="10" rx="2" ry="2" style="fill:#552048" />
<rect x="280" y="100" width="10" height="10" rx="2" ry="2" style="fill:#552048" />
<rect x="300" y="100" width="10" height="10" rx="2" ry="2" style="fill:#552048" />
<rect x="320" y="100" width="10" height="10" rx="2" ry="2" style="fill:#552048" />
<rect x="120" y="110" width="10" height="10" rx="2" ry="2" style="fill:#552048" />
<rect x="180" y="110" width="30" height="10" rx="2" ry="2" style="fill:#552048" />
<rect x="220" y="110" width="10" height="10" rx="2" ry="2" style="fill:#552048" />
<rect x="280" y="110" width="10" height="10" rx="2" ry="2" style="fill:#552048" />
<rect x="300" y="110" width="10" height="10" rx="2" ry="2" style="fill:#552048" />
<rect x="60" y="120" width="30" height="10" rx="2" ry="2" style="fill:#552048" />
<rect x="100" y="120" width="10" height="10" rx="2" ry="2" style="fill:#552048" />
<rect x="120" y="120" width="20" height="10" rx="2" ry="2" style="fill:#552048" />
<rect x="150" y="120" width="10" height="10" rx="2" ry="2" style="fill:#552048" />
<rect x="170" y="120" width="20" height="10" rx="2" ry="2" style="fill:#552048" />
<rect x="240" y="120" width="80" height="10" rx="2" ry="2" style="fill:#552048" />
<rect x="330" y="120" width="30" height="10" rx="2" ry="2" style="fill:#552048" />
<rect x="380" y="120" width="30" height="10" rx="2" ry="2" style="fill:#552048" />
<rect x="60" y="130" width="10" height="10" rx="2" ry="2" style="fill:#552048" />
<rect x="80" y="130" width="20" height="10" rx="2" ry="2" style="fill:#552048" />
<rect x="120" y="130" width="10" height="10" rx="2" ry="2" style="fill:#552048" />
<rect x="160" y="130" width="10" height="10" rx="2" ry="2" style="fill:#552048" />
<rect x="180" y="130" width="30" height="10" rx="2" ry="2" style="fill:#552048" />
<rect x="260" y="130" width="10" height="10" rx="2" ry="2" style="fill:#552048" />
<rect x="280" y="130" width="10" height="10" rx="2" ry="2" style="fill:#552048" />
<rect x="320" y="130" width="10" height="10" rx="2" ry="2" style="fill:#552048" />
<rect x="370" y="130" width="10" height="10" rx="2" ry="2" style="fill:#552048" />
<rect x="40" y="140" width="10" height="10" rx="2" ry="2" style="fill:#552048" />
<rect x="60" y="140" width="10" height="10" rx="2" ry="2" style="fill:#552048" />
<rect x="90" y="140" width="20" height="10" rx="2" ry="2" style="fill:#552048" />
<rect x="130" y="140" width="10" height="10" rx="2" ry="2" style="fill:#552048" />
<rect x="150" y="140" width="10" height="10" rx="2" ry="2" style="fill:#552048" />
<rect x="180" y="140" width="20" height="10" rx="2" ry="2" style="fill:#552048" />
<rect x="250" y="140" width="10" height="10" rx="2" ry="2" style="fill:#552048" />
<rect x="270" y="140" width="10" height="10" rx="2" ry="2" style="fill:#552048" />
<rect x="310" y="140" width="50" height="10" rx="2" ry="2" style="fill:#552048" />
<rect x="380" y="140" width="30" height="10" rx="2" ry="2" style="fill:#552048" />
<rect x="50" y="150" width="10" height="10" rx="2" ry="2" style="fill:#552048" />
<rect x="80" y="150" width="10" height="10" rx="2" ry="2" style="fill:#552048" />
<rect x="110" y="150" width="10" height="10" rx="2" ry="2" style="fill:#552048" />
<rect x="170" y="150" width="30" height="10" rx="2" ry="2" style="fill:#552048" />
<rect x="220" y="150" width="10" height="10" rx="2" ry="2" style="fill:#552048" />
<rect x="240" y="150" width="10" height="10" rx="2" ry="2" style="fill:#552048" />
<rect x="320" y="150" width="10" height="10" rx="2" ry="2" style="fill:#552048" />
<rect x="340" y="150" width="20" height="10" rx="2" ry="2" style="fill:#552048" />
<rect x="400" y="150" width="10" height="10" rx="2" ry="2" style="fill:#552048" />
<rect x="60" y="160" width="20" height="10" rx="2" ry="2" style="fill:#552048" />
<rect x="90" y="160" width="30" height="10" rx="2" ry="2" style="fill:#552048" />
<rect x="160" y="160" width="10" height="10" rx="2" ry="2" style="fill:#552048" />
<rect x="230" y="160" width="10" height="10" rx="2" ry="2" style="fill:#552048" />
<rect x="260" y="160" width="10" height="10" rx="2" ry="2" style="fill:#552048" />
<rect x="300" y="160" width="10" height="10" rx="2" ry="2" style="fill:#552048" />
<rect x="340" y="160" width="10" height="10" rx="2" ry="2" style="fill:#552048" />
<rect x="360" y="160" width="50" height="10" rx="2" ry="2" style="fill:#552048" />
<rect x="60" y="170" width="30" height="10" rx="2" ry="2" style="fill:#552048" />
<rect x="110" y="170" width="20" height="10" rx="2" ry="2" style="fill:#552048" />
<rect x="160" y="170" width="20" height="10" rx="2" ry="2" style="fill:#552048" />
<rect x="200" y="170" width="20" height="10" rx="2" ry="2" style="fill:#552048" />
<rect x="230" y="170" width="10" height="10" rx="2" ry="2" style="fill:#552048" />
<rect x="260" y="170" width="20" height="10" rx="2" ry="2" style="fill:#552048" />
<rect x="320" y="170" width="10" height="10" rx="2" ry="2" style="fill:#552048" />
<rect x="40" y="180" width="10" height="10" rx="2" ry="2" style="fill:#552048" />
<rect x="90" y="180" width="30" height="10" rx="2" ry="2" style="fill:#552048" />
<rect x="170" y="180" width="10" height="10" rx="2" ry="2" style="fill:#552048" />
<rect x="210" y="180" width="10" height="10" rx="2" ry="2" style="fill:#552048" />
<rect x="230" y="180" width="30" height="10" rx="2" ry="2" style="fill:#552048" />
<rect x="280" y="180" width="10" height="10" rx="2" ry="2" style="fill:#552048" />
<rect x="300" y="180" width="20" height="10" rx="2" ry="2" style="fill:#552048" />
<rect x="340" y="180" width="40" height="10" rx="2" ry="2" style="fill:#552048" />
<rect x="390" y="180" width="20" height="10" rx="2" ry="2" style="fill:#552048" />
<rect x="40" y="190" width="10" height="10" rx="2" ry="2" style="fill:#552048" />
<rect x="60" y="190" width="30" height="10" rx="2" ry="2" style="fill:#552048" />
<rect x="110" y="190" width="10" height="10" rx="2" ry="2" style="fill:#552048" />
<rect x="130" y="190" width="10" height="10" rx="2" ry="2" style="fill:#552048" />
<rect x="150" y="190" width="20" height="10" rx="2" ry="2" style="fill:#552048" />
<rect x="190" y="190" width="30" height="10" rx="2" ry="2" style="fill:#552048" />
<rect x="240" y="190" width="20" height="10" rx="2" ry="2" style="fill:#552048" />
<rect x="270" y="190" width="10" height="10" rx="2" ry="2" style="fill:#552048" />
<rect x="310" y="190" width="10" height="10" rx="2" ry="2" style="fill:#552048" />
<rect x="340" y="190" width="20" height="10" rx="2" ry="2" style="fill:#552048" />
<rect x="400" y="190" width="10" height="10" rx="2" ry="2" style="fill:#552048" />
<rect x="40" y="200" width="20" height="10" rx="2" ry="2" style="fill:#552048" />
<rect x="100" y="200" width="20" height="10" rx="2" ry="2" style="fill:#552048" />
<rect x="130" y="200" width="10" height="10" rx="2" ry="2" style="fill:#552048" />
<rect x="150" y="200" width="10" height="10" rx="2" ry="2" style="fill:#552048" />
<rect x="170" y="200" width="10" height="10" rx="2" ry="2" style="fill:#552048" />
<rect x="190" y="200" width="10" height="10" rx="2" ry="2" style="fill:#552048" />
<rect x="220" y="200" width="50" height="10" rx="2" ry="2" style="fill:#552048" />
<rect x="290" y="200" width="20" height="10" rx="2" ry="2" style="fill:#552048" />
<rect x="330" y="200" width="20" height="10" rx="2" ry="2" style="fill:#552048" />
<rect x="360" y="200" width="50" height="10" rx="2" ry="2" style="fill:#552048" />
<rect x="40" y="210" width="10" height="10" rx="2" ry="2" style="fill:#552048" />
<rect x="60" y="210" width="10" height="10" rx="2" ry="2" style="fill:#552048" />
<rect x="120" y="210" width="10" height="10" rx="2" ry="2" style="fill:#552048" />
<rect x="140" y="210" width="10" height="10" rx="2" ry="2" style="fill:#552048" />
<rect x="160" y="210" width="30" height="10" rx="2" ry="2" style="fill:#552048" />
<rect x="200" y="210" width="20" height="10" rx="2" ry="2" style="fill:#552048" />
<rect x="240" y="210" width="10" height="10" rx="2" ry="2" style="fill:#552048" />
<rect x="260" y="210" width="20" height="10" rx="2" ry="2" style="fill:#552048" />
<rect x="390" y="210" width="20" height="10" rx="2" ry="2" style="fill:#552048" />
<rect x="60" y="220" width="20" height="10" rx="2" ry="2" style="fill:#552048" />
<rect x="90" y="220" width="20" height="10" rx="2" ry="2" style="fill:#552048" />
<rect x="150" y="220" width="20" height="10" rx="2" ry="2" style="fill:#552048" />
<rect x="180" y="220" width="40" height="10" rx="2" ry="2" style="fill:#552048" />
<rect x="250" y="220" width="10" height="10" rx="2" ry="2" style="fill:#552048" />
<rect x="280" y="220" width="10" height="10" rx="2" ry="2" style="fill:#552048" />
<rect x="310" y="220" width="20" height="10" rx="2" ry="2" style="fill:#552048" />
<rect x="340" y="220" width="20" height="10" rx="2" ry="2" style="fill:#552048" />
<rect x="390" y="220" width="20" height="10" rx="2" ry="2" style="fill:#552048" />
<rect x="50" y="230" width="10" height="10" rx="2" ry="2" style="fill:#552048" />
<rect x="70" y="230" width="10" height="10" rx="2" ry="2" style="fill:#552048" />
<rect x="90" y="230" width="10" height="10" rx="2" ry="2" style="fill:#552048" />
<rect x="110" y="230" width="10" height="10" rx="2" ry="2" style="fill:#552048" />
<rect x="160" y="230" width="30" height="10" rx="2" ry="2" style="fill:#552048" />
<rect x="200" y="230" width="10" height="10" rx="2" ry="2" style="fill:#552048" />
<rect x="230" y="230" width="30" height="10" rx="2" ry="2" style="fill:#552048" />
<rect x="280" y="230" width="10" height="10" rx="2" ry="2" style="fill:#552048" />
<rect x="310" y="230" width="20" height="10" rx="2" ry="2" style="fill:#552048" />
<rect x="340" y="230" width="10" height="10" rx="2" ry="2" style="fill:#552048" />
<rect x="360" y="230" width="20" height="10" rx="2" ry="2" style="fill:#552048" />
<rect x="400" y="230" width="10" height="10" rx="2" ry="2" style="fill:#552048" />
<rect x="40" y="240" width="10" height="10" rx="2" ry="2" style="fill:#552048" />
<rect x="60" y="240" width="10" height="10" rx="2" ry="2" style="fill:#552048" />
<rect x="90" y="240" width="20" height="10" rx="2" ry="2" style="fill:#552048" />
<rect x="130" y="240" width="10" height="10" rx="2" ry="2" style="fill:#552048" />
<rect x="180" y="240" width="30" height="10" rx="2" ry="2" style="fill:#552048" />
<rect x="230" y="240" width="10" height="10" rx="2" ry="2" style="fill:#552048" />
<rect x="260" y="240" width="20" height="10" rx="2" ry="2" style="fill:#552048" />
<rect x="300" y="240" width="10" height="10" rx="2" ry="2" style="fill:#552048" />
<rect x="320" y="240" width="80" height="10" rx="2" ry="2" style="fill:#552048" />
<rect x="50" y="250" width="20" height="10" rx="2" ry="2" style="fill:#552048" />
<rect x="90" y="250" width="10" height="10" rx="2" ry="2" style="fill:#552048" />
<rect x="110" y="250" width="10" height="10" rx="2" ry="2" style="fill:#552048" />
<rect x="130" y="250" width="20" height="10" rx="2" ry="2" style="fill:#552048" />
<rect x="160" y="250" width="10" height="10" rx="2" ry="2" style="fill:#552048" />
<rect x="180" y="250" width="10" height="10" rx="2" ry="2" style="fill:#552048" />
<rect x="200" y="250" width="30" height="10" rx="2" ry="2" style="fill:#552048" />
<rect x="250" y="250" width="10" height="10" rx="2" ry="2" style="fill:#552048" />
<rect x="270" y="250" width="10" height="10" rx="2" ry="2" style="fill:#552048" />
<rect x="290" y="250" width="50" height="10" rx="2" ry="2" style="fill:#552048" />
<rect x="350" y="250" width="10" height="10" rx="2" ry="2" style="fill:#552048" />
<rect x="370" y="250" width="20" height="10" rx="2" ry="2" style="fill:#552048" />
<rect x="400" y="250" width="10" height="10" rx="2" ry="2" style="fill:#552048" />
<rect x="50" y="260" width="10" height="10" rx="2" ry="2" style="fill:#552048" />
<rect x="70" y="260" width="20" height="10" rx="2" ry="2" style="fill:#552048" />
<rect x="100" y="260" width="10" height="10" rx="2" ry="2" style="fill:#552048" />
<rect x="150" y="260" width="30" height="10" rx="2" ry="2" style="fill:#552048" />
<rect x="190" y="260" width="10" height="10" rx="2" ry="2" style="fill:#552048" />
<rect x="220" y="260" width="10" height="10" rx="2" ry="2" style="fill:#552048" />
<rect x="240" y="260" width="10" height="10" rx="2" ry="2" style="fill:#552048" />
<rect x="310" y="260" width="20" height="10" rx="2" ry="2" style="fill:#552048" />
<rect x="340" y="260" width="30" height="10" rx="2" ry="2" style="fill:#552048" />
<rect x="390" y="260" width="20" height="10" rx="2" ry="2" style="fill:#552048" />
<rect x="80" y="270" width="10" height="10" rx="2" ry="2" style="fill:#552048" />
<rect x="170" y="270" width="30" height="10" rx="2" ry="2" style="fill:#552048" />
<rect x="210" y="270" width="20" height="10" rx="2" ry="2" style="fill:#552048" />
<rect x="250" y="270" width="20" height="10" rx="2" ry="2" style="fill:#552048" />
<rect x="310" y="270" width="10" height="10" rx="2" ry="2" style="fill:#552048" />
<rect x="340" y="270" width="10" height="10" rx="2" ry="2" style="fill:#552048" />
<rect x="400" y="270" width="10" height="10" rx="2" ry="2" style="fill:#552048" />
<rect x="60" y="280" width="20" height="10" rx="2" ry="2" style="fill:#552048" />
<rect x="100" y="280" width="10" height="10" rx="2" ry="2" style="fill:#552048" />
<rect x="120" y="280" width="50" height="10" rx="2" ry="2" style="fill:#552048" />
<rect x="250" y="280" width="10" height="10" rx="2" ry="2" style="fill:#552048" />
<rect x="280" y="280" width="40" height="10" rx="2" ry="2" style="fill:#552048" />
<rect x="330" y="280" width="20" height="10" rx="2" ry="2" style="fill:#552048" />
<rect x="360" y="280" width="30" height="10" rx="2" ry="2" style="fill:#552048" />
<rect x="400" y="280" width="10" height="10" rx="2" ry="2" style="fill:#552048" />
<rect x="40" y="290" width="10" height="10" rx="2" ry="2" style="fill:#552048" />
<rect x="60" y="290" width="40" height="10" rx="2" ry="2" style="fill:#552048" />
<rect x="110" y="290" width="20" height="10" rx="2" ry="2" style="fill:#552048" />
<rect x="140" y="290" width="10" height="10" rx="2" ry="2" style="fill:#552048" />
<rect x="170" y="290" width="80" height="10" rx="2" ry="2" style="fill:#552048" />
<rect x="280" y="290" width="10" height="10" rx="2" ry="2" style="fill:#552048" />
<rect x="320" y="290" width="20" height="10" rx="2" ry="2" style="fill:#552048" />
<rect x="350" y="290" width="10" height="10" rx="2" ry="2" style="fill:#552048" />
<rect x="380" y="290" width="20" height="10" rx="2" ry="2" style="fill:#552048" />
<rect x="40" y="300" width="10" height="10" rx="2" ry="2" style="fill:#552048" />
<rect x="60" y="300" width="20" height="10" rx="2" ry="2" style="fill:#552048" />
<rect x="90" y="300" width="20" height="10" rx="2" ry="2" style="fill:#552048" />
<rect x="150" y="300" width="10" height="10" rx="2" ry="2" style="fill:#552048" />
<rect x="190" y="300" width="60" height="10" rx="2" ry="2" style="fill:#552048" />
<rect x="290" y="300" width="10" height="10" rx="2" ry="2" style="fill:#552048" />
<rect x="310" y="300" width="20" height="10" rx="2" ry="2" style="fill:#552048" />
<rect x="340" y="300" width="10" height="10" rx="2" ry="2" style="fill:#552048" />
<rect x="380" y="300" width="30" height="10" rx="2" ry="2" style="fill:#552048" />
<rect x="40" y="310" width="10" height="10" rx="2" ry="2" style="fill:#552048" />
<rect x="60" y="310" width="20" height="10" rx="2" ry="2" style="fill:#552048" />
<rect x="110" y="310" width="10" height="10" rx="2" ry="2" style="fill:#552048" />
<rect x="150" y="310" width="20" height="10" rx="2" ry="2" style="fill:#552048" />
<rect x="190" y="310" width="10" height="10" rx="2" ry="2" style="fill:#552048" />
<rect x="210" y="310" width="10" height="10" rx="2" ry="2" style="fill:#552048" />
<rect x="240" y="310" width="20" height="10" rx="2" ry="2" style="fill:#552048" />
<rect x="270" y="310" width="10" height="10" rx="2" ry="2" style="fill:#552048" />
<rect x="300" y="310" width="10" height="10" rx="2" ry="2" style="fill:#552048" />
<rect x="320" y="310" width="10" height="10" rx="2" ry="2" style="fill:#552048" />
<rect x="340" y="310" width="20" height="10" rx="2" ry="2" style="fill:#552048" />
<rect x="390" y="310" width="10" height="10" rx="2" ry="2" style="fill:#552048" />
<rect x="40" y="320" width="10" height="10" rx="2" ry="2" style="fill:#552048" />
<rect x="60" y="320" width="10" height="10" rx="2" ry="2" style="fill:#552048" />
<rect x="100" y="320" width="20" height="10" rx="2" ry="2" style="fill:#552048" />
<rect x="130" y="320" width="100" height="10" rx="2" ry="2" style="fill:#552048" />
<rect x="240" y="320" width="10" height="10" rx="2" ry="2" style="fill:#552048" />
<rect x="260" y="320" width="130" height="10" rx="2" ry="2" style="fill:#552048" />
<rect x="400" y="320" width="10" height="10" rx="2" ry="2" style="fill:#552048" />
<rect x="120" y="330" width="10" height="10" rx="2" ry="2" style="fill:#552048" />
<rect x="170" y="330" width="10" height="10" rx="2" ry="2" style="fill:#552048" />
<rect x="190" y="330" width="20" height="10" rx="2" ry="2" style="fill:#552048" />
<rect x="240" y="330" width="20" height="10" rx="2" ry="2" style="fill:#552048" />
<rect x="270" y="330" width="20" height="10" rx="2" ry="2" style="fill:#552048" />
<rect x="310" y="330" width="20" height="10" rx="2" ry="2" style="fill:#552048" />
<rect x="360" y="330" width="10" height="10" rx="2" ry="2" style="fill:#552048" />
<rect x="140" y="340" width="10" height="10" rx="2" ry="2" style="fill:#552048" />
<rect x="180" y="340" width="50" height="10" rx="2" ry="2" style="fill:#552048" />
<rect x="240" y="340" width="20" height="10" rx="2" ry="2" style="fill:#552048" />
<rect x="280" y="340" width="10" height="10" rx="2" ry="2" style="fill:#552048" />
<rect x="300" y="340" width="10" height="10" rx="2" ry="2" style="fill:#552048" />
<rect x="320" y="340" width="10" height="10" rx="2" ry="2" style="fill:#552048" />
<rect x="340" y="340" width="10" height="10" rx="2" ry="2" style="fill:#552048" />
<rect x="360" y="340" width="10" height="10" rx="2" ry="2" style="fill:#552048" />
<rect x="390" y="340" width="20" height="10" rx="2" ry="2" style="fill:#552048" />
<rect x="150" y="350" width="30" height="10" rx="2" ry="2" style="fill:#552048" />
<rect x="190" y="350" width="20" height="10" rx="2" ry="2" style="fill:#552048" />
<rect x="220" y="350" width="20" height="10" rx="2" ry="2" style="fill:#552048" />
<rect x="260" y="350" width="30" height="10" rx="2" ry="2" style="fill:#552048" />
<rect x="300" y="350" width="10" height="10" rx="2" ry="2" style="fill:#552048" />
<rect x="320" y="350" width="10" height="10" rx="2" ry="2" style="fill:#552048" />
<rect x="360" y="350" width="10" height="10" rx="2" ry="2" style="fill:#552048" />
<rect x="390" y="350" width="10" height="10" rx="2" ry="2" style="fill:#552048" />
<rect x="120" y="360" width="10" height="10" rx="2" ry="2" style="fill:#552048" />
<rect x="140" y="360" width="10" height="10" rx="2" ry="2" style="fill:#552048" />
<rect x="170" y="360" width="20" height="10" rx="2" ry="2" style="fill:#552048" />
<rect x="200" y="360" width="10" height="10" rx="2" ry="2" style="fill:#552048" />
<rect x="240" y="360" width="20" height="10" rx="2" ry="2" style="fill:#552048" />
<rect x="280" y="360" width="90" height="10" rx="2" ry="2" style="fill:#552048" />
<rect x="380" y="360" width="20" height="10" rx="2" ry="2" style="fill:#552048" />
<rect x="120" y="370" width="30" height="10" rx="2" ry="2" style="fill:#552048" />
<rect x="170" y="370" width="20" height="10" rx="2" ry="2" style="fill:#552048" />
<rect x="210" y="370" width="50" height="10" rx="2" ry="2" style="fill:#552048" />
<rect x="270" y="370" width="10" height="10" rx="2" ry="2" style="fill:#552048" />
<rect x="300" y="370" width="20" height="10" rx="2" ry="2" style="fill:#552048" />
<rect x="330" y="370" width="20" height="10" rx="2" ry="2" style="fill:#552048" />
<rect x="360" y="370" width="20" height="10" rx="2" ry="2" style="fill:#552048" />
<rect x="120" y="380" width="10" height="10" rx="2" ry="2" style="fill:#552048" />
<rect x="150" y="380" width="10" height="10" rx="2" ry="2" style="fill:#552048" />
<rect x="190" y="380" width="20" height="10" rx="2" ry="2" style="fill:#552048" />
<rect x="230" y="380" width="30" height="10" rx="2" ry="2" style="fill:#552048" />
<rect x="330" y="380" width="30" height="10" rx="2" ry="2" style="fill:#552048" />
<rect x="370" y="380" width="10" height="10" rx="2" ry="2" style="fill:#552048" />
<rect x="400" y="380" width="10" height="10" rx="2" ry="2" style="fill:#552048" />
<rect x="150" y="390" width="30" height="10" rx="2" ry="2" style="fill:#552048" />
<rect x="190" y="390" width="10" height="10" rx="2" ry="2" style="fill:#552048" />
<rect x="220" y="390" width="40" height="10" rx="2" ry="2" style="fill:#552048" />
<rect x="270" y="390" width="10" height="10" rx="2" ry="2" style="fill:#552048" />
<rect x="300" y="390" width="30" height="10" rx="2" ry="2" style="fill:#552048" />
<rect x="340" y="390" width="10" height="10" rx="2" ry="2" style="fill:#552048" />
<rect x="360" y="390" width="10" height="10" rx="2" ry="2" style="fill:#552048" />
<rect x="400" y="390" width="10" height="10" rx="2" ry="2" style="fill:#552048" />
<rect x="130" y="400" width="10" height="10" rx="2" ry="2" style="fill:#552048" />
<rect x="150" y="400" width="20" height="10" rx="2" ry="2" style="fill:#552048" />
<rect x="220" y="400" width="10" height="10" rx="2" ry="2" style="fill:#552048" />
<rect x="260" y="400" width="20" height="10" rx="2" ry="2" style="fill:#552048" />
<rect x="300" y="400" width="10" height="10" rx="2" ry="2" style="fill:#552048" />
<rect x="330" y="400" width="50" height="10" rx="2" ry="2" style="fill:#552048" />
<rect x="390" y="400" width="20" height="10" rx="2" ry="2" style="fill:#552048" />
<rect x="40" y="40" width="70" height="10" style="fill:#552048" />
<rect x="40" y="100" width="70" height="10" style="fill:#552048" />
<rect x="40" y="40" width="10" height="70" style="fill:#552048" />
<rect x="100" y="40" width="10" height="70" style="fill:#552048" />
<rect x="60" y="60" width="30" height="30" style="fill:#552048" />
<rect x="340" y="40" width="70" height="10" style="fill:#552048" />
<rect x="340" y="100" width="70" height="10" style="fill:#552048" />
<rect x="340" y="40" width="10" height="70" style="fill:#552048" />
<rect x="400" y="40" width="10" height="70" style="fill:#552048" />
<rect x="360" y="60" width="30" height="30" style="fill:#552048" />
<rect x="40" y="340" width="70" height="10" style="fill:#552048" />
<rect x="40" y="400" width="70" height="10" style="fill:#552048" />
<rect x="40" y="340" width="10" height="70" style="fill:#552048" />
<rect x="100" y="340" width="10" height="70" style="fill:#552048" />
<rect x="60" y="360" width="30" height="30" style="fill:#552048" />
</svg>
