<?xml version="1.0"?>
<!-- Generated by SVGo -->
<svg width="490" height="490"
     xmlns="http://www.w3.org/2000/svg"
     xmlns:xlink="http://www.w3.org/1999/xlink">
<rect x="0" y="0" width="490" height="490" style="fill:#f8f2ec" />
<rect x="130" y="40" width="10" height="10" rx="2" ry="2" style="fill:#552048" />
<rect x="170" y="40" width="10" height="10" rx="2" ry="2" style="fill:#552048" />
<rect x="190" y="40" width="10" height="10" rx="2" ry="2" style="fill:#552048" />
<rect x="220" y="40" width="10" height="10" rx="2" ry="2" style="fill:#552048" />
<rect x="250" y="40" width="20" height="10" rx="2" ry="2" style="fill:#552048" />
<rect x="280" y="40" width="10" height="10" rx="2" ry="2" style="fill:#552048" />
<rect x="330" y="40" width="20" height="10" rx="2" ry="2" style="fill:#552048" />
<rect x="360" y="40" width="10" height="10" rx="2" ry="2" style="fill:#552048" />
<rect x="130" y="50" width="20" height="10" rx="2" ry="2" style="fill:#552048" />
<rect x="160" y="50" width="10" height="10" rx="2" ry="2" style="fill:#552048" />
<rect x="200" y="50" width="10" height="10" rx="2" ry="2" style="fill:#552048" />
<rect x="220" y="50" width="20" height="10" rx="2" ry="2" style="fill:#552048" />
<rect x="250" y="50" width="20" height="10" rx="2" ry="2" style="fill:#552048" />
<rect x="310" y="50" width="10" height="10" rx="2" ry="2" style="fill:#552048" />
<rect x="340" y="50" width="10" height="10" rx="2" ry="2" style="fill:#552048" />
<rect x="360" y="50" width="10" height="10" rx="2" ry="2" style="fill:#552048" />
<rect x="120" y="60" width="20" height="10" rx="2" ry="2" style="fill:#552048" />
<rect x="180" y="60" width="30" height="10" rx="2" ry="2" style="fill:#552048" />
<rect x="230" y="60" width="20" height="10" rx="2" ry="2" style="fill:#552048" />
<rect x="260" y="60" width="10" height="10" rx="2" ry="2" style="fill:#552048" />
<rect x="310" y="60" width="20" height="10" rx="2" ry="2" style="fill:#552048" />
<rect x="360" y="60" width="10" height="10" rx="2" ry="2" style="fill:#552048" />
<rect x="120" y="70" width="10" height="10" rx="2" ry="2" style="fill:#552048" />
<rect x="140" y="70" width="50" height="10" rx="2" ry="2" style="fill:#552048" />
<rect x="220" y="70" width="50" height="10" rx="2" ry="2" style="fill:#552048" />
<rect x="340" y="70" width="10" height="10" rx="2" ry="2" style="fill:#552048" />
<rect x="140" y="80" width="20" height="10" rx="2" ry="2" style="fill:#552048" />
<rect x="170" y="80" width="20" height="10" rx="2" ry="2" style="fill:#552048" />
<rect x="210" y="80" width="10" height="10" rx="2" ry="2" style="fill:#552048" />
<rect x="240" y="80" width="10" height="10" rx="2" ry="2" style="fill:#552048" />
<rect x="260" y="80" width="20" height="10" rx="2" ry="2" style="fill:#552048" />
<rect x="300" y="80" width="10" height="10" rx="2" ry="2" style="fill:#552048" />
<rect x="320" y="80" width="10" height="10" rx="2" ry="2" style="fill:#552048" />
<rect x="350" y="80" width="10" height="10" rx="2" ry="2" style="fill:#552048" />
<rect x="130" y="90" width="30" height="10" rx="2" ry="2" style="fill:#552048" />
<rect x="190" y="90" width="10" height="10" rx="2" ry="2" style="fill:#552048" />
<rect x="220" y="90" width="10" height="10" rx="2" ry="2" style="fill:#552048" />
<rect x="250" y="90" width="10" height="10" rx="2" ry="2" style="fill:#552048" />
<rect x="270" y="90" width="10" height="10" rx="2" ry="2" style="fill:#552048" />
<rect x="290" y="90" width="20" height="10" rx="2" ry="2" style="fill:#552048" />
<rect x="330" y="90" width="20" height="10" rx="2" ry="2" style="fill:#552048" />
<rect x="360" y="90" width="10" height="10" rx="2" ry="2" style="fill:#552048" />
<rect x="120" y="100" width="10" height="10" rx="2" ry="2" style="fill:#552048" />
<rect x="140" y="100" width="10" height="10" rx="2" ry="2" style="fill:#552048" />
<rect x="160" y="100" width="10" height="10" rx="2" ry="2" style="fill:#552048" />
<rect x="180" y="100" width="10" height="10" rx="2" ry="2" style="fill:#552048" />
<rect x="200" y="100" width="10" height="10" rx="2" ry="2" style="fill:#552048" />
<rect x="220" y="100" width="10" height="10" rx="2" ry="2" style="fill:#552048" />
<rect x="240" y="100" width="10" height="10" rx="2" ry="2" style="fill:#552048" />
<rect x="260" y="100" width="10" height="10" rx="2" ry="2" style="fill:#552048" />
<rect x="280" y="100" width="10" height="10" rx="2" ry="2" style="fill:#552048" />
<rect x="300" y="100" width="10" height="10" rx="2" ry="2" style="fill:#552048" />
<rect x="320" y="100" width="10" height="10" rx="2" ry="2" style="fill:#552048" />
<rect x="340" y="100" width="10" height="10" rx="2" ry="2" style="fill:#552048" />
<rect x="360" y="100" width="10" height="10" rx="2" ry="2" style="fill:#552048" />
<rect x="140" y="110" width="10" height="10" rx="2" ry="2" style="fill:#552048" />
<rect x="160" y="110" width="10" height="10" rx="2" ry="2" style="fill:#552048" />
<rect x="220" y="110" width="10" height="10" rx="2" ry="2" style="fill:#552048" />
<rect x="280" y="110" width="10" height="10" rx="2" ry="2" style="fill:#552048" />
<rect x="300" y="110" width="30" height="10" rx="2" ry="2" style="fill:#552048" />
<rect x="340" y="110" width="10" height="10" rx="2" ry="2" style="fill:#552048" />
<rect x="70" y="120" width="20" height="10" rx="2" ry="2" style="fill:#552048" />
<rect x="100" y="120" width="20" height="10" rx="2" ry="2" style="fill:#552048" />
<rect x="150" y="120" width="20" height="10" rx="2" ry="2" style="fill:#552048" />
<rect x="180" y="120" width="20" height="10" rx="2" ry="2" style="fill:#552048" />
<rect x="220" y="120" width="30" height="10" rx="2" ry="2" style="fill:#552048" />
<rect x="280" y="120" width="10" height="10" rx="2" ry="2" style="fill:#552048" />
<rect x="320" y="120" width="30" height="10" rx="2" ry="2" style="fill:#552048" />
<rect x="360" y="120" width="10" height="10" rx="2" ry="2" style="fill:#552048" />
<rect x="410" y="120" width="20" height="10" rx="2" ry="2" style="fill:#552048" />
<rect x="60" y="130" width="10" height="10" rx="2" ry="2" style="fill:#552048" />
<rect x="80" y="130" width="20" height="10" rx="2" ry="2" style="fill:#552048" />
<rect x="110" y="130" width="20" height="10" rx="2" ry="2" style="fill:#552048" />
<rect x="140" y="130" width="50" height="10" rx="2" ry="2" style="fill:#552048" />
<rect x="200" y="130" width="20" height="10" rx="2" ry="2" style="fill:#552048" />
<rect x="230" y="130" width="30" height="10" rx="2" ry="2" style="fill:#552048" />
<rect x="310" y="130" width="20" height="10" rx="2" ry="2" style="fill:#552048" />
<rect x="340" y="130" width="20" height="10" rx="2" ry="2" style="fill:#552048" />
<rect x="400" y="130" width="10" height="10" rx="2" ry="2" style="fill:#552048" />
<rect x="440" y="130" width="10" height="10" rx="2" ry="2" style="fill:#552048" />
<rect x="60" y="140" width="30" height="10" rx="2" ry="2" style="fill:#552048" />
<rect x="100" y="140" width="20" height="10" rx="2" ry="2" style="fill:#552048" />
<rect x="140" y="140" width="10" height="10" rx="2" ry="2" style="fill:#552048" />
<rect x="170" y="140" width="10" height="10" rx="2" ry="2" style="fill:#552048" />
<rect x="190" y="140" width="10" height="10" rx="2" ry="2" style="fill:#552048" />
<rect x="210" y="140" width="60" height="10" rx="2" ry="2" style="fill:#552048" />
<rect x="280" y="140" width="50" height="10" rx="2" ry="2" style="fill:#552048" />
<rect x="340" y="140" width="10" height="10" rx="2" ry="2" style="fill:#552048" />
<rect x="370" y="140" width="10" height="10" rx="2" ry="2" style="fill:#552048" />
<rect x="420" y="140" width="20" height="10" rx="2" ry="2" style="fill:#552048" />
<rect x="40" y="150" width="10" height="10" rx="2" ry="2" style="fill:#552048" />
<rect x="80" y="150" width="20" height="10" rx="2" ry="2" style="fill:#552048" />
<rect x="130" y="150" width="30" height="10" rx="2" ry="2" style="fill:#552048" />
<rect x="170" y="150" width="10" height="10" rx="2" ry="2" style="fill:#552048" />
<rect x="240" y="150" width="10" height="10" rx="2" ry="2" style="fill:#552048" />
<rect x="300" y="150" width="10" height="10" rx="2" ry="2" style="fill:#552048" />
<rect x="330" y="150" width="90" height="10" rx="2" ry="2" style="fill:#552048" />
<rect x="440" y="150" width="10" height="10" rx="2" ry="2" style="fill:#552048" />
<rect x="40" y="160" width="10" height="10" rx="2" ry="2" style="fill:#552048" />
<rect x="100" y="160" width="10" height="10" rx="2" ry="2" style="fill:#552048" />
<rect x="120" y="160" width="40" height="10" rx="2" ry="2" style="fill:#552048" />
<rect x="170" y="160" width="40" height="10" rx="2" ry="2" style="fill:#552048" />
<rect x="230" y="160" width="10" height="10" rx="2" ry="2" style="fill:#552048" />
<rect x="250" y="160" width="20" height="10" rx="2" ry="2" style="fill:#552048" />
<rect x="360" y="160" width="40" height="10" rx="2" ry="2" style="fill:#552048" />
<rect x="430" y="160" width="10" height="10" rx="2" ry="2" style="fill:#552048" />
<rect x="40" y="170" width="10" height="10" rx="2" ry="2" style="fill:#552048" />
<rect x="60" y="170" width="30" height="10" rx="2" ry="2" style="fill:#552048" />
<rect x="110" y="170" width="20" height="10" rx="2" ry="2" style="fill:#552048" />
<rect x="140" y="170" width="10" height="10" rx="2" ry="2" style="fill:#552048" />
<rect x="160" y="170" width="10" height="10" rx="2" ry="2" style="fill:#552048" />
<rect x="180" y="170" width="30" height="10" rx="2" ry="2" style="fill:#552048" />
<rect x="220" y="170" width="10" height="10" rx="2" ry="2" style="fill:#552048" />
<rect x="240" y="170" width="10" height="10" rx="2" ry="2" style="fill:#552048" />
<rect x="260" y="170" width="10" height="10" rx="2" ry="2" style="fill:#552048" />
<rect x="300" y="170" width="10" height="10" rx="2" ry="2" style="fill:#552048" />
<rect x="350" y="170" width="10" height="10" rx="2" ry="2" style="fill:#552048" />
<rect x="370" y="170" width="10" height="10" rx="2" ry="2" style="fill:#552048" />
<rect x="390" y="170" width="20" height="10" rx="2" ry="2" style="fill:#552048" />
<rect x="420" y="170" width="10" height="10" rx="2" ry="2" style="fill:#552048" />
<rect x="440" y="170" width="10" height="10" rx="2" ry="2" style="fill:#552048" />
<rect x="40" y="180" width="30" height="10" rx="2" ry="2" style="fill:#552048" />
<rect x="90" y="180" width="20" height="10" rx="2" ry="2" style="fill:#552048" />
<rect x="120" y="180" width="10" height="10" rx="2" ry="2" style="fill:#552048" />
<rect x="140" y="180" width="30" height="10" rx="2" ry="2" style="fill:#552048" />
<rect x="180" y="180" width="30" height="10" rx="2" ry="2" style="fill:#552048" />
<rect x="250" y="180" width="10" height="10" rx="2" ry="2" style="fill:#552048" />
<rect x="270" y="180" width="10" height="10" rx="2" ry="2" style="fill:#552048" />
<rect x="310" y="180" width="10" height="10" rx="2" ry="2" style="fill:#552048" />
<rect x="330" y="180" width="20" height="10" rx="2" ry="2" style="fill:#552048" />
<rect x="370" y="180" width="50" height="10" rx="2" ry="2" style="fill:#552048" />
<rect x="440" y="180" width="10" height="10" rx="2" ry="2" style="fill:#552048" />
<rect x="40" y="190" width="10" height="10" rx="2" ry="2" style="fill:#552048" />
<rect x="60" y="190" width="10" height="10" rx="2" ry="2" style="fill:#552048" />
<rect x="120" y="190" width="10" height="10" rx="2" ry="2" style="fill:#552048" />
<rect x="140" y="190" width="10" height="10" rx="2" ry="2" style="fill:#552048" />
<rect x="190" y="190" width="50" height="10" rx="2" ry="2" style="fill:#552048" />
<rect x="290" y="190" width="10" height="10" rx="2" ry="2" style="fill:#552048" />
<rect x="320" y="190" width="10" height="10" rx="2" ry="2" style="fill:#552048" />
<rect x="350" y="190" width="10" height="10" rx="2" ry="2" style="fill:#552048" />
<rect x="370" y="190" width="10" height="10" rx="2" ry="2" style="fill:#552048" />
<rect x="410" y="190" width="20" height="10" rx="2" ry="2" style="fill:#552048" />
<rect x="440" y="190" width="10" height="10" rx="2" ry="2" style="fill:#552048" />
<rect x="40" y="200" width="40" height="10" rx="2" ry="2" style="fill:#552048" />
<rect x="90" y="200" width="20" height="10" rx="2" ry="2" style="fill:#552048" />
<rect x="120" y="200" width="40" height="10" rx="2" ry="2" style="fill:#552048" />
<rect x="180" y="200" width="40" height="10" rx="2" ry="2" style="fill:#552048" />
<rect x="240" y="200" width="10" height="10" rx="2" ry="2" style="fill:#552048" />
<rect x="260" y="200" width="10" height="10" rx="2" ry="2" style="fill:#552048" />
<rect x="280" y="200" width="10" height="10" rx="2" ry="2" style="fill:#552048" />
<rect x="310" y="200" width="70" height="10" rx="2" ry="2" style="fill:#552048" />
<rect x="410" y="200" width="10" height="10" rx="2" ry="2" style="fill:#552048" />
<rect x="50" y="210" width="10" height="10" rx="2" ry="2" style="fill:#552048" />
<rect x="80" y="210" width="10" height="10" rx="2" ry="2" style="fill:#552048" />
<rect x="110" y="210" width="40" height="10" rx="2" ry="2" style="fill:#552048" />
<rect x="160" y="210" width="10" height="10" rx="2" ry="2" style="fill:#552048" />
<rect x="210" y="210" width="20" height="10" rx="2" ry="2" style="fill:#552048" />
<rect x="270" y="210" width="40" height="10" rx="2" ry="2" style="fill:#552048" />
<rect x="320" y="210" width="10" height="10" rx="2" ry="2" style="fill:#552048" />
<rect x="340" y="210" width="10" height="10" rx="2" ry="2" style="fill:#552048" />
<rect x="360" y="210" width="20" height="10" rx="2" ry="2" style="fill:#552048" />
<rect x="400" y="210" width="10" height="10" rx="2" ry="2" style="fill:#552048" />
<rect x="430" y="210" width="10" height="10" rx="2" ry="2" style="fill:#552048" />
<rect x="40" y="220" width="10" height="10" rx="2" ry="2" style="fill:#552048" />
<rect x="80" y="220" width="10" height="10" rx="2" ry="2" style="fill:#552048" />
<rect x="100" y="220" width="10" height="10" rx="2" ry="2" style="fill:#552048" />
<rect x="130" y="220" width="20" height="10" rx="2" ry="2" style="fill:#552048" />
<rect x="190" y="220" width="10" height="10" rx="2" ry="2" style="fill:#552048" />
<rect x="240" y="220" width="10" height="10" rx="2" ry="2" style="fill:#552048" />
<rect x="260" y="220" width="20" height="10" rx="2" ry="2" style="fill:#552048" />
<rect x="290" y="220" width="10" height="10" rx="2" ry="2" style="fill:#552048" />
<rect x="320" y="220" width="10" height="10" rx="2" ry="2" style="fill:#552048" />
<rect x="360" y="220" width="50" height="10" rx="2" ry="2" style="fill:#552048" />
<rect x="420" y="220" width="10" height="10" rx="2" ry="2" style="fill:#552048" />
<rect x="440" y="220" width="10" height="10" rx="2" ry="2" style="fill:#552048" />
<rect x="50" y="230" width="20" height="10" rx="2" ry="2" style="fill:#552048" />
<rect x="80" y="230" width="20" height="10" rx="2" ry="2" style="fill:#552048" />
<rect x="110" y="230" width="30" height="10" rx="2" ry="2" style="fill:#552048" />
<rect x="150" y="230" width="10" height="10" rx="2" ry="2" style="fill:#552048" />
<rect x="170" y="230" width="20" height="10" rx="2" ry="2" style="fill:#552048" />
<rect x="200" y="230" width="10" height="10" rx="2" ry="2" style="fill:#552048" />
<rect x="230" y="230" width="40" height="10" rx="2" ry="2" style="fill:#552048" />
<rect x="290" y="230" width="30" height="10" rx="2" ry="2" style="fill:#552048" />
<rect x="330" y="230" width="30" height="10" rx="2" ry="2" style="fill:#552048" />
<rect x="370" y="230" width="20" height="10" rx="2" ry="2" style="fill:#552048" />
<rect x="400" y="230" width="10" height="10" rx="2" ry="2" style="fill:#552048" />
<rect x="420" y="230" width="20" height="10" rx="2" ry="2" style="fill:#552048" />
<rect x="40" y="240" width="20" height="10" rx="2" ry="2" style="fill:#552048" />
<rect x="100" y="240" width="10" height="10" rx="2" ry="2" style="fill:#552048" />
<rect x="120" y="240" width="20" height="10" rx="2" ry="2" style="fill:#552048" />
<rect x="170" y="240" width="10" height="10" rx="2" ry="2" style="fill:#552048" />
<rect x="200" y="240" width="10" height="10" rx="2" ry="2" style="fill:#552048" />
<rect x="220" y="240" width="10" height="10" rx="2" ry="2" style="fill:#552048" />
<rect x="260" y="240" width="50" height="10" rx="2" ry="2" style="fill:#552048" />
<rect x="320" y="240" width="10" height="10" rx="2" ry="2" style="fill:#552048" />
<rect x="380" y="240" width="10" height="10" rx="2" ry="2" style="fill:#552048" />
<rect x="400" y="240" width="10" height="10" rx="2" ry="2" style="fill:#552048" />
<rect x="420" y="240" width="20" height="10" rx="2" ry="2" style="fill:#552048" />
<rect x="40" y="250" width="30" height="10" rx="2" ry="2" style="fill:#552048" />
<rect x="90" y="250" width="10" height="10" rx="2" ry="2" style="fill:#552048" />
<rect x="130" y="250" width="10" height="10" rx="2" ry="2" style="fill:#552048" />
<rect x="150" y="250" width="10" height="10" rx="2" ry="2" style="fill:#552048" />
<rect x="170" y="250" width="20" height="10" rx="2" ry="2" style="fill:#552048" />
<rect x="200" y="250" width="20" height="10" rx="2" ry="2" style="fill:#552048" />
<rect x="230" y="250" width="10" height="10" rx="2" ry="2" style="fill:#552048" />
<rect x="270" y="250" width="20" height="10" rx="2" ry="2" style="fill:#552048" />
<rect x="310" y="250" width="50" height="10" rx="2" ry="2" style="fill:#552048" />
<rect x="390" y="250" width="10" height="10" rx="2" ry="2" style="fill:#552048" />
<rect x="410" y="250" width="10" height="10" rx="2" ry="2" style="fill:#552048" />
<rect x="40" y="260" width="10" height="10" rx="2" ry="2" style="fill:#552048" />
<rect x="60" y="260" width="20" height="10" rx="2" ry="2" style="fill:#552048" />
<rect x="100" y="260" width="10" height="10" rx="2" ry="2" style="fill:#552048" />
<rect x="120" y="260" width="40" height="10" rx="2" ry="2" style="fill:#552048" />
<rect x="170" y="260" width="10" height="10" rx="2" ry="2" style="fill:#552048" />
<rect x="200" y="260" width="10" height="10" rx="2" ry="2" style="fill:#552048" />
<rect x="240" y="260" width="10" height="10" rx="2" ry="2" style="fill:#552048" />
<rect x="270" y="260" width="20" height="10" rx="2" ry="2" style="fill:#552048" />
<rect x="300" y="260" width="20" height="10" rx="2" ry="2" style="fill:#552048" />
<rect x="360" y="260" width="10" height="10" rx="2" ry="2" style="fill:#552048" />
<rect x="380" y="260" width="20" height="10" rx="2" ry="2" style="fill:#552048" />
<rect x="50" y="270" width="10" height="10" rx="2" ry="2" style="fill:#552048" />
<rect x="70" y="270" width="20" height="10" rx="2" ry="2" style="fill:#552048" />
<rect x="110" y="270" width="30" height="10" rx="2" ry="2" style="fill:#552048" />
<rect x="150" y="270" width="10" height="10" rx="2" ry="2" style="fill:#552048" />
<rect x="170" y="270" width="40" height="10" rx="2" ry="2" style="fill:#552048" />
<rect x="240" y="270" width="10" height="10" rx="2" ry="2" style="fill:#552048" />
<rect x="270" y="270" width="10" height="10" rx="2" ry="2" style="fill:#552048" />
<rect x="310" y="270" width="10" height="10" rx="2" ry="2" style="fill:#552048" />
<rect x="330" y="270" width="50" height="10" rx="2" ry="2" style="fill:#552048" />
<rect x="410" y="270" width="30" height="10" rx="2" ry="2" style="fill:#552048" />
<rect x="80" y="280" width="10" height="10" rx="2" ry="2" style="fill:#552048" />
<rect x="100" y="280" width="30" height="10" rx="2" ry="2" style="fill:#552048" />
<rect x="180" y="280" width="10" height="10" rx="2" ry="2" style="fill:#552048" />
<rect x="200" y="280" width="30" height="10" rx="2" ry="2" style="fill:#552048" />
<rect x="240" y="280" width="20" height="10" rx="2" ry="2" style="fill:#552048" />
<rect x="290" y="280" width="20" height="10" rx="2" ry="2" style="fill:#552048" />
<rect x="320" y="280" width="10" height="10" rx="2" ry="2" style="fill:#552048" />
<rect x="360" y="280" width="30" height="10" rx="2" ry="2" style="fill:#552048" />
<rect x="410" y="280" width="40" height="10" rx="2" ry="2" style="fill:#552048" />
<rect x="50" y="290" width="20" height="10" rx="2" ry="2" style="fill:#552048" />
<rect x="140" y="290" width="30" height="10" rx="2" ry="2" style="fill:#552048" />
<rect x="180" y="290" width="20" height="10" rx="2" ry="2" style="fill:#552048" />
<rect x="210" y="290" width="10" height="10" rx="2" ry="2" style="fill:#552048" />
<rect x="250" y="290" width="30" height="10" rx="2" ry="2" style="fill:#552048" />
<rect x="300" y="290" width="30" height="10" rx="2" ry="2" style="fill:#552048" />
<rect x="340" y="290" width="10" height="10" rx="2" ry="2" style="fill:#552048" />
<rect x="360" y="290" width="20" height="10" rx="2" ry="2" style="fill:#552048" />
<rect x="390" y="290" width="20" height="10" rx="2" ry="2" style="fill:#552048" />
<rect x="420" y="290" width="10" height="10" rx="2" ry="2" style="fill:#552048" />
<rect x="40" y="300" width="10" height="10" rx="2" ry="2" style="fill:#552048" />
<rect x="60" y="300" width="10" height="10" rx="2" ry="2" style="fill:#552048" />
<rect x="90" y="300" width="20" height="10" rx="2" ry="2" style="fill:#552048" />
<rect x="150" y="300" width="30" height="10" rx="2" ry="2" style="fill:#552048" />
<rect x="190" y="300" width="10" height="10" rx="2" ry="2" style="fill:#552048" />
<rect x="210" y="300" width="40" height="10" rx="2" ry="2" style="fill:#552048" />
<rect x="270" y="300" width="10" height="10" rx="2" ry="2" style="fill:#552048" />
<rect x="290" y="300" width="10" height="10" rx="2" ry="2" style="fill:#552048" />
<rect x="310" y="300" width="10" height="10" rx="2" ry="2" style="fill:#552048" />
<rect x="350" y="300" width="20" height="10" rx="2" ry="2" style="fill:#552048" />
<rect x="390" y="300" width="30" height="10" rx="2" ry="2" style="fill:#552048" />
<rect x="430" y="300" width="10" height="10" rx="2" ry="2" style="fill:#552048" />
<rect x="40" y="310" width="10" height="10" rx="2" ry="2" style="fill:#552048" />
<rect x="60" y="310" width="20" height="10" rx="2" ry="2" style="fill:#552048" />
<rect x="90" y="310" width="10" height="10" rx="2" ry="2" style="fill:#552048" />
<rect x="130" y="310" width="20" height="10" rx="2" ry="2" style="fill:#552048" />
<rect x="160" y="310" width="10" height="10" rx="2" ry="2" style="fill:#552048" />
<rect x="200" y="310" width="20" height="10" rx="2" ry="2" style="fill:#552048" />
<rect x="230" y="310" width="20" height="10" rx="2" ry="2" style="fill:#552048" />
<rect x="310" y="310" width="10" height="10" rx="2" ry="2" style="fill:#552048" />
<rect x="340" y="310" width="20" height="10" rx="2" ry="2" style="fill:#552048" />
<rect x="390" y="310" width="60" height="10" rx="2" ry="2" style="fill:#552048" />
<rect x="40" y="320" width="20" height="10" rx="2" ry="2" style="fill:#552048" />
<rect x="70" y="320" width="20" height="10" rx="2" ry="2" style="fill:#552048" />
<rect x="100" y="320" width="10" height="10" rx="2" ry="2" style="fill:#552048" />
<rect x="130" y="320" width="40" height="10" rx="2" ry="2" style="fill:#552048" />
<rect x="190" y="320" width="10" height="10" rx="2" ry="2" style="fill:#552048" />
<rect x="220" y="320" width="10" height="10" rx="2" ry="2" style="fill:#552048" />
<rect x="250" y="320" width="30" height="10" rx="2" ry="2" style="fill:#552048" />
<rect x="300" y="320" width="10" height="10" rx="2" ry="2" style="fill:#552048" />
<rect x="350" y="320" width="10" height="10" rx="2" ry="2" style="fill:#552048" />
<rect x="380" y="320" width="20" height="10" rx="2" ry="2" style="fill:#552048" />
<rect x="410" y="320" width="10" height="10" rx="2" ry="2" style="fill:#552048" />
<rect x="430" y="320" width="20" height="10" rx="2" ry="2" style="fill:#552048" />
<rect x="40" y="330" width="40" height="10" rx="2" ry="2" style="fill:#552048" />
<rect x="90" y="330" width="10" height="10" rx="2" ry="2" style="fill:#552048" />
<rect x="150" y="330" width="30" height="10" rx="2" ry="2" style="fill:#552048" />
<rect x="200" y="330" width="50" height="10" rx="2" ry="2" style="fill:#552048" />
<rect x="280" y="330" width="20" height="10" rx="2" ry="2" style="fill:#552048" />
<rect x="330" y="330" width="20" height="10" rx="2" ry="2" style="fill:#552048" />
<rect x="380" y="330" width="10" height="10" rx="2" ry="2" style="fill:#552048" />
<rect x="400" y="330" width="10" height="10" rx="2" ry="2" style="fill:#552048" />
<rect x="430" y="330" width="10" height="10" rx="2" ry="2" style="fill:#552048" />
<rect x="40" y="340" width="30" height="10" rx="2" ry="2" style="fill:#552048" />
<rect x="90" y="340" width="20" height="10" rx="2" ry="2" style="fill:#552048" />
<rect x="120" y="340" width="10" height="10" rx="2" ry="2" style="fill:#552048" />
<rect x="140" y="340" width="20" height="10" rx="2" ry="2" style="fill:#552048" />
<rect x="170" y="340" width="30" height="10" rx="2" ry="2" style="fill:#552048" />
<rect x="240" y="340" width="40" height="10" rx="2" ry="2" style="fill:#552048" />
<rect x="290" y="340" width="10" height="10" rx="2" ry="2" style="fill:#552048" />
<rect x="320" y="340" width="40" height="10" rx="2" ry="2" style="fill:#552048" />
<rect x="370" y="340" width="10" height="10" rx="2" ry="2" style="fill:#552048" />
<rect x="390" y="340" width="10" height="10" rx="2" ry="2" style="fill:#552048" />
<rect x="440" y="340" width="10" height="10" rx="2" ry="2" style="fill:#552048" />
<rect x="40" y="350" width="50" height="10" rx="2" ry="2" style="fill:#552048" />
<rect x="130" y="350" width="10" height="10" rx="2" ry="2" style="fill:#552048" />
<rect x="150" y="350" width="20" height="10" rx="2" ry="2" style="fill:#552048" />
<rect x="180" y="350" width="10" height="10" rx="2" ry="2" style="fill:#552048" />
<rect x="220" y="350" width="10" height="10" rx="2" ry="2" style="fill:#552048" />
<rect x="240" y="350" width="10" height="10" rx="2" ry="2" style="fill:#552048" />
<rect x="300" y="350" width="70" height="10" rx="2" ry="2" style="fill:#552048" />
<rect x="380" y="350" width="20" height="10" rx="2" ry="2" style="fill:#552048" />
<rect x="420" y="350" width="30" height="10" rx="2" ry="2" style="fill:#552048" />
<rect x="40" y="360" width="40" height="10" rx="2" ry="2" style="fill:#552048" />
<rect x="90" y="360" width="30" height="10" rx="2" ry="2" style="fill:#552048" />
<rect x="130" y="360" width="10" height="10" rx="2" ry="2" style="fill:#552048" />
<rect x="150" y="360" width="40" height="10" rx="2" ry="2" style="fill:#552048" />
<rect x="200" y="360" width="10" height="10" rx="2" ry="2" style="fill:#552048" />
<rect x="250" y="360" width="10" height="10" rx="2" ry="2" style="fill:#552048" />
<rect x="270" y="360" width="10" height="10" rx="2" ry="2" style="fill:#552048" />
<rect x="290" y="360" width="10" height="10" rx="2" ry="2" style="fill:#552048" />
<rect x="320" y="360" width="10" height="10" rx="2" ry="2" style="fill:#552048" />
<rect x="340" y="360" width="80" height="10" rx="2" ry="2" style="fill:#552048" />
<rect x="430" y="360" width="20" height="10" rx="2" ry="2" style="fill:#552048" />
<rect x="120" y="370" width="10" height="10" rx="2" ry="2" style="fill:#552048" />
<rect x="140" y="370" width="10" height="10" rx="2" ry="2" style="fill:#552048" />
<rect x="180" y="370" width="40" height="10" rx="2" ry="2" style="fill:#552048" />
<rect x="260" y="370" width="20" height="10" rx="2" ry="2" style="fill:#552048" />
<rect x="290" y="370" width="20" height="10" rx="2" ry="2" style="fill:#552048" />
<rect x="320" y="370" width="10" height="10" rx="2" ry="2" style="fill:#552048" />
<rect x="360" y="370" width="10" height="10" rx="2" ry="2" style="fill:#552048" />
<rect x="400" y="370" width="30" height="10" rx="2" ry="2" style="fill:#552048" />
<rect x="440" y="370" width="10" height="10" rx="2" ry="2" style="fill:#552048" />
<rect x="120" y="380" width="20" height="10" rx="2" ry="2" style="fill:#552048" />
<rect x="160" y="380" width="10" height="10" rx="2" ry="2" style="fill:#552048" />
<rect x="180" y="380" width="20" height="10" rx="2" ry="2" style="fill:#552048" />
<rect x="230" y="380" width="10" height="10" rx="2" ry="2" style="fill:#552048" />
<rect x="260" y="380" width="20" height="10" rx="2" ry="2" style="fill:#552048" />
<rect x="290" y="380" width="60" height="10" rx="2" ry="2" style="fill:#552048" />
<rect x="360" y="380" width="10" height="10" rx="2" ry="2" style="fill:#552048" />
<rect x="380" y="380" width="10" height="10" rx="2" ry="2" style="fill:#552048" />
<rect x="400" y="380" width="10" height="10" rx="2" ry="2" style="fill:#552048" />
<rect x="420" y="380" width="10" height="10" rx="2" ry="2" style="fill:#552048" />
<rect x="130" y="390" width="20" height="10" rx="2" ry="2" style="fill:#552048" />
<rect x="170" y="390" width="30" height="10" rx="2" ry="2" style="fill:#552048" />
<rect x="210" y="390" width="10" height="10" rx="2" ry="2" style="fill:#552048" />
<rect x="230" y="390" width="40" height="10" rx="2" ry="2" style="fill:#552048" />
<rect x="300" y="390" width="10" height="10" rx="2" ry="2" style="fill:#552048" />
<rect x="320" y="390" width="20" height="10" rx="2" ry="2" style="fill:#552048" />
<rect x="350" y="390" width="20" height="10" rx="2" ry="2" style="fill:#552048" />
<rect x="400" y="390" width="20" height="10" rx="2" ry="2" style="fill:#552048" />
<rect x="430" y="390" width="10" height="10" rx="2" ry="2" style="fill:#552048" />
<rect x="120" y="400" width="40" height="10" rx="2" ry="2" style="fill:#552048" />
<rect x="200" y="400" width="10" height="10" rx="2" ry="2" style="fill:#552048" />
<rect x="240" y="400" width="10" height="10" rx="2" ry="2" style="fill:#552048" />
<rect x="270" y="400" width="10" height="10" rx="2" ry="2" style="fill:#552048" />
<rect x="290" y="400" width="120" height="10" rx="2" ry="2" style="fill:#552048" />
<rect x="120" y="410" width="10" height="10" rx="2" ry="2" style="fill:#552048" />
<rect x="140" y="410" width="10" height="10" rx="2" ry="2" style="fill:#552048" />
<rect x="170" y="410" width="10" height="10" rx="2" ry="2" style="fill:#552048" />
<rect x="250" y="410" width="10" height="10" rx="2" ry="2" style="fill:#552048" />
<rect x="310" y="410" width="20" height="10" rx="2" ry="2" style="fill:#552048" />
<rect x="350" y="410" width="20" height="10" rx="2" ry="2" style="fill:#552048" />
<rect x="390" y="410" width="10" height="10" rx="2" ry="2" style="fill:#552048" />
<rect x="410" y="410" width="20" height="10" rx="2" ry="2" style="fill:#552048" />
<rect x="440" y="410" width="10" height="10" rx="2" ry="2" style="fill:#552048" />
<rect x="130" y="420" width="10" height="10" rx="2" ry="2" style="fill:#552048" />
<rect x="150" y="420" width="20" height="10" rx="2" ry="2" style="fill:#552048" />
<rect x="190" y="420" width="10" height="10" rx="2" ry="2" style="fill:#552048" />
<rect x="210" y="420" width="20" height="10" rx="2" ry="2" style="fill:#552048" />
<rect x="240" y="420" width="10" height="10" rx="2" ry="2" style="fill:#552048" />
<rect x="290" y="420" width="30" height="10" rx="2" ry="2" style="fill:#552048" />
<rect x="330" y="420" width="30" height="10" rx="2" ry="2" style="fill:#552048" />
<rect x="370" y="420" width="10" height="10" rx="2" ry="2" style="fill:#552048" />
<rect x="390" y="420" width="20" height="10" rx="2" ry="2" style="fill:#552048" />
<rect x="430" y="420" width="20" height="10" rx="2" ry="2" style="fill:#552048" />
<rect x="130" y="430" width="30" height="10" rx="2" ry="2" style="fill:#552048" />
<rect x="200" y="430" width="40" height="10" rx="2" ry="2" style="fill:#552048" />
<rect x="250" y="430" width="10" height="10" rx="2" ry="2" style="fill:#552048" />
<rect x="280" y="430" width="20" height="10" rx="2" ry="2" style="fill:#552048" />
<rect x="310" y="430" width="10" height="10" rx="2" ry="2" style="fill:#552048" />
<rect x="360" y="430" width="10" height="10" rx="2" ry="2" style="fill:#552048" />
<rect x="400" y="430" width="10" height="10" rx="2" ry="2" style="fill:#552048" />
<rect x="420" y="430" width="10" height="10" rx="2" ry="2" style="fill:#552048" />
<rect x="440" y="430" width="10" height="10" rx="2" ry="2" style="fill:#552048" />
<rect x="170" y="440" width="10" height="10" rx="2" ry="2" style="fill:#552048" />
<rect x="190" y="440" width="10" height="10" rx="2" ry="2" style="fill:#552048" />
<rect x="230" y="440" width="50" height="10" rx="2" ry="2" style="fill:#552048" />
<rect x="350" y="440" width="20" height="10" rx="2" ry="2" style="fill:#552048" />
<rect x="380" y="440" width="10" height="10" rx="2" ry="2" style="fill:#552048" />
<rect x="400" y="440" width="30" height="10" rx="2" ry="2" style="fill:#552048" />
<rect x="40" y="40" width="70" height="10" style="fill:#552048" />
<rect x="40" y="100" width="70" height="10" style="fill:#552048" />
<rect x="40" y="40" width="10" height="70" style="fill:#552048" />
<rect x="100" y="40" width="10" height="70" style="fill:#552048" />
<rect x="60" y="60" width="30" height="30" style="fill:#552048" />
<rect x="380" y="40" width="70" height="10" style="fill:#552048" />
<rect x="380" y="100" width="70" height="10" style="fill:#552048" />
<rect x="380" y="40" width="10" height="70" style="fill:#552048" />
<rect x="440" y="40" width="10" height="70" style="fill:#552048" />
<rect x="400" y="60" width="30" height="30" style="fill:#552048" />
<rect x="40" y="380" width="70" height="10" style="fill:#552048" />
<rect x="40" y="440" width="70" height="10" style="fill:#552048" />
<rect x="40" y="380" width="10" height="70" style="fill:#552048" />
<rect x="100" y="380" width="10" height="70" style="fill:#552048" />
<rect x="60" y="400" width="30" height="30" style="fill:#552048" />
</svg>
