<?xml version="1.0"?>
<!-- Generated by SVGo -->
<svg width="370" height="370"
     xmlns="http://www.w3.org/2000/svg"
     xmlns:xlink="http://www.w3.org/1999/xlink">
<rect x="0" y="0" width="370" height="370" style="fill:#f8f2ec" />
<rect x="120" y="40" width="10" height="10" rx="2" ry="2" style="fill:#552048" />
<rect x="140" y="40" width="50" height="10" rx="2" ry="2" style="fill:#552048" />
<rect x="200" y="40" width="10" height="10" rx="2" ry="2" style="fill:#552048" />
<rect x="240" y="40" width="10" height="10" rx="2" ry="2" style="fill:#552048" />
<rect x="120" y="50" width="20" height="10" rx="2" ry="2" style="fill:#552048" />
<rect x="150" y="50" width="20" height="10" rx="2" ry="2" style="fill:#552048" />
<rect x="180" y="50" width="10" height="10" rx="2" ry="2" style="fill:#552048" />
<rect x="240" y="50" width="10" height="10" rx="2" ry="2" style="fill:#552048" />
<rect x="150" y="60" width="10" height="10" rx="2" ry="2" style="fill:#552048" />
<rect x="170" y="60" width="20" height="10" rx="2" ry="2" style="fill:#552048" />
<rect x="200" y="60" width="20" height="10" rx="2" ry="2" style="fill:#552048" />
<rect x="120" y="70" width="20" height="10" rx="2" ry="2" style="fill:#552048" />
<rect x="160" y="70" width="30" height="10" rx="2" ry="2" style="fill:#552048" />
<rect x="220" y="70" width="20" height="10" rx="2" ry="2" style="fill:#552048" />
<rect x="120" y="80" width="10" height="10" rx="2" ry="2" style="fill:#552048" />
<rect x="140" y="80" width="20" height="10" rx="2" ry="2" style="fill:#552048" />
<rect x="210" y="80" width="20" height="10" rx="2" ry="2" style="fill:#552048" />
<rect x="120" y="90" width="10" height="10" rx="2" ry="2" style="fill:#552048" />
<rect x="140" y="90" width="10" height="10" rx="2" ry="2" style="fill:#552048" />
<rect x="180" y="90" width="10" height="10" rx="2" ry="2" style="fill:#552048" />
<rect x="210" y="90" width="30" height="10" rx="2" ry="2" style="fill:#552048" />
<rect x="120" y="100" width="10" height="10" rx="2" ry="2" style="fill:#552048" />
<rect x="140" y="100" width="10" height="10" rx="2" ry="2" style="fill:#552048" />
<rect x="160" y="100" width="10" height="10" rx="2" ry="2" style="fill:#552048" />
<rect x="180" y="100" width="10" height="10" rx="2" ry="2" style="fill:#552048" />
<rect x="200" y="100" width="10" height="10" rx="2" ry="2" style="fill:#552048" />
<rect x="220" y="100" width="10" height="10" rx="2" ry="2" style="fill:#552048" />
<rect x="240" y="100" width="10" height="10" rx="2" ry="2" style="fill:#552048" />
<rect x="130" y="110" width="10" height="10" rx="2" ry="2" style="fill:#552048" />
<rect x="150" y="110" width="20" height="10" rx="2" ry="2" style="fill:#552048" />
<rect x="180" y="110" width="20" height="10" rx="2" ry="2" style="fill:#552048" />
<rect x="70" y="120" width="10" height="10" rx="2" ry="2" style="fill:#552048" />
<rect x="100" y="120" width="10" height="10" rx="2" ry="2" style="fill:#552048" />
<rect x="130" y="120" width="20" height="10" rx="2" ry="2" style="fill:#552048" />
<rect x="160" y="120" width="30" height="10" rx="2" ry="2" style="fill:#552048" />
<rect x="200" y="120" width="20" height="10" rx="2" ry="2" style="fill:#552048" />
<rect x="230" y="120" width="10" height="10" rx="2" ry="2" style="fill:#552048" />
<rect x="270" y="120" width="30" height="10" rx="2" ry="2" style="fill:#552048" />
<rect x="310" y="120" width="20" height="10" rx="2" ry="2" style="fill:#552048" />
<rect x="40" y="130" width="10" height="10" rx="2" ry="2" style="fill:#552048" />
<rect x="90" y="130" width="10" height="10" rx="2" ry="2" style="fill:#552048" />
<rect x="110" y="130" width="40" height="10" rx="2" ry="2" style="fill:#552048" />
<rect x="170" y="130" width="20" height="10" rx="2" ry="2" style="fill:#552048" />
<rect x="230" y="130" width="30" height="10" rx="2" ry="2" style="fill:#552048" />
<rect x="280" y="130" width="10" height="10" rx="2" ry="2" style="fill:#552048" />
<rect x="300" y="130" width="10" height="10" rx="2" ry="2" style="fill:#552048" />
<rect x="320" y="130" width="10" height="10" rx="2" ry="2" style="fill:#552048" />
<rect x="40" y="140" width="20" height="10" rx="2" ry="2" style="fill:#552048" />
<rect x="70" y="140" width="50" height="10" rx="2" ry="2" style="fill:#552048" />
<rect x="150" y="140" width="20" height="10" rx="2" ry="2" style="fill:#552048" />
<rect x="180" y="140" width="30" height="10" rx="2" ry="2" style="fill:#552048" />
<rect x="240" y="140" width="10" height="10" rx="2" ry="2" style="fill:#552048" />
<rect x="260" y="140" width="10" height="10" rx="2" ry="2" style="fill:#552048" />
<rect x="290" y="140" width="10" height="10" rx="2" ry="2" style="fill:#552048" />
<rect x="310" y="140" width="10" height="10" rx="2" ry="2" style="fill:#552048" />
<rect x="40" y="150" width="10" height="10" rx="2" ry="2" style="fill:#552048" />
<rect x="60" y="150" width="20" height="10" rx="2" ry="2" style="fill:#552048" />
<rect x="90" y="150" width="10" height="10" rx="2" ry="2" style="fill:#552048" />
<rect x="110" y="150" width="10" height="10" rx="2" ry="2" style="fill:#552048" />
<rect x="130" y="150" width="20" height="10" rx="2" ry="2" style="fill:#552048" />
<rect x="190" y="150" width="10" height="10" rx="2" ry="2" style="fill:#552048" />
<rect x="220" y="150" width="10" height="10" rx="2" ry="2" style="fill:#552048" />
<rect x="250" y="150" width="40" height="10" rx="2" ry="2" style="fill:#552048" />
<rect x="300" y="150" width="20" height="10" rx="2" ry="2" style="fill:#552048" />
<rect x="50" y="160" width="20" height="10" rx="2" ry="2" style="fill:#552048" />
<rect x="100" y="160" width="40" height="10" rx="2" ry="2" style="fill:#552048" />
<rect x="150" y="160" width="20" height="10" rx="2" ry="2" style="fill:#552048" />
<rect x="190" y="160" width="20" height="10" rx="2" ry="2" style="fill:#552048" />
<rect x="220" y="160" width="30" height="10" rx="2" ry="2" style="fill:#552048" />
<rect x="260" y="160" width="20" height="10" rx="2" ry="2" style="fill:#552048" />
<rect x="70" y="170" width="20" height="10" rx="2" ry="2" style="fill:#552048" />
<rect x="130" y="170" width="50" height="10" rx="2" ry="2" style="fill:#552048" />
<rect x="190" y="170" width="10" height="10" rx="2" ry="2" style="fill:#552048" />
<rect x="230" y="170" width="30" height="10" rx="2" ry="2" style="fill:#552048" />
<rect x="270" y="170" width="10" height="10" rx="2" ry="2" style="fill:#552048" />
<rect x="290" y="170" width="10" height="10" rx="2" ry="2" style="fill:#552048" />
<rect x="310" y="170" width="10" height="10" rx="2" ry="2" style="fill:#552048" />
<rect x="40" y="180" width="10" height="10" rx="2" ry="2" style="fill:#552048" />
<rect x="90" y="180" width="50" height="10" rx="2" ry="2" style="fill:#552048" />
<rect x="150" y="180" width="20" height="10" rx="2" ry="2" style="fill:#552048" />
<rect x="180" y="180" width="30" height="10" rx="2" ry="2" style="fill:#552048" />
<rect x="220" y="180" width="10" height="10" rx="2" ry="2" style="fill:#552048" />
<rect x="260" y="180" width="10" height="10" rx="2" ry="2" style="fill:#552048" />
<rect x="320" y="180" width="10" height="10" rx="2" ry="2" style="fill:#552048" />
<rect x="40" y="190" width="10" height="10" rx="2" ry="2" style="fill:#552048" />
<rect x="70" y="190" width="10" height="10" rx="2" ry="2" style="fill:#552048" />
<rect x="110" y="190" width="10" height="10" rx="2" ry="2" style="fill:#552048" />
<rect x="130" y="190" width="10" height="10" rx="2" ry="2" style="fill:#552048" />
<rect x="150" y="190" width="10" height="10" rx="2" ry="2" style="fill:#552048" />
<rect x="170" y="190" width="10" height="10" rx="2" ry="2" style="fill:#552048" />
<rect x="190" y="190" width="40" height="10" rx="2" ry="2" style="fill:#552048" />
<rect x="240" y="190" width="10" height="10" rx="2" ry="2" style="fill:#552048" />
<rect x="270" y="190" width="10" height="10" rx="2" ry="2" style="fill:#552048" />
<rect x="310" y="190" width="20" height="10" rx="2" ry="2" style="fill:#552048" />
<rect x="50" y="200" width="10" height="10" rx="2" ry="2" style="fill:#552048" />
<rect x="70" y="200" width="60" height="10" rx="2" ry="2" style="fill:#552048" />
<rect x="160" y="200" width="40" height="10" rx="2" ry="2" style="fill:#552048" />
<rect x="210" y="200" width="20" height="10" rx="2" ry="2" style="fill:#552048" />
<rect x="280" y="200" width="10" height="10" rx="2" ry="2" style="fill:#552048" />
<rect x="310" y="200" width="20" height="10" rx="2" ry="2" style="fill:#552048" />
<rect x="60" y="210" width="40" height="10" rx="2" ry="2" style="fill:#552048" />
<rect x="150" y="210" width="10" height="10" rx="2" ry="2" style="fill:#552048" />
<rect x="170" y="210" width="10" height="10" rx="2" ry="2" style="fill:#552048" />
<rect x="230" y="210" width="20" height="10" rx="2" ry="2" style="fill:#552048" />
<rect x="300" y="210" width="30" height="10" rx="2" ry="2" style="fill:#552048" />
<rect x="40" y="220" width="10" height="10" rx="2" ry="2" style="fill:#552048" />
<rect x="60" y="220" width="10" height="10" rx="2" ry="2" style="fill:#552048" />
<rect x="90" y="220" width="30" height="10" rx="2" ry="2" style="fill:#552048" />
<rect x="130" y="220" width="20" height="10" rx="2" ry="2" style="fill:#552048" />
<rect x="160" y="220" width="30" height="10" rx="2" ry="2" style="fill:#552048" />
<rect x="200" y="220" width="30" height="10" rx="2" ry="2" style="fill:#552048" />
<rect x="250" y="220" width="10" height="10" rx="2" ry="2" style="fill:#552048" />
<rect x="300" y="220" width="30" height="10" rx="2" ry="2" style="fill:#552048" />
<rect x="70" y="230" width="20" height="10" rx="2" ry="2" style="fill:#552048" />
<rect x="110" y="230" width="20" height="10" rx="2" ry="2" style="fill:#552048" />
<rect x="140" y="230" width="10" height="10" rx="2" ry="2" style="fill:#552048" />
<rect x="160" y="230" width="10" height="10" rx="2" ry="2" style="fill:#552048" />
<rect x="190" y="230" width="20" height="10" rx="2" ry="2" style="fill:#552048" />
<rect x="220" y="230" width="10" height="10" rx="2" ry="2" style="fill:#552048" />
<rect x="290" y="230" width="10" height="10" rx="2" ry="2" style="fill:#552048" />
<rect x="320" y="230" width="10" height="10" rx="2" ry="2" style="fill:#552048" />
<rect x="40" y="240" width="10" height="10" rx="2" ry="2" style="fill:#552048" />
<rect x="60" y="240" width="10" height="10" rx="2" ry="2" style="fill:#552048" />
<rect x="80" y="240" width="10" height="10" rx="2" ry="2" style="fill:#552048" />
<rect x="100" y="240" width="10" height="10" rx="2" ry="2" style="fill:#552048" />
<rect x="120" y="240" width="10" height="10" rx="2" ry="2" style="fill:#552048" />
<rect x="140" y="240" width="20" height="10" rx="2" ry="2" style="fill:#552048" />
<rect x="170" y="240" width="10" height="10" rx="2" ry="2" style="fill:#552048" />
<rect x="210" y="240" width="10" height="10" rx="2" ry="2" style="fill:#552048" />
<rect x="240" y="240" width="50" height="10" rx="2" ry="2" style="fill:#552048" />
<rect x="300" y="240" width="10" height="10" rx="2" ry="2" style="fill:#552048" />
<rect x="320" y="240" width="10" height="10" rx="2" ry="2" style="fill:#552048" />
<rect x="120" y="250" width="50" height="10" rx="2" ry="2" style="fill:#552048" />
<rect x="180" y="250" width="10" height="10" rx="2" ry="2" style="fill:#552048" />
<rect x="200" y="250" width="50" height="10" rx="2" ry="2" style="fill:#552048" />
<rect x="280" y="250" width="10" height="10" rx="2" ry="2" style="fill:#552048" />
<rect x="310" y="250" width="20" height="10" rx="2" ry="2" style="fill:#552048" />
<rect x="130" y="260" width="10" height="10" rx="2" ry="2" style="fill:#552048" />
<rect x="170" y="260" width="50" height="10" rx="2" ry="2" style="fill:#552048" />
<rect x="240" y="260" width="10" height="10" rx="2" ry="2" style="fill:#552048" />
<rect x="260" y="260" width="10" height="10" rx="2" ry="2" style="fill:#552048" />
<rect x="280" y="260" width="40" height="10" rx="2" ry="2" style="fill:#552048" />
<rect x="150" y="270" width="70" height="10" rx="2" ry="2" style="fill:#552048" />
<rect x="240" y="270" width="10" height="10" rx="2" ry="2" style="fill:#552048" />
<rect x="280" y="270" width="10" height="10" rx="2" ry="2" style="fill:#552048" />
<rect x="300" y="270" width="10" height="10" rx="2" ry="2" style="fill:#552048" />
<rect x="320" y="270" width="10" height="10" rx="2" ry="2" style="fill:#552048" />
<rect x="130" y="280" width="10" height="10" rx="2" ry="2" style="fill:#552048" />
<rect x="150" y="280" width="50" height="10" rx="2" ry="2" style="fill:#552048" />
<rect x="240" y="280" width="60" height="10" rx="2" ry="2" style="fill:#552048" />
<rect x="120" y="290" width="10" height="10" rx="2" ry="2" style="fill:#552048" />
<rect x="170" y="290" width="10" height="10" rx="2" ry="2" style="fill:#552048" />
<rect x="210" y="290" width="60" height="10" rx="2" ry="2" style="fill:#552048" />
<rect x="280" y="290" width="20" height="10" rx="2" ry="2" style="fill:#552048" />
<rect x="320" y="290" width="10" height="10" rx="2" ry="2" style="fill:#552048" />
<rect x="130" y="300" width="30" height="10" rx="2" ry="2" style="fill:#552048" />
<rect x="170" y="300" width="20" height="10" rx="2" ry="2" style="fill:#552048" />
<rect x="230" y="300" width="20" height="10" rx="2" ry="2" style="fill:#552048" />
<rect x="280" y="300" width="20" height="10" rx="2" ry="2" style="fill:#552048" />
<rect x="320" y="300" width="10" height="10" rx="2" ry="2" style="fill:#552048" />
<rect x="170" y="310" width="70" height="10" rx="2" ry="2" style="fill:#552048" />
<rect x="260" y="310" width="20" height="10" rx="2" ry="2" style="fill:#552048" />
<rect x="310" y="310" width="10" height="10" rx="2" ry="2" style="fill:#552048" />
<rect x="140" y="320" width="10" height="10" rx="2" ry="2" style="fill:#552048" />
<rect x="160" y="320" width="10" height="10" rx="2" ry="2" style="fill:#552048" />
<rect x="190" y="320" width="10" height="10" rx="2" ry="2" style="fill:#552048" />
<rect x="210" y="320" width="20" height="10" rx="2" ry="2" style="fill:#552048" />
<rect x="260" y="320" width="10" height="10" rx="2" ry="2" style="fill:#552048" />
<rect x="280" y="320" width="10" height="10" rx="2" ry="2" style="fill:#552048" />
<rect x="310" y="320" width="10" height="10" rx="2" ry="2" style="fill:#552048" />
<rect x="40" y="40" width="70" height="10" style="fill:#552048" />
<rect x="40" y="100" width="70" height="10" style="fill:#552048" />
<rect x="40" y="40" width="10" height="70" style="fill:#552048" />
<rect x="100" y="40" width="10" height="70" style="fill:#552048" />
<path d="M 75,60 L 90,75 L 75,90 L 60,75 Z" style="fill:#552048" />
<rect x="260" y="40" width="70" height="10" style="fill:#552048" />
<rect x="260" y="100" width="70" height="10" style="fill:#552048" />
<rect x="260" y="40" width="10" height="70" style="fill:#552048" />
<rect x="320" y="40" width="10" height="70" style="fill:#552048" />
<path d="M 295,60 L 310,75 L 295,90 L 280,75 Z" style="fill:#552048" />
<rect x="40" y="260" width="70" height="10" style="fill:#552048" />
<rect x="40" y="320" width="70" height="10" style="fill:#552048" />
<rect x="40" y="260" width="10" height="70" style="fill:#552048" />
<rect x="100" y="260" width="10" height="70" style="fill:#552048" />
<path d="M 75,280 L 90,295 L 75,310 L 60,295 Z" style="fill:#552048" />
</svg>
